<svg version="1.2" baseProfile="tiny-ps" xmlns="http://www.w3.org/2000/svg" viewBox="0 0 1500 1000" width="1500" height="1000">
	<title>4192733-ai</title>
	<style>
		tspan { white-space:pre }
		.shp0 { fill: #ebebeb } 
		.shp1 { fill: #dbdbdb } 
		.shp2 { fill: none;stroke: #c7c7c7;stroke-width: 1.5 } 
		.shp3 { fill: none;stroke: #c7c7c7;stroke-width: 1.5;stroke-dasharray: 5,5 } 
		.shp4 { fill: none;stroke: #c7c7c7;stroke-width: 1.5;stroke-dasharray: 5 } 
		.shp5 { fill: #a6a6a6 } 
		.shp6 { fill: #ffc727 } 
		.shp7 { fill: #263238 } 
		.shp8 { fill: #455a64 } 
		.shp9 { fill: #37474f } 
		.shp10 { fill: #ffffff } 
		.shp11 { fill: none;stroke: #263238;stroke-width: 2 } 
		.shp12 { opacity: 0.102;fill: #000000 } 
		.shp13 { fill: none;stroke: #c7c7c7;stroke-width: 20 } 
		.shp14 { fill: #c7c7c7 } 
		.shp15 { opacity: 0.322;fill: #000000 } 
		.shp16 { fill: #ad6359 } 
		.shp17 { fill: #ff98b9 } 
		.shp18 { opacity: 0.2;fill: #000000 } 
	</style>
	<g id="Background Complete">
		<g id="&lt;Group&gt;">
			<path id="&lt;Path&gt;" class="shp0" d="M320.51 271.92L145.3 271.65C151.11 264.1 157.23 259.85 163.63 258.92C176.14 221.86 192.82 203.22 213.67 202.99C233.05 202.77 246.61 214.19 254.35 237.25C263.34 226.93 272.13 224.13 280.7 228.87C289.27 233.61 295.98 242.75 300.81 256.29C310.45 261.51 317.02 266.71 320.51 271.92Z" />
			<path id="&lt;Path&gt;" class="shp0" d="M538.08 311.15L759.66 311.49C759.67 302.05 749.5 296.39 729.15 294.51C710.64 253.23 687.19 235.34 658.82 240.84C641.15 244.26 627.78 258.09 618.71 282.33C605.39 263.23 593.39 255.51 582.71 259.19C572.02 262.87 563.5 274.86 557.13 295.17C546.1 300.49 539.76 305.81 538.08 311.15Z" />
			<path id="&lt;Path&gt;" class="shp0" d="M421.05 153.03L571.72 153.26C562.26 144.42 555.42 140 551.2 139.99C544.89 139.98 526.51 95.53 502.94 97.38C487.23 98.62 475.18 110.26 466.82 132.3C447.73 126.28 432.47 133.19 421.05 153.03Z" />
			<path id="&lt;Path&gt;" class="shp0" d="M768.24 199.45L897.08 199.64C892.82 194.08 888.34 190.94 883.63 190.24C874.52 162.96 862.29 149.22 846.96 149C832.71 148.8 822.71 157.16 816.97 174.1C810.38 166.49 803.93 164.42 797.62 167.88C791.3 171.35 786.35 178.06 782.76 188C775.66 191.81 770.82 195.63 768.24 199.45Z" />
		</g>
		<g id="&lt;Group&gt;">
			<path id="&lt;Path&gt;" class="shp0" d="M1412.85 360.45C1412.85 419.93 1393.67 474.94 1361.14 519.62C1361.14 519.63 1361.13 519.64 1361.12 519.65C1311.89 587.26 1232.13 631.2 1142.1 631.2C992.56 631.2 871.34 509.98 871.34 360.45C871.34 270.91 914.8 191.52 981.78 142.23C1026.66 109.2 1082.1 89.69 1142.1 89.69C1149.52 89.69 1156.89 89.99 1164.16 90.58C1207.3 94.06 1247.58 107.64 1282.62 128.97C1310.41 145.87 1334.91 167.63 1354.94 193.08C1360.99 200.76 1366.63 208.78 1371.84 217.1C1397.83 258.67 1412.85 307.8 1412.85 360.45Z" />
			<g id="&lt;Group&gt;">
				<path id="&lt;Path&gt;" class="shp1" d="M1200.56 488.24C1197.15 497.34 1202.84 497.72 1203.22 501.51C1203.6 505.3 1203.22 512.51 1192.22 523.51C1181.22 534.5 1163.02 532.23 1159.23 536.78C1155.44 541.33 1148.99 560.67 1139.89 567.12C1130.79 573.56 1129.27 569.77 1116.38 572.42C1103.49 575.08 1093.63 591.76 1089.83 599.73C1086.04 607.69 1090.59 620.96 1081.49 621.34C1072.39 621.72 1068.22 602 1059.88 591.38C1051.53 580.77 1048.88 571.29 1046.23 558.77C1043.57 546.26 1047.74 520.09 1046.23 509.85C1044.71 499.62 1017.41 481.41 1007.55 468.9C997.69 456.39 984.04 431.36 984.79 423.02C985.55 414.67 991.62 405.57 996.17 402.16C1000.72 398.75 998.82 396.85 999.58 393.82C1000.34 390.78 1004.13 390.02 1004.89 386.23C1005.65 382.44 1002.62 371.06 998.82 369.17C995.03 367.27 992.38 373.72 990.1 372.58C987.83 371.44 981 363.48 978.35 362.72C975.69 361.96 976.45 367.65 972.66 360.45C968.87 353.24 966.97 335.04 963.94 332.01C960.9 328.97 958.63 337.31 951.42 332.01C944.22 326.7 941.18 316.46 938.15 314.94C935.12 313.42 930.95 315.32 927.83 309.25C924.7 303.19 930.57 292.19 927.83 293.33C925.08 294.46 919.19 303.19 917.67 294.84C916.16 286.5 925.26 258.44 923.74 243.27C922.22 228.1 927.53 212.18 938.15 199.28C939.16 193.72 940.17 189.17 941.18 185.63C942.7 180.32 975.31 159.09 979.11 153.02C980.68 150.49 981.21 146.51 981.78 142.23C1026.66 109.2 1082.1 89.69 1142.1 89.69C1149.52 89.69 1156.89 89.99 1164.16 90.58C1164.41 90.93 1164.66 91.26 1164.92 91.59C1168.2 95.76 1171.74 98.41 1181.35 101.95C1190.95 105.49 1193.23 110.04 1191.21 113.83C1189.19 117.62 1185.9 118.38 1182.11 118.64C1178.32 118.89 1174.78 116.86 1170.74 119.4C1166.69 121.92 1162.64 135.57 1157.33 136.33C1152.03 137.09 1142.67 124.2 1140.65 120.41C1138.62 116.61 1145.2 108.52 1142.1 104.73C1139 100.94 1133.57 101.7 1124.97 100.94C1116.38 100.18 1096.41 103.47 1097.17 106.75C1097.93 110.04 1126.49 106.25 1127.25 112.82C1128.01 119.4 1106.27 130.52 1102.48 129.51C1098.69 128.5 1093.63 121.92 1088.07 121.16C1082.5 120.41 1077.95 124.96 1074.45 125.47C1070.96 125.97 1066.83 121.67 1061.52 122.68C1056.21 123.69 1054.95 128.24 1052.16 130.02C1049.39 131.78 1042.81 131.78 1042.05 135.82C1041.3 139.88 1050.4 142.15 1052.67 144.68C1054.95 147.2 1049.89 155.8 1052.16 157.57C1054.44 159.34 1068.6 146.95 1072.14 143.92C1075.67 140.88 1078.71 127.74 1086.29 127.99C1093.88 128.24 1096.41 141.13 1098.94 142.4C1101.46 143.67 1107.03 139.37 1115.37 141.13C1123.71 142.91 1129.52 161.11 1131.04 166.67C1132.56 172.23 1136.1 177.8 1133.06 180.07C1130.03 182.35 1116.38 178.55 1114.61 175.01C1112.84 171.47 1123.71 166.16 1122.95 164.9C1122.2 163.64 1115.87 161.87 1112.59 163.85C1109.3 165.83 1107.79 169.95 1104.24 170.97C1100.7 171.98 1091.35 161.36 1088.83 164.39C1086.29 167.43 1091.35 177.04 1093.88 179.31C1096.41 181.59 1105.76 182.85 1106.52 185.38C1107.28 187.91 1100.2 193.46 1091.6 192.96C1083.01 192.46 1075.93 185.88 1072.64 188.66C1069.36 191.45 1071.12 198.77 1068.85 201.31C1066.57 203.83 1054.19 202.07 1048.12 208.63C1042.05 215.21 1039.27 225.07 1033.2 230.63C1027.14 236.19 1024.36 229.11 1016.27 236.95C1008.18 244.79 1006.92 262.23 1006.66 268.3C1006.41 274.37 1006.66 279.17 1004.64 278.41C1002.62 277.65 999.83 272.34 999.07 269.06C998.32 265.77 1000.85 260.21 1000.85 258.19C1000.85 256.16 989.22 245.8 982.39 244.79C975.56 243.78 969.5 249.34 964.45 253.38C959.39 257.43 950.29 256.67 947 259.96C943.71 263.24 941.18 292.32 943.71 299.14C946.24 305.97 949.53 305.97 957.62 302.43C965.7 298.88 961.15 292.06 965.96 293.58C970.76 295.09 973.29 300.15 973.29 304.19C973.29 308.24 963.69 317.85 964.95 320.63C966.21 323.41 974.55 320.12 978.6 321.39C982.65 322.65 984.66 325.18 983.41 335.55C982.14 345.91 982.9 354 988.96 357.41C995.03 360.83 998.45 352.48 1001.1 353.62C1003.75 354.76 1007.55 360.83 1011.34 360.45C1015.13 360.07 1013.23 356.65 1020.44 354.38C1027.64 352.1 1024.99 350.59 1026.51 346.04C1028.02 341.49 1032.57 337.69 1037.5 339.97C1042.43 342.24 1039.02 345.66 1039.4 349.45C1039.78 353.24 1048.5 353.62 1055.33 355.9C1062.15 358.17 1065.94 355.9 1079.6 360.45C1093.25 365 1094.01 378.65 1099.69 380.92C1105.38 383.2 1124.34 379.41 1137.99 389.27C1151.65 399.13 1147.85 417.33 1154.68 422.64C1161.51 427.95 1186.91 435.15 1196.77 437.05C1206.63 438.94 1208.15 432.12 1216.11 434.01C1224.07 435.91 1228.63 438.18 1231.28 449.18C1233.62 458.86 1203.98 479.14 1200.56 488.24Z" />
				<path id="&lt;Path&gt;" class="shp1" d="M996.8 294.34C997.05 296.48 1003.38 297.37 1010.96 301.67C1018.54 305.97 1021.32 318.61 1025.37 318.35C1029.41 318.1 1028.15 312.29 1029.67 310.77C1031.18 309.25 1033.71 305.97 1029.67 302.68C1025.62 299.39 1021.68 292.31 1014.3 291.3C1006.91 290.29 1005.65 287.26 1002.36 287.51C999.08 287.76 996.3 290.04 996.8 294.34Z" />
				<path id="&lt;Path&gt;" class="shp1" d="M1038.52 315.57C1037.39 318.67 1038.52 320.88 1046.6 322.9C1054.69 324.93 1062.28 320.88 1059.75 319.24C1057.22 317.6 1053.43 318.35 1054.95 315.57C1056.46 312.79 1055.95 308.75 1049.38 309.51C1042.81 310.26 1039.53 312.79 1038.52 315.57Z" />
				<path id="&lt;Path&gt;" class="shp1" d="M1066.83 316.44C1064.07 316.83 1062.53 321.64 1065.31 324.67C1068.09 327.71 1068.09 327.2 1071.38 324.67C1074.67 322.15 1079.72 320.89 1078.46 318.36C1077.19 315.83 1069.61 316.03 1066.83 316.44Z" />
				<path id="&lt;Path&gt;" class="shp1" d="M1088.82 326.76C1090.06 322.97 1096.41 326.7 1099.19 330.74C1101.97 334.79 1100.71 340.6 1099.19 344.9C1097.67 349.2 1096.66 354.25 1093.12 352.23C1089.58 350.21 1093.37 344.14 1092.87 340.6C1092.36 337.06 1087.81 329.87 1088.82 326.76Z" />
				<path id="&lt;Path&gt;" class="shp1" d="M1197.78 115.86C1196.46 119.03 1202.59 120.15 1206.13 122.18C1209.66 124.2 1212.45 125.46 1214.47 122.18C1216.49 118.89 1213.71 115.1 1210.93 114.34C1208.15 113.58 1199.05 112.82 1197.78 115.86Z" />
				<path id="&lt;Path&gt;" class="shp1" d="M1245.56 145.43C1247.9 147.9 1251.88 147.46 1254.66 151C1257.45 154.54 1256.43 160.6 1259.97 162.37C1263.51 164.14 1266.04 162.37 1266.29 159.84C1266.55 157.32 1261.24 151 1261.74 149.73C1262.25 148.47 1269.07 151.5 1270.59 155.29C1272.11 159.09 1269.07 164.39 1272.61 165.41C1276.15 166.42 1275.39 161.87 1276.91 160.86C1278.43 159.84 1281.71 160.35 1281.46 157.32C1281.21 154.28 1277.16 147.71 1273.88 145.43C1270.59 143.16 1268.06 140.63 1262.5 139.37C1256.94 138.1 1251.63 139.11 1248.85 141.39C1246.07 143.66 1244.12 143.92 1245.56 145.43Z" />
				<path id="&lt;Path&gt;" class="shp1" d="M1354.94 193.08C1354.64 194.34 1354.17 195.26 1353.51 195.74C1348.21 199.53 1341.88 186.39 1334.55 183.86C1327.22 181.33 1323.94 171.98 1322.42 174C1320.9 176.02 1321.4 178.8 1319.13 182.09C1316.85 185.38 1313.57 184.62 1312.05 190.94C1310.53 197.26 1319.13 208.89 1317.11 212.68C1315.09 216.48 1312.56 215.21 1308.51 214.96C1304.47 214.7 1305.23 218.24 1299.92 216.73C1294.62 215.21 1299.16 208.63 1290.82 200.8C1282.47 192.96 1279.69 191.45 1281.47 187.91C1283.26 184.36 1280.71 179.31 1284.5 178.8C1288.29 178.3 1291.32 183.86 1293.85 185.38C1296.38 186.9 1299.67 182.35 1299.92 178.3C1300.17 174.25 1291.07 168.69 1287.78 165.56C1284.5 162.41 1284.24 150.99 1285.51 148.72C1286.77 146.44 1290.57 147.2 1291.57 141.64C1292.17 138.37 1286.99 132.91 1282.62 128.97C1310.41 145.87 1334.91 167.63 1354.94 193.08Z" />
				<path id="&lt;Path&gt;" class="shp1" d="M1392.69 419.73C1393.45 411.64 1389.41 411.13 1393.45 396.22C1397.5 381.3 1389.16 365.38 1386.13 362.09C1383.09 358.8 1376.52 359.82 1371.21 363.1C1365.9 366.38 1369.69 368.92 1366.15 370.18C1362.62 371.44 1359.07 369.42 1355.79 369.68C1352.5 369.93 1349.46 378.27 1342.39 378.02C1335.31 377.76 1330.76 367.65 1325.45 360.45C1320.14 353.24 1309.27 348.69 1305.73 339.84C1302.19 331 1309.02 317.35 1307.5 306.98C1305.98 296.61 1299.16 298.88 1297.89 293.08C1296.63 287.26 1298.91 290.04 1300.68 284.48C1302.44 278.92 1298.65 275.88 1302.19 266.27C1305.73 256.67 1312.05 251.86 1310.53 247.57C1309.02 243.27 1304.22 236.19 1303.96 231.15C1303.71 226.12 1308.77 226.33 1318.37 219.25C1327.98 212.18 1330.5 212.68 1337.84 215.21C1345.17 217.73 1349.72 219 1354.01 219.76C1358.31 220.52 1364.13 231.64 1365.9 231.14C1367.67 230.63 1367.92 227.34 1368.68 222.54C1369 220.51 1370.37 218.61 1371.84 217.1C1397.83 258.67 1412.85 307.8 1412.85 360.45C1412.85 419.93 1393.67 474.94 1361.14 519.62C1386.93 480.25 1391.94 427.82 1392.69 419.73Z" />
			</g>
			<g id="&lt;Group&gt;">
				<g id="&lt;Group&gt;">
					<g id="&lt;Group&gt;">
						<g id="&lt;Group&gt;">
							<path id="&lt;Path&gt;" class="shp2" d="M979.3 206.02C979.74 205.89 980.37 205.7 981.21 205.45" />
							<path id="&lt;Path&gt;" class="shp3" d="M985.08 204.36C1021.28 194.41 1219.2 147.26 1339.9 267.44" />
							<path id="&lt;Path&gt;" class="shp3" d="M1341.34 268.88C1341.81 269.36 1342.28 269.83 1342.74 270.31" />
						</g>
					</g>
					<g id="&lt;Group&gt;">
						<g id="&lt;Group&gt;">
							<path id="&lt;Path&gt;" class="shp3" d="M1041.02 369.63C1040.91 369.19 1040.87 368.52 1040.86 367.65" />
							<path id="&lt;Path&gt;" class="shp3" d="M1041 363.64C1042.37 339.71 1051.6 256.48 982.63 208.28" />
							<path id="&lt;Path&gt;" class="shp3" d="M980.97 207.14C980.42 206.76 979.86 206.39 979.3 206.02" />
						</g>
					</g>
					<g id="&lt;Group&gt;">
						<g id="&lt;Group&gt;">
							<path id="&lt;Path&gt;" class="shp3" d="M1043.99 360.45C1044.3 360.11 1044.75 359.63 1045.36 359" />
							<path id="&lt;Path&gt;" class="shp3" d="M1048.21 356.14C1069.62 335.23 1171.8 246.23 1338.74 269.73" />
							<path id="&lt;Path&gt;" class="shp3" d="M1340.76 270.02C1341.42 270.12 1342.08 270.21 1342.74 270.31" />
						</g>
					</g>
					<g id="&lt;Group&gt;">
						<g id="&lt;Group&gt;">
							<path id="&lt;Path&gt;" class="shp3" d="M1133.28 405.17C1133.36 404.71 1133.46 404.06 1133.56 403.2" />
							<path id="&lt;Path&gt;" class="shp3" d="M1133.98 399.17C1136.38 371.27 1136.92 253.57 983.2 207.17" />
							<path id="&lt;Path&gt;" class="shp3" d="M981.23 206.58C980.59 206.4 979.95 206.21 979.3 206.02" />
						</g>
					</g>
					<g id="&lt;Group&gt;">
						<g id="&lt;Group&gt;">
							<path id="&lt;Path&gt;" class="shp3" d="M1342.74 270.31C1342.3 270.4 1341.65 270.53 1340.8 270.72" />
							<path id="&lt;Path&gt;" class="shp3" d="M1336.94 271.63C1302.83 280.07 1128.9 333.25 1096.49 546.16" />
							<path id="&lt;Path&gt;" class="shp3" d="M1096.2 548.15C1096.1 548.81 1096 549.47 1095.91 550.14" />
						</g>
					</g>
					<path id="&lt;Path&gt;" class="shp4" d="M1041.02 369.63C1096.1 423.61 1114.4 483.78 1095.91 550.14" />
				</g>
				<g id="&lt;Group&gt;">
					<path id="&lt;Compound Path&gt;" fill-rule="evenodd" class="shp5" d="M979.3 213.5C969.88 202.67 961.04 190.8 962.34 177.7C963.18 169.21 969.03 160.76 979.3 160.76C989.58 160.76 995.43 169.21 996.28 177.7C997.58 190.8 988.74 202.67 979.3 213.5ZM988.61 177.83C988.61 172.7 984.45 168.54 979.3 168.54C974.17 168.54 970.01 172.7 970.01 177.83C970.01 182.97 974.17 187.13 979.3 187.13C984.45 187.13 988.61 182.97 988.61 177.83Z" />
					<path id="&lt;Compound Path&gt;" fill-rule="evenodd" class="shp6" d="M1130.1 411.72C1120.68 400.89 1111.84 389.03 1113.14 375.92C1113.98 367.43 1119.83 358.98 1130.1 358.98C1140.38 358.98 1146.23 367.43 1147.08 375.92C1148.38 389.03 1139.54 400.89 1130.1 411.72ZM1139.41 376.05C1139.41 370.92 1135.25 366.76 1130.1 366.76C1124.97 366.76 1120.81 370.92 1120.81 376.05C1120.81 381.19 1124.97 385.35 1130.1 385.35C1135.25 385.35 1139.41 381.19 1139.41 376.05Z" />
					<path id="&lt;Compound Path&gt;" fill-rule="evenodd" class="shp5" d="M1038.14 374.88C1028.72 364.05 1019.88 352.18 1021.18 339.08C1022.02 330.59 1027.87 322.14 1038.14 322.14C1048.42 322.14 1054.27 330.59 1055.12 339.08C1056.42 352.18 1047.58 364.05 1038.14 374.88ZM1047.45 339.21C1047.45 334.07 1043.29 329.91 1038.14 329.91C1033.01 329.91 1028.85 334.07 1028.85 339.21C1028.85 344.34 1033.01 348.5 1038.14 348.5C1043.29 348.5 1047.45 344.34 1047.45 339.21Z" />
					<path id="&lt;Compound Path&gt;" fill-rule="evenodd" class="shp5" d="M1342.74 280.66C1333.31 269.83 1324.47 257.96 1325.77 244.86C1326.62 236.37 1332.47 227.92 1342.74 227.92C1353.02 227.92 1358.87 236.37 1359.72 244.86C1361.02 257.96 1352.18 269.83 1342.74 280.66ZM1352.05 244.99C1352.05 239.85 1347.89 235.69 1342.74 235.69C1337.6 235.69 1333.44 239.85 1333.44 244.99C1333.44 250.12 1337.6 254.28 1342.74 254.28C1347.89 254.28 1352.05 250.12 1352.05 244.99Z" />
					<path id="&lt;Compound Path&gt;" fill-rule="evenodd" class="shp6" d="M1095.9 563.89C1086.48 553.06 1077.64 541.2 1078.94 528.09C1079.78 519.6 1085.63 511.15 1095.9 511.15C1106.19 511.15 1112.04 519.6 1112.88 528.09C1114.18 541.2 1105.34 553.06 1095.9 563.89ZM1105.21 528.22C1105.21 523.09 1101.05 518.93 1095.9 518.93C1090.77 518.93 1086.61 523.09 1086.61 528.22C1086.61 533.36 1090.77 537.52 1095.9 537.52C1101.05 537.52 1105.21 533.36 1105.21 528.22Z" />
				</g>
			</g>
		</g>
	</g>
	<g id="Shadow">
		<path id="&lt;Path&gt;" class="shp0" d="M1432.53 866.15C1432.53 885.91 1138.93 901.93 776.76 901.93C414.59 901.93 120.99 885.91 120.99 866.15C120.99 846.38 414.59 830.36 776.76 830.36C1138.93 830.36 1432.53 846.38 1432.53 866.15Z" />
	</g>
	<g id="Floor">
		<g id="&lt;Group&gt;">
			<path id="&lt;Path&gt;" class="shp7" d="M58.8 799.23L230.51 798.74L402.23 798.57L745.66 798.23L1089.09 798.56L1260.81 798.74L1432.53 799.23L1260.81 799.72L1089.09 799.89L745.66 800.23L402.23 799.89L230.51 799.71L58.8 799.23Z" />
		</g>
	</g>
	<g id="World">
	</g>
	<g id="Plants">
		<g id="&lt;Group&gt;">
			<path id="&lt;Path&gt;" class="shp8" d="M294.36 799.19C291.91 787.73 288.22 781.12 283.32 779.35C278.41 777.58 274.46 779.27 271.48 784.42C270.32 773.46 266.27 766.35 259.31 763.07C252.35 759.79 246.26 761.51 241.04 768.22C235.7 754.32 228.26 747.37 218.73 747.37C209.19 747.37 202.01 757.54 197.2 777.88C191.57 771.82 185.87 770.5 180.1 773.92C174.33 777.34 171.45 785.77 171.45 799.19L294.36 799.19Z" />
			<path id="&lt;Path&gt;" class="shp9" d="M567.2 799.19L437.83 799.19C440.67 787.03 444.95 780.52 450.67 779.66C456.39 778.8 460.57 781.19 463.23 786.83C462.98 769.87 468.19 759.95 478.87 757.06C489.55 754.17 499.37 760.22 508.33 775.2C515.02 766.66 522.94 762.66 532.06 763.21C541.19 763.75 546.91 771.08 549.23 785.2C557.54 780.3 563.53 784.96 567.2 799.19Z" />
			<path id="&lt;Path&gt;" class="shp9" d="M189.1 799.19L120.99 799.19C121.1 792.44 123.38 788.16 127.85 786.37C132.31 784.57 135.87 785.43 138.52 788.93C140.34 776.5 145.41 770.29 153.73 770.29C162.05 770.29 168.2 775.65 172.18 786.37C174.04 783.13 177.28 781.81 181.9 782.41C186.52 783.01 188.92 788.61 189.1 799.19Z" />
		</g>
	</g>
	<g id="Truck">
		<g id="&lt;Group&gt;">
			<g id="&lt;Group&gt;">
				<path id="&lt;Path&gt;" class="shp6" d="M738.61 381.24L755.34 752.83L1059.96 752.83L1028.46 602.01L926.94 569.97C921.64 568.12 917.41 563.97 915.43 558.67L854.73 402.79L738.61 381.24Z" />
				<g id="&lt;Group&gt;">
					<path id="&lt;Path&gt;" class="shp8" d="M772.16 420.36L779.76 554.42L889.7 564.72L842.33 425.26L772.16 420.36Z" />
					<g id="&lt;Group&gt;" style="opacity: 0.302">
						<path id="&lt;Path&gt;" class="shp10" d="M776.32 493.81L778.05 524.38L811.01 557.34L842.85 560.33L776.32 493.81Z" />
						<path id="&lt;Path&gt;" class="shp10" d="M794.64 421.93L865.15 492.43L857.73 470.58L810.16 423.01L794.64 421.93Z" />
						<path id="&lt;Path&gt;" class="shp10" d="M773.06 436.12L773.26 439.83L885.36 551.92L883.54 546.59L773.06 436.12Z" />
						<path id="&lt;Path&gt;" class="shp10" d="M778.7 535.67L778.91 539.38L795.41 555.88L799.28 556.24L778.7 535.67Z" />
					</g>
					<path id="&lt;Path&gt;" class="shp7" d="M772.16 420.36L842.33 425.26L889.7 564.72L882.34 564.03L837.57 432.17L772.49 426.23L772.16 420.36Z" />
				</g>
				<path id="&lt;Path&gt;" class="shp11" d="M922.31 573.31L922.31 747.18" />
				<path id="&lt;Path&gt;" class="shp10" d="M1041.85 602.41L1017.08 598.49L1031.52 649.51L1044.29 648.16C1047.12 647.86 1049.2 645.36 1048.98 642.52L1046.28 607.2C1046.09 604.77 1044.26 602.79 1041.85 602.41Z" />
				<g id="&lt;Group&gt;">
					<path id="&lt;Path&gt;" class="shp6" d="M903.33 528.69C897.41 533.73 902.76 579.25 906.99 578.48C911.22 577.71 920.25 575.98 923.9 573.1C927.56 570.22 948.13 533.37 943.13 525.74C938.13 518.11 907.92 524.78 903.33 528.69Z" />
					<path id="&lt;Path&gt;" class="shp12" d="M903.33 528.69C897.41 533.73 902.76 579.25 906.99 578.48C911.22 577.71 920.25 575.98 923.9 573.1C927.56 570.22 948.13 533.37 943.13 525.74C938.13 518.11 907.92 524.78 903.33 528.69Z" />
				</g>
				<path id="&lt;Path&gt;" class="shp12" d="M823.62 593.56L785.89 593.56L785.89 582.97L823.62 585.01L823.62 593.56Z" />
			</g>
			<g id="&lt;Group&gt;">
				<path id="&lt;Path&gt;" class="shp6" d="M746.92 752.83L120.66 752.83L153.8 306.26L724.36 275.97L746.92 752.83Z" />
				<g id="&lt;Group&gt;">
					<path id="&lt;Compound Path&gt;" class="shp7" d="M253.24 625.96C254.79 624.41 257.15 624.19 258.55 625.44C261.2 628.02 266.14 631.04 271.37 630.97C274.98 630.97 278.37 629.86 280.73 628.31C283.16 626.69 284.42 624.92 284.79 623.15C284.93 622.2 284.86 621.53 284.56 620.87C284.2 620.13 283.68 619.39 282.72 618.73C280.88 617.33 277.56 616.08 273.43 615.27L273.36 615.27L273.29 615.27C270.04 614.6 267.1 613.72 264.59 612.47C262.08 611.14 260.02 609.44 258.84 606.87C258.1 605.17 257.88 603.11 258.25 601.04C259.06 596.69 262.16 592.94 265.92 590.58C269.68 588.14 274.25 586.74 278.96 586.74C285.89 586.74 290.31 590.13 293.56 592.49C295.1 593.6 295.1 595.88 293.7 597.58C292.3 599.27 289.94 599.79 288.47 598.61C285.23 596.25 282.06 594.04 277.71 594.11C274.39 594.04 271.3 595.07 269.16 596.47C267.02 597.95 265.92 599.49 265.62 601.04C265.47 601.85 265.55 602.44 265.84 603.03C266.06 603.62 266.58 604.21 267.39 604.88C269.09 606.2 272.11 607.31 275.87 608.04L276.01 608.04C279.55 608.71 282.72 609.67 285.45 611.07C288.03 612.47 290.31 614.31 291.49 616.96C292.3 618.8 292.52 620.94 292.08 623.15C291.27 627.72 288.03 631.7 284.05 634.28C279.99 636.86 275.13 638.34 270.04 638.34C262.23 638.26 256.33 634.43 252.87 631.11C251.54 629.86 251.69 627.58 253.24 625.96Z" />
					<path id="&lt;Compound Path&gt;" class="shp7" d="M315.22 616.59L312.13 634.28C311.76 636.5 309.62 638.34 307.34 638.34C305.13 638.34 303.58 636.5 304.02 634.28L311.61 590.8C312.05 588.59 314.19 586.74 316.48 586.74C318.69 586.74 320.23 588.59 319.79 590.8L316.7 608.49L335.79 608.49L338.88 590.8C339.32 588.59 341.46 586.74 343.67 586.74C345.96 586.74 347.43 588.59 347.06 590.8L339.4 634.28C339.03 636.5 336.82 638.34 334.61 638.34C332.32 638.34 330.85 636.5 331.22 634.28L334.31 616.59L315.22 616.59Z" />
					<path id="&lt;Compound Path&gt;" class="shp7" d="M363.87 638.41C361.58 638.41 360.11 636.57 360.47 634.36L368.14 590.87C368.58 588.66 370.72 586.82 372.93 586.82C375.22 586.82 376.69 588.66 376.32 590.87L368.66 634.36C368.29 636.57 366.08 638.41 363.87 638.41Z" />
					<path id="&lt;Compound Path&gt;" fill-rule="evenodd" class="shp7" d="M382.44 634.21L390.1 590.72C390.55 588.51 392.68 586.67 394.89 586.67C394.94 586.67 394.97 586.67 394.97 586.67C394.97 586.67 394.99 586.67 395.04 586.67L408.09 586.67C416.86 586.67 422.68 593.75 421.13 602.44C419.59 611.21 411.26 618.22 402.56 618.29L393.42 618.29L390.62 634.21C390.25 636.42 388.04 638.26 385.83 638.26C383.54 638.26 382.07 636.42 382.44 634.21ZM406.69 594.85L397.55 594.85L394.89 610.11L403.96 610.11C408.16 610.11 412.21 606.64 412.95 602.44C413.69 598.24 410.89 594.85 406.69 594.85Z" />
					<path id="&lt;Compound Path&gt;" fill-rule="evenodd" class="shp7" d="M425.41 634.21L433.07 590.72C433.51 588.51 435.65 586.67 437.86 586.67C437.91 586.67 437.94 586.67 437.94 586.67C437.94 586.67 437.96 586.67 438.01 586.67L451.05 586.67C459.83 586.67 465.65 593.75 464.1 602.44C462.55 611.21 454.22 618.22 445.53 618.29L436.39 618.29L433.59 634.21C433.22 636.42 431.01 638.26 428.8 638.26C426.51 638.26 425.04 636.42 425.41 634.21ZM449.65 594.85L440.52 594.85L437.86 610.11L446.93 610.11C451.13 610.11 455.18 606.64 455.92 602.44C456.66 598.24 453.86 594.85 449.65 594.85Z" />
					<path id="&lt;Compound Path&gt;" class="shp7" d="M472.28 638.41C470 638.41 468.52 636.57 468.89 634.36L476.55 590.87C477 588.66 479.13 586.82 481.35 586.82C483.63 586.82 485.11 588.66 484.74 590.87L477.07 634.36C476.7 636.57 474.49 638.41 472.28 638.41Z" />
					<path id="&lt;Compound Path&gt;" class="shp7" d="M498.52 591.02C498.74 589.69 499.55 588.36 500.88 587.55C502.87 586.23 505.37 586.6 506.33 588.44L524.46 621.75L529.84 591.02C530.28 588.81 532.42 586.97 534.63 586.97C536.92 586.97 538.39 588.81 538.02 591.02L530.36 634.28C529.99 636.57 527.85 638.34 525.57 638.34C524.39 638.34 523.36 637.82 522.77 636.94C522.69 636.79 522.54 636.64 522.47 636.42L504.49 603.4L499.03 634.28C498.67 636.57 496.53 638.34 494.24 638.34C492.03 638.34 490.48 636.57 490.93 634.28L498.52 591.02Z" />
					<path id="&lt;Compound Path&gt;" class="shp7" d="M548.93 612.47C551.51 598.09 565.37 586.67 579.89 586.67C586.08 586.67 591.46 588.73 595.29 592.27C596.84 593.6 596.69 596.18 595 597.95C593.3 599.72 590.72 600.08 589.17 598.68C586.45 596.25 582.76 594.78 578.41 594.78C573.33 594.78 568.46 596.77 564.55 600.01C560.72 603.25 557.92 607.6 557.11 612.47C556.23 617.26 557.48 621.68 560.21 624.85C562.93 628.09 567.13 630.08 572.22 630.08C575.83 630.08 579.37 629.05 582.54 627.28L584.31 617.48L574.06 617.48C571.85 617.48 570.3 615.64 570.75 613.43C571.11 611.14 573.25 609.37 575.54 609.37L589.69 609.37C589.69 609.37 589.71 609.37 589.76 609.37C592.05 609.37 593.52 611.14 593.15 613.43L590.35 629.35C590.28 629.71 590.13 630.08 589.98 630.45C589.91 630.6 589.84 630.74 589.76 630.89C589.76 630.89 589.74 630.92 589.69 630.97C589.32 631.63 588.8 632.22 588.14 632.66C583.06 636.13 576.94 638.26 570.82 638.26C570.77 638.26 570.75 638.26 570.75 638.26C556.3 638.19 546.42 626.77 548.93 612.47Z" />
				</g>
				<g id="&lt;Group&gt;">
					<path id="&lt;Compound Path&gt;" fill-rule="evenodd" class="shp10" d="M546.36 539.23L248.09 578.43L229.23 399.92L538.77 374.92L622.72 445.98L546.36 539.23ZM569.97 436.71C562.53 438.49 557.84 446.14 559.66 453.73C561.48 461.33 569.09 465.86 576.53 464.08C584.12 462.26 588.85 454.77 587.03 447.17C585.21 439.58 577.56 434.89 569.97 436.71Z" />
					<g id="&lt;Group&gt;">
						<path id="&lt;Compound Path&gt;" class="shp7" d="M278.4 520.73L270.41 454.64C270.01 451.28 272.36 448.16 275.83 447.74L275.94 447.72C275.94 447.72 276.02 447.71 276.17 447.7L312.46 443.31C315.71 442.92 318.96 445.37 319.36 448.73C319.78 452.2 317.21 455.35 313.96 455.75L283.6 459.41L286.08 479.91L312.18 476.76C315.54 476.35 318.69 478.93 319.08 482.17C319.5 485.65 317.04 488.79 313.68 489.19L287.58 492.35L290.83 519.23C291.23 522.59 288.77 525.72 285.3 526.14C281.83 526.56 278.8 524.09 278.4 520.73Z" />
						<path id="&lt;Compound Path&gt;" fill-rule="evenodd" class="shp7" d="M397.63 503.14C399.15 506.26 397.77 509.95 394.66 511.46C394.23 511.62 393.36 511.96 392.24 512.09C392.24 512.09 392.2 512.1 392.12 512.11C391 512.24 389.3 512.22 387.61 511.4C386.04 510.68 384.64 509.37 383.55 507.91C381.59 504.85 380.32 500.92 379.58 494.76C379.21 492.64 378.58 491.24 377.65 490.1C376.83 488.95 375.35 487.99 373.9 487.26C371.35 485.97 368.33 485.43 367.3 485.33L354.08 486.92L357.02 511.23C357.42 514.59 354.96 517.73 351.49 518.15C348.02 518.57 344.99 516.09 344.58 512.73L336.6 446.65C336.18 443.18 338.55 440.16 342.02 439.74C342.02 439.74 342.06 439.74 342.13 439.73L362.07 437.32C375.4 435.71 387.34 445.18 388.95 458.51C389.84 465.9 387.26 472.8 382.43 477.93C384.02 478.88 385.53 480.06 386.85 481.6C389.48 484.58 391.44 488.55 392.01 493.25C392.3 496.63 392.89 498.71 393.25 499.81C395.11 500.15 396.73 501.32 397.63 503.14ZM376.51 460.01C375.73 453.51 369.95 448.98 363.57 449.75L349.79 451.42L352.58 474.49L366.36 472.83C372.74 472.05 377.27 466.28 376.51 460.01Z" />
						<path id="&lt;Compound Path&gt;" class="shp7" d="M416.15 504.09L408.17 438C407.75 434.53 410.12 431.52 413.59 431.1L413.7 431.09C413.7 431.09 413.77 431.08 413.92 431.06L450.21 426.68C453.46 426.28 456.7 428.62 457.12 432.09C457.54 435.56 454.96 438.72 451.72 439.11L421.36 442.78L423.84 463.27L449.93 460.12C453.3 459.72 456.45 462.29 456.84 465.54C457.26 469.01 454.8 472.15 451.44 472.55L425.34 475.71L427.83 496.32L458.18 492.65C461.43 492.26 464.68 494.71 465.1 498.18C465.5 501.54 462.93 504.69 459.68 505.08L423.39 509.47C423.24 509.48 423.16 509.46 423.15 509.38L423.06 509.51C419.58 509.93 416.56 507.45 416.15 504.09Z" />
						<path id="&lt;Compound Path&gt;" class="shp7" d="M482.56 496.07L474.58 429.98C474.16 426.51 476.53 423.5 480 423.08L480.11 423.07C480.11 423.07 480.19 423.06 480.34 423.04L516.63 418.65C519.88 418.26 523.11 420.6 523.53 424.07C523.95 427.54 521.38 430.7 518.13 431.09L487.77 434.75L490.25 455.25L516.35 452.1C519.71 451.69 522.86 454.27 523.25 457.52C523.67 460.99 521.21 464.13 517.85 464.53L491.75 467.69L494.24 488.29L524.59 484.63C527.84 484.24 531.09 486.69 531.51 490.16C531.92 493.52 529.34 496.67 526.1 497.06L489.81 501.45C489.66 501.46 489.58 501.43 489.57 501.36L489.47 501.49C486 501.91 482.97 499.43 482.56 496.07Z" />
					</g>
					<g id="&lt;Group&gt;">
						<path id="&lt;Path&gt;" class="shp7" d="M578.31 446.75C584.01 446.32 589.73 446.41 595.45 446.7C601.17 446.97 606.89 447.59 612.58 448.46C623.97 450.23 635.28 453.13 646.23 457.56C651.67 459.85 657.03 462.48 662.14 465.7C664.71 467.27 667.18 469.06 669.63 470.88L673.15 473.84C674.33 474.83 675.4 475.96 676.53 477.02C680.93 481.39 684.78 486.46 687.86 492.02L690 496.29C690.63 497.75 691.16 499.25 691.74 500.74C692.36 502.23 692.69 503.72 693.15 505.21L693.8 507.45L694.29 509.75C695.64 515.84 696.15 522.18 695.77 528.46C695.39 534.75 694.06 540.93 692.07 546.81C687.99 558.58 681.12 568.92 672.96 577.59C664.8 586.31 655.28 593.42 645.17 599.18C635.05 604.91 624.17 609.3 612.91 611.57L612.43 610.07C622.68 605.37 632.12 599.36 640.84 592.65C649.53 585.9 657.48 578.32 664.13 569.94C670.74 561.55 676.05 552.32 678.98 542.56C681.98 532.83 682.48 522.6 680.3 512.73L679.93 510.87L679.42 509.03C679.05 507.83 678.79 506.54 678.32 505.42C677.87 504.27 677.48 503.1 677.01 501.96L675.45 498.6C673.18 494.2 670.22 490.13 666.83 486.33C659.98 478.76 651.07 472.7 641.55 467.62C631.95 462.59 621.63 458.56 611.02 455.16C600.39 451.78 589.47 449 578.31 446.75Z" />
						<g id="&lt;Group&gt;">
							<path id="&lt;Path&gt;" class="shp7" d="M627.45 585.18L614.59 610.36L640.64 621.35L601.81 615.01L627.45 585.18Z" />
						</g>
					</g>
				</g>
				<path id="&lt;Path&gt;" class="shp12" d="M746.93 752.83L120.67 752.83L122.45 728.85L743.95 689.85L746.93 752.83Z" />
			</g>
			<g id="&lt;Group&gt;">
				<path id="&lt;Path&gt;" class="shp0" d="M117.49 772.91L1073.95 772.91L1073.95 744.46C1073.95 744.46 1073.95 744.46 1073.95 744.46L117.49 744.46L117.49 772.91Z" />
				<path id="&lt;Path&gt;" class="shp1" d="M1093.87 730.79L998.46 736.65L998.46 777.24L1100.98 777.24C1100.98 777.24 1100.98 777.24 1100.98 777.24L1093.87 730.79Z" />
				<path id="&lt;Path&gt;" class="shp1" d="M158.69 777.24L158.69 737.49L98.48 731.28L91.08 777.24L158.69 777.24Z" />
				<g id="&lt;Group&gt;">
					<path id="&lt;Path&gt;" class="shp13" d="M371.31 781.52C365.38 737.59 340.68 715.63 297.2 715.63C253.72 715.63 228.77 737.59 222.34 781.52" />
					<g id="&lt;Group&gt;">
						<path id="&lt;Path&gt;" class="shp7" d="M296.83 717.76C203.57 717.76 203.41 862.69 296.83 862.69C390.08 862.69 390.24 717.76 296.83 717.76Z" />
						<path id="&lt;Path&gt;" class="shp14" d="M296.83 757.34C254.5 757.34 254.43 823.12 296.83 823.12C339.15 823.12 339.22 757.34 296.83 757.34Z" />
					</g>
				</g>
				<g id="&lt;Group&gt;">
					<path id="&lt;Path&gt;" class="shp13" d="M929.96 781.52C924.03 737.59 899.33 715.63 855.85 715.63C812.37 715.63 787.42 737.59 780.99 781.52" />
					<g id="&lt;Group&gt;">
						<path id="&lt;Path&gt;" class="shp7" d="M855.83 717.76C762.57 717.76 762.42 862.69 855.83 862.69C949.08 862.69 949.24 717.76 855.83 717.76Z" />
						<path id="&lt;Path&gt;" class="shp14" d="M855.83 757.34C813.5 757.34 813.43 823.12 855.83 823.12C898.16 823.12 898.23 757.34 855.83 757.34Z" />
					</g>
				</g>
			</g>
		</g>
	</g>
	<g id="Boxes">
		<g id="&lt;Group&gt;">
			<g id="&lt;Group&gt;">
				<path id="&lt;Path&gt;" class="shp6" d="M1150.32 756.5L1150.32 873.29L1255.79 873.29L1255.79 756.5L1150.32 756.5Z" />
				<path id="&lt;Path&gt;" class="shp12" d="M1150.32 756.5L1150.32 873.29L1255.79 873.29L1255.79 756.5L1150.32 756.5Z" />
				<path id="&lt;Path&gt;" class="shp6" d="M1095.86 873.3L1150.32 873.3L1150.32 756.5L1095.86 756.5L1095.86 873.3Z" />
				<path id="&lt;Path&gt;" class="shp15" d="M1095.86 873.3L1150.32 873.3L1150.32 756.5L1095.86 756.5L1095.86 873.3Z" />
				<path id="&lt;Path&gt;" class="shp10" d="M1194.1 781.74L1196.34 781.74L1198.01 781.74L1198.97 779.8L1200.31 781.74L1202.14 777.74L1203.86 781.74L1208.8 781.74L1211.05 781.74L1211.87 779.07L1212.63 781.74L1214.1 781.74L1214.1 756.5L1194.1 756.5L1194.1 781.74Z" />
				<g id="&lt;Group&gt;">
					<path id="&lt;Path&gt;" class="shp6" d="M1099.61 865.25C1103.65 856.95 1107.65 848.62 1111.6 840.26L1123.42 815.14L1135.08 789.91C1138.95 781.48 1142.78 773.03 1146.57 764.55C1142.53 772.85 1138.54 781.18 1134.58 789.54L1122.76 814.67L1111.1 839.9C1107.23 848.32 1103.41 856.78 1099.61 865.25Z" />
					<path id="&lt;Path&gt;" class="shp6" d="M1099.61 764.55C1103.41 773.03 1107.23 781.48 1111.1 789.91L1122.76 815.14L1134.58 840.26C1138.54 848.62 1142.53 856.95 1146.57 865.25C1142.78 856.78 1138.95 848.32 1135.08 839.9L1123.42 814.67L1111.6 789.55C1107.65 781.18 1103.65 772.86 1099.61 764.55Z" />
				</g>
			</g>
			<g id="&lt;Group&gt;">
				<path id="&lt;Path&gt;" class="shp6" d="M1199.15 639.71L1199.15 756.5L1304.61 756.5L1304.61 639.71L1199.15 639.71Z" />
				<path id="&lt;Path&gt;" class="shp12" d="M1199.15 639.71L1199.15 756.5L1304.61 756.5L1304.61 639.71L1199.15 639.71Z" />
				<path id="&lt;Path&gt;" class="shp6" d="M1144.69 756.5L1199.15 756.5L1199.15 639.71L1144.69 639.71L1144.69 756.5Z" />
				<path id="&lt;Path&gt;" class="shp15" d="M1144.69 756.5L1199.15 756.5L1199.15 639.71L1144.69 639.71L1144.69 756.5Z" />
				<path id="&lt;Path&gt;" class="shp10" d="M1242.93 664.95L1245.16 664.95L1246.84 664.95L1247.8 663L1249.14 664.95L1250.96 660.95L1252.69 664.95L1257.62 664.95L1259.88 664.95L1260.69 662.28L1261.46 664.95L1262.92 664.95L1262.92 639.71L1242.93 639.71L1242.93 664.95Z" />
				<g id="&lt;Group&gt;">
					<path id="&lt;Path&gt;" class="shp6" d="M1148.44 748.46C1152.47 740.15 1156.47 731.82 1160.43 723.46L1172.24 698.34L1183.91 673.11C1187.78 664.69 1191.6 656.23 1195.39 647.75C1191.36 656.06 1187.36 664.39 1183.4 672.75L1171.59 697.87L1159.93 723.1C1156.06 731.52 1152.23 739.98 1148.44 748.46Z" />
					<path id="&lt;Path&gt;" class="shp6" d="M1148.44 647.75C1152.23 656.23 1156.06 664.69 1159.93 673.11L1171.59 698.34L1183.4 723.46C1187.36 731.82 1191.36 740.15 1195.39 748.46C1191.6 739.98 1187.78 731.52 1183.91 723.1L1172.24 697.87L1160.43 672.75C1156.47 664.39 1152.47 656.06 1148.44 647.75Z" />
				</g>
			</g>
			<g id="&lt;Group&gt;">
				<path id="&lt;Path&gt;" class="shp6" d="M1285.82 756.5L1285.82 873.29L1391.29 873.29L1391.29 756.5L1285.82 756.5Z" />
				<path id="&lt;Path&gt;" class="shp12" d="M1285.82 756.5L1285.82 873.29L1391.29 873.29L1391.29 756.5L1285.82 756.5Z" />
				<path id="&lt;Path&gt;" class="shp6" d="M1231.36 873.3L1285.82 873.3L1285.82 756.5L1231.36 756.5L1231.36 873.3Z" />
				<path id="&lt;Path&gt;" class="shp15" d="M1231.36 873.3L1285.82 873.3L1285.82 756.5L1231.36 756.5L1231.36 873.3Z" />
				<path id="&lt;Path&gt;" class="shp10" d="M1329.6 781.74L1331.84 781.74L1333.51 781.74L1334.47 779.8L1335.81 781.74L1337.64 777.74L1339.36 781.74L1344.3 781.74L1346.55 781.74L1347.37 779.07L1348.13 781.74L1349.6 781.74L1349.6 756.5L1329.6 756.5L1329.6 781.74Z" />
				<g id="&lt;Group&gt;">
					<path id="&lt;Path&gt;" class="shp6" d="M1235.11 865.25C1239.15 856.95 1243.15 848.62 1247.1 840.26L1258.92 815.14L1270.58 789.91C1274.45 781.48 1278.28 773.03 1282.07 764.55C1278.04 772.85 1274.04 781.18 1270.08 789.54L1258.26 814.67L1246.6 839.9C1242.73 848.32 1238.91 856.78 1235.11 865.25Z" />
					<path id="&lt;Path&gt;" class="shp6" d="M1235.11 764.55C1238.91 773.03 1242.73 781.48 1246.6 789.91L1258.26 815.14L1270.08 840.26C1274.04 848.62 1278.04 856.95 1282.07 865.25C1278.28 856.78 1274.45 848.32 1270.58 839.9L1258.92 814.67L1247.1 789.55C1243.15 781.18 1239.15 772.86 1235.11 764.55Z" />
				</g>
			</g>
		</g>
	</g>
	<g id="Character">
		<g id="&lt;Group&gt;">
			<g id="&lt;Group&gt;">
				<g id="&lt;Group&gt;">
					<g id="&lt;Group&gt;">
						<path id="&lt;Path&gt;" class="shp16" d="M979.48 874.67C983.31 875.91 1092.49 874.49 1096.61 871.8C1098.19 870.8 1098.91 854.88 1099.23 835.62C1099.24 835.42 1099.24 835.21 1099.24 835.01C1099.31 831.04 1099.36 826.96 1099.37 822.81C1099.37 822.24 1099.37 821.67 1099.39 821.1L1094.09 764.47L1021.06 765.2L1028.27 821.3L1028.35 823.53L1028.79 835.14L1028.83 836.34C1001.14 849.16 985.88 856.72 983.07 859.01C978.88 862.44 975.65 873.45 979.48 874.67Z" />
						<path id="&lt;Path&gt;" class="shp0" d="M979.48 874.67C983.31 875.91 1092.49 874.49 1096.61 871.8C1098.19 870.8 1098.91 854.88 1099.23 835.62C1099.24 835.42 1099.24 835.21 1099.24 835.01C1099.31 831.04 1099.36 826.96 1099.37 822.81C1099.37 822.24 1099.37 821.67 1099.39 821.1L1028.27 821.3L1028.35 823.53L1028.79 835.14L1028.83 836.34C1001.14 849.16 985.88 856.72 983.07 859.01C978.88 862.44 975.65 873.45 979.48 874.67Z" />
						<g id="&lt;Group&gt;">
							<path id="&lt;Path&gt;" class="shp6" d="M979.47 874.66C981.45 875.3 1011.11 875.23 1040.1 874.65C1045.93 874.53 1051.72 874.4 1057.25 874.25C1077.93 873.68 1095.01 872.83 1096.6 871.79C1098.17 870.81 1098.89 855.32 1099.21 836.42C1099.21 836.15 1099.22 835.88 1099.22 835.62C1099.22 835.42 1099.22 835.2 1099.24 835L1099.16 835L1028.79 835.13L1028.83 836.34C1001.13 849.15 985.87 856.71 983.07 859C978.87 862.44 975.65 873.45 979.47 874.66Z" />
							<g id="&lt;Group&gt;">
								<g id="&lt;Group&gt;">
									<path id="&lt;Path&gt;" class="shp7" d="M980.66 870.42C999.06 869.73 1073.33 868.68 1091.57 869.4C1091.72 869.4 1091.72 869.51 1091.57 869.51C1073.35 870.6 999.08 871.04 980.67 870.72C980.28 870.72 980.28 870.44 980.66 870.42Z" />
									<path id="&lt;Path&gt;" class="shp7" d="M1020.95 835.44C1028.18 834 1037.05 834.99 1042.65 840.08C1042.87 840.28 1042.59 840.58 1042.35 840.51C1035.18 838.35 1028.48 837 1020.99 836.36C1020.47 836.31 1020.44 835.55 1020.95 835.44Z" />
									<path id="&lt;Path&gt;" class="shp7" d="M1015.77 838.66C1022.99 837.22 1031.86 838.21 1037.46 843.3C1037.68 843.5 1037.4 843.8 1037.16 843.73C1029.99 841.57 1023.3 840.21 1015.81 839.58C1015.28 839.53 1015.25 838.76 1015.77 838.66Z" />
									<path id="&lt;Path&gt;" class="shp7" d="M1010.58 841.88C1017.81 840.43 1026.68 841.43 1032.28 846.52C1032.5 846.72 1032.21 847.02 1031.98 846.95C1024.8 844.79 1018.11 843.43 1010.62 842.79C1010.09 842.75 1010.06 841.98 1010.58 841.88Z" />
								</g>
							</g>
							<path id="&lt;Path&gt;" class="shp7" d="M1040.1 874.65C1045.93 874.53 1051.72 874.4 1057.25 874.25C1077.93 873.68 1095.01 872.83 1096.6 871.79C1098.17 870.81 1098.89 855.32 1099.21 836.42C1099.21 836.15 1099.22 835.88 1099.22 835.62C1099.22 835.42 1099.22 835.2 1099.24 835L1099.16 835C1089.52 841.76 1055.55 864.38 1040.1 874.65Z" />
						</g>
					</g>
					<g id="&lt;Group&gt;">
						<path id="&lt;Path&gt;" class="shp7" d="M1023.71 835.38L1102.34 835.38C1091.78 712.95 1086.71 650.67 1087.12 648.53C1087.91 644.42 1092.55 625.83 1098.73 601.55C1100.67 593.95 1102.76 585.8 1104.93 577.35C1110.79 554.5 1117.25 529.53 1122.88 507.8C1128.51 486.1 1133.53 466.82 1137.93 449.97L1071.29 449.97C1066.11 466.38 1060.26 485.26 1053.74 506.62C1037.79 558.67 1016.48 630.32 1014.37 647.74C1012.1 666.49 1015.21 729.04 1023.71 835.38Z" />
						<g id="&lt;Group&gt;">
							<g id="&lt;Group&gt;">
								<path id="&lt;Path&gt;" class="shp9" d="M1027.48 821.97C1039.49 821.72 1036.04 821.62 1048.05 821.5C1053.93 821.45 1092.55 821.11 1098.04 822.02C1098.16 822.04 1098.16 822.24 1098.04 822.26C1092.55 823.17 1053.93 822.84 1048.05 822.78C1036.04 822.67 1039.49 822.57 1027.48 822.32C1027.26 822.31 1027.26 821.97 1027.48 821.97Z" />
							</g>
							<path id="&lt;Path&gt;" class="shp9" d="M1072.62 637.3C1075.2 625.94 1079.05 614.8 1082.4 603.64C1089.22 580.97 1096.09 558.32 1102.97 535.67C1106.41 524.35 1109.86 513.02 1113.34 501.71C1115.1 496 1116.86 490.28 1118.65 484.58C1120.4 479 1122.39 473.47 1123.97 467.84C1124.61 465.55 1124.96 466.81 1124.14 469.71C1122.48 475.58 1120.84 481.45 1119.13 487.3C1115.75 498.89 1112.33 510.46 1108.91 522.04C1102.09 545.07 1095.18 568.08 1088.28 591.09C1084.82 602.63 1081.34 614.16 1077.87 625.7C1076.22 631.21 1074.6 636.75 1073.62 642.44C1072.61 648.36 1072.55 654.36 1072.93 660.34C1073.68 672.37 1075.08 684.39 1076.19 696.39C1077.3 708.41 1078.41 720.44 1079.53 732.47C1081.74 756.4 1083.96 780.34 1086.11 804.28C1086.39 807.31 1086.65 810.35 1086.88 813.39C1086.96 814.4 1085.43 814.33 1085.32 813.35C1082.73 789.68 1080.74 765.94 1078.52 742.23C1076.31 718.64 1074.1 695.05 1071.89 671.47C1071.34 665.55 1070.71 659.61 1070.71 653.66C1070.7 648.13 1071.4 642.69 1072.62 637.3Z" />
						</g>
						<path id="&lt;Path&gt;" class="shp9" d="M1079.15 449.97C1083.77 485.76 1092.59 552.86 1099.02 601.55C1109.04 562.22 1122.11 511.69 1138.22 449.97L1079.15 449.97Z" />
					</g>
				</g>
				<g id="&lt;Group&gt;">
					<g id="&lt;Group&gt;">
						<path id="&lt;Path&gt;" class="shp16" d="M1062.78 875.72C1066.61 876.97 1175.79 875.96 1179.92 873.28C1181.5 872.28 1182.28 856.37 1182.67 837.11C1182.67 836.9 1182.68 836.7 1182.68 836.5C1182.77 832.53 1182.83 828.45 1182.86 824.3C1182.86 823.73 1182.86 823.16 1182.88 822.59C1183.05 804.06 1182.47 785.18 1181.13 765.95L1109.77 766.42L1111.76 822.53L1111.83 824.76L1112.23 836.37L1112.27 837.57C1084.53 850.29 1069.24 857.79 1066.42 860.08C1062.22 863.49 1058.95 874.49 1062.78 875.72Z" />
						<path id="&lt;Path&gt;" class="shp0" d="M1062.78 875.72C1066.61 876.97 1175.79 875.96 1179.92 873.28C1181.5 872.28 1182.28 856.37 1182.67 837.11C1182.67 836.9 1182.68 836.7 1182.68 836.5C1182.77 832.53 1182.83 828.45 1182.86 824.3C1182.86 823.73 1182.86 823.16 1182.88 822.59L1111.76 822.53L1111.83 824.76L1112.23 836.37L1112.27 837.57C1084.53 850.29 1069.24 857.79 1066.42 860.08C1062.22 863.49 1058.95 874.49 1062.78 875.72Z" />
						<g id="&lt;Group&gt;">
							<path id="&lt;Path&gt;" class="shp6" d="M1062.78 875.72C1066.61 876.97 1175.79 875.96 1179.92 873.28C1181.5 872.28 1182.28 856.37 1182.67 837.11C1182.67 836.9 1182.68 836.7 1182.68 836.5L1112.23 836.37L1112.27 837.57C1084.53 850.29 1069.24 857.79 1066.42 860.08C1062.22 863.49 1058.95 874.49 1062.78 875.72Z" />
							<g id="&lt;Group&gt;">
								<g id="&lt;Group&gt;">
									<path id="&lt;Path&gt;" class="shp7" d="M1063.98 871.48C1082.38 870.86 1156.65 870.08 1174.89 870.86C1175.04 870.87 1175.04 870.97 1174.89 870.98C1156.66 871.99 1082.39 872.17 1063.98 871.78C1063.59 871.77 1063.59 871.49 1063.98 871.48Z" />
									<path id="&lt;Path&gt;" class="shp7" d="M1104.39 836.65C1111.62 835.23 1120.49 836.26 1126.07 841.36C1126.29 841.56 1126.01 841.87 1125.77 841.8C1118.6 839.61 1111.92 838.23 1104.43 837.56C1103.9 837.51 1103.88 836.75 1104.39 836.65Z" />
									<path id="&lt;Path&gt;" class="shp7" d="M1099.19 839.85C1106.42 838.43 1115.29 839.46 1120.88 844.56C1121.09 844.76 1120.81 845.07 1120.57 844.99C1113.41 842.81 1106.72 841.43 1099.23 840.76C1098.7 840.71 1098.68 839.95 1099.19 839.85Z" />
									<path id="&lt;Path&gt;" class="shp7" d="M1094 843.04C1101.23 841.63 1110.1 842.65 1115.68 847.76C1115.89 847.96 1115.61 848.27 1115.37 848.19C1108.21 846.01 1101.52 844.62 1094.03 843.96C1093.51 843.91 1093.48 843.15 1094 843.04Z" />
								</g>
							</g>
						</g>
					</g>
					<g id="&lt;Group&gt;">
						<path id="&lt;Path&gt;" class="shp7" d="M1072.89 449.97C1073.92 471.22 1076.86 490.27 1081.73 507.1C1082.31 509.19 1082.95 511.24 1083.63 513.21C1088.7 515.05 1095.1 518.34 1102.84 523.08C1103.35 540.19 1103.86 558.27 1104.37 577.35C1105.23 609.33 1106.11 645 1105.93 652.57C1105.48 671.44 1106.66 732.76 1109.47 836.54L1188.08 836.85C1178.61 720.97 1173.9 659.57 1173.97 652.65C1174.12 635.99 1170.16 562.32 1167.1 508.59C1165.86 486.52 1164.72 466.98 1163.7 449.97L1072.89 449.97Z" />
						<g id="&lt;Group&gt;">
							<path id="&lt;Path&gt;" class="shp9" d="M1113.01 822.55C1125.02 822.35 1121.57 822.24 1133.58 822.18C1139.46 822.14 1178.08 821.97 1183.57 822.9C1183.69 822.93 1183.69 823.13 1183.57 823.15C1178.07 824.04 1139.45 823.53 1133.57 823.45C1121.56 823.29 1125.01 823.2 1113.01 822.9C1112.78 822.9 1112.78 822.56 1113.01 822.55Z" />
							<path id="&lt;Path&gt;" class="shp9" d="M1157.94 461.36C1159.38 505.22 1160.92 549.08 1162.88 592.92C1164.85 636.91 1167.5 680.89 1171.18 724.77C1173.24 749.28 1175.17 783.77 1177.82 808.23C1177.84 808.4 1177.59 808.46 1177.57 808.29C1171.84 764.78 1168.65 710.98 1165.84 667.2C1163.02 623.43 1161.11 579.57 1159.62 535.74C1158.78 510.94 1158.13 486.13 1157.39 461.33C1157.38 460.98 1157.92 461.01 1157.94 461.36Z" />
							<g id="&lt;Group&gt;">
								<path id="&lt;Path&gt;" class="shp9" d="M1081.21 511.31C1089.04 514.42 1096.53 518.67 1103.68 523.09C1103.96 523.26 1103.75 523.7 1103.45 523.55C1095.86 519.86 1088.12 516.32 1080.75 512.22C1080.17 511.9 1080.61 511.08 1081.21 511.31Z" />
							</g>
							<path id="&lt;Path&gt;" class="shp9" d="M1076.66 473.58C1077.34 477.24 1078.23 480.86 1079.02 484.49C1079.76 487.9 1080.3 491.38 1081.21 494.75C1082.08 498.02 1083.47 501.02 1085.98 503.35C1087.32 504.59 1088.8 505.69 1090.22 506.83C1090.99 507.45 1091.82 508.04 1092.62 508.66C1092.52 508.18 1092.43 507.68 1092.35 507.19C1092.1 505.8 1091.87 504.41 1091.63 503.03C1091.12 499.95 1090.63 496.86 1090.15 493.77C1089.23 487.71 1088.37 481.58 1087.11 475.57C1087.05 475.33 1087.42 475.23 1087.48 475.48C1089 481.43 1090.66 487.32 1091.98 493.32C1092.63 496.26 1094.93 510.8 1095.03 511.83C1095.14 512.89 1095.23 513.95 1095.26 515.02C1095.3 516.07 1095.51 517.25 1095.27 518.28C1095.2 518.55 1094.88 518.51 1094.77 518.33C1094.77 518.33 1094.76 518.33 1094.76 518.34C1094.23 517.41 1094.1 516.2 1093.83 515.18C1093.57 514.14 1093.33 513.09 1093.14 512.03C1093.08 511.65 1093.02 511.26 1092.97 510.87C1091.54 510 1090.21 508.85 1088.87 507.89C1087.43 506.84 1085.96 505.82 1084.59 504.67C1081.98 502.47 1080.35 499.78 1079.37 496.52C1078.36 493.14 1078.05 489.57 1077.66 486.07C1077.2 481.94 1076.86 477.79 1076.28 473.68C1076.25 473.43 1076.62 473.33 1076.66 473.58Z" />
						</g>
					</g>
				</g>
			</g>
			<g id="&lt;Group&gt;">
				<g id="&lt;Group&gt;">
					<path id="&lt;Path&gt;" class="shp16" d="M1102.7 356.61C1099.16 370.39 1085.07 401.87 1061.42 427.83C1052.28 437.84 979.91 448.45 972.27 446.26C966.92 444.72 951.25 398.44 956.35 394.55C965.92 387.26 1033.8 395.74 1036.49 393.98C1040.59 391.28 1067.45 369.43 1084.21 349.48C1096.43 334.94 1108.58 333.68 1102.7 356.61Z" />
					<g id="&lt;Group&gt;">
						<path id="&lt;Path&gt;" class="shp6" d="M1087.24 397.81L1043.47 384.96C1066.71 360.91 1082.75 346.31 1091.57 341.17C1106.48 332.48 1107.66 342 1103.62 357.89C1100.92 368.49 1095.46 381.79 1087.24 397.81Z" />
						<g id="&lt;Group&gt;">
							<path id="&lt;Path&gt;" class="shp7" d="M1051.91 379C1053.5 379.21 1067.2 383 1070.16 383.89C1073.12 384.78 1085.26 388.29 1088.23 389.46C1088.37 389.52 1088.33 389.71 1088.18 389.68C1085.05 389.09 1072.8 385.58 1069.77 384.74C1066.73 383.9 1053.26 379.85 1051.84 379.2C1051.72 379.14 1051.81 378.98 1051.91 379Z" />
						</g>
						<path id="&lt;Path&gt;" class="shp7" d="M1070.36 392.85L1087.23 397.81C1095.45 381.79 1100.91 368.49 1103.61 357.9C1106.57 346.29 1106.73 338.06 1100.79 337.88L1070.36 392.85Z" />
					</g>
				</g>
				<g id="&lt;Group&gt;">
					<g id="&lt;Group&gt;">
						<g id="&lt;Group&gt;">
							<path id="&lt;Path&gt;" class="shp6" d="M1171.01 481.66C1171.01 481.65 1057.53 481.12 1057.53 481.13C1057.52 483.35 1082.14 354.28 1094 338.81C1096.54 335.51 1113.88 331.33 1121.71 338.61C1156.01 370.54 1171 483.1 1171.01 481.66Z" />
						</g>
					</g>
					<path id="&lt;Path&gt;" class="shp12" d="M1082.88 374.16L1097.39 375.16L1096.51 394.29L1086.53 396.94L1080.83 392.41L1082.88 374.16Z" />
				</g>
				<g id="&lt;Group&gt;">
					<g id="&lt;Group&gt;">
						<g id="&lt;Group&gt;">
							<path id="&lt;Path&gt;" class="shp16" d="M1101.6 354.32C1107 355.62 1114.99 345.37 1118.88 337.67C1119.14 337.14 1118.16 331.7 1117.29 325.03C1116.77 320.98 1116.29 316.46 1116.15 312.3C1116.14 311.73 1107.52 314.14 1090.3 319.51C1092.2 325.26 1093.22 330.55 1093.35 335.38C1093.36 335.99 1093.32 336.55 1093.23 337.09C1093.22 337.17 1093.2 337.27 1093.2 337.38C1092.78 340.64 1095.82 352.92 1101.6 354.32Z" />
						</g>
						<path id="&lt;Path&gt;" class="shp7" d="M1093.22 337.09C1093.22 337.18 1093.2 337.28 1093.2 337.38C1094.02 337.46 1094.91 337.48 1095.88 337.43C1111.21 336.58 1114.61 317.24 1115.23 312.34C1112.16 312.89 1103.85 315.28 1090.3 319.51C1092.2 325.26 1093.22 330.56 1093.35 335.39C1093.35 335.99 1093.32 336.56 1093.22 337.09Z" />
					</g>
					<g id="&lt;Group&gt;">
						<g id="&lt;Group&gt;">
							<path id="&lt;Path&gt;" class="shp16" d="M1120.99 281.13C1123.19 290.55 1116.54 316.88 1109.58 322.38C1099.48 330.36 1083.85 330.14 1077.3 318.22C1070.94 306.66 1080.22 272.49 1087.92 267.58C1099.25 260.35 1117.75 267.22 1120.99 281.13Z" />
						</g>
						<g id="&lt;Group&gt;">
							<g id="&lt;Group&gt;">
								<path id="&lt;Path&gt;" class="shp7" d="M1094.57 295.35C1094.6 295.28 1094.68 295.47 1094.66 295.54C1094.17 297.3 1093.9 299.4 1095.36 300.39C1095.4 300.42 1095.38 300.51 1095.32 300.48C1093.43 299.72 1093.81 296.94 1094.57 295.35Z" />
								<path id="&lt;Path&gt;" class="shp7" d="M1096.61 293.89C1099.52 294.38 1098.33 300.16 1095.63 299.71C1092.98 299.26 1094.17 293.47 1096.61 293.89Z" />
							</g>
							<g id="&lt;Group&gt;">
								<path id="&lt;Path&gt;" class="shp7" d="M1084.91 293.5C1084.91 293.43 1084.75 293.55 1084.74 293.63C1084.43 295.43 1083.77 297.44 1082.02 297.7C1081.97 297.71 1081.96 297.8 1082.02 297.81C1084.05 297.94 1084.9 295.26 1084.91 293.5Z" />
								<path id="&lt;Path&gt;" class="shp7" d="M1083.7 291.3C1080.86 290.48 1079.44 296.22 1082.07 296.97C1084.66 297.71 1086.08 291.98 1083.7 291.3Z" />
							</g>
							<path id="&lt;Path&gt;" class="shp7" d="M1099.44 291.71C1098.69 291.35 1098.06 290.89 1097.36 290.46C1096.57 289.97 1095.89 289.66 1095.49 288.78C1095.27 288.31 1095.55 287.59 1095.99 287.34C1097.02 286.75 1098.13 287.11 1099.11 287.66C1100.17 288.26 1100.84 288.99 1101.28 290.12C1101.71 291.21 1100.42 292.19 1099.44 291.71Z" />
							<path id="&lt;Path&gt;" class="shp7" d="M1082.06 287.92C1082.89 287.96 1083.66 287.85 1084.49 287.8C1085.41 287.74 1086.16 287.8 1086.93 287.21C1087.35 286.89 1087.44 286.13 1087.17 285.7C1086.54 284.7 1085.39 284.48 1084.27 284.51C1083.05 284.53 1082.12 284.86 1081.19 285.65C1080.3 286.41 1080.97 287.88 1082.06 287.92Z" />
							<path id="&lt;Path&gt;" class="shp7" d="M1093.32 312.32C1092.8 312.65 1092.25 313.14 1091.59 313.06C1090.96 312.98 1090.29 312.55 1089.76 312.21C1089.71 312.18 1089.64 312.22 1089.66 312.29C1089.99 313.07 1090.88 313.7 1091.74 313.73C1092.58 313.75 1093.12 313.14 1093.47 312.43C1093.52 312.34 1093.39 312.27 1093.32 312.32Z" />
							<g id="&lt;Group&gt;">
								<g id="&lt;Group&gt;">
									<path id="&lt;Path&gt;" class="shp7" d="M1092.54 306.56C1091.22 307.91 1089.57 308.46 1087.91 308.44C1087.17 308.43 1086.41 308.3 1085.69 308.09C1085.55 308.05 1085.41 308.01 1085.28 307.95C1085.16 307.91 1085.04 307.87 1084.9 307.81C1084.7 307.74 1084.62 307.54 1084.63 307.33L1084.63 307.32C1084.65 307.26 1084.66 307.2 1084.69 307.14C1084.69 307.14 1084.69 307.14 1084.69 307.13L1084.72 306.97C1084.89 306.05 1085.16 304.89 1085.54 303.51C1084.98 303.66 1082.17 304.29 1082.36 303.58C1083.95 297.68 1085.72 291.13 1088.54 285.6C1088.63 285.42 1088.92 285.52 1088.86 285.72C1087.56 291.44 1085.26 296.89 1083.86 302.62C1084.74 302.48 1086.2 302.18 1086.92 302.34C1087.1 302.44 1085.75 306.32 1085.69 306.96C1085.69 306.97 1085.68 307 1085.69 307.03C1087.94 307.8 1089.84 307.46 1092.41 306.37C1092.56 306.29 1092.68 306.44 1092.54 306.56Z" />
								</g>
							</g>
							<g id="&lt;Group&gt;">
								<path id="&lt;Path&gt;" class="shp7" d="M1086.65 307.55C1087.24 308.82 1088.05 309.77 1089.09 310.4C1089.66 310.75 1090.3 310.97 1091.04 310.93C1092.55 310.85 1092.85 309.54 1092.82 308.37C1092.81 307.72 1092.71 307.1 1092.54 306.51C1090.88 307.53 1088.91 307.88 1086.65 307.55Z" />
								<path id="&lt;Path&gt;" class="shp17" d="M1089.09 310.4C1089.66 310.75 1090.3 310.97 1091.04 310.93C1092.55 310.85 1092.85 309.54 1092.82 308.37C1091.26 308.21 1089.52 308.93 1089.09 310.4Z" />
							</g>
						</g>
						<path id="&lt;Path&gt;" class="shp7" d="M1082.28 275.58C1083.73 273.5 1085.33 271.45 1086.8 271.28C1088.26 271.11 1088.47 274.63 1091.54 275.47C1095.69 276.62 1098.52 273.18 1104.48 273.97C1113.04 275.12 1115.32 282.93 1113.06 294.95C1111.72 302.11 1113.14 306.47 1117.31 308.03C1123.15 292.83 1124.38 282.17 1121.01 276.06C1115.96 266.88 1101.41 260.3 1089.64 265.65C1086.78 266.95 1084.32 270.26 1082.28 275.58Z" />
						<g id="&lt;Group&gt;">
							<path id="&lt;Path&gt;" class="shp16" d="M1112.78 302.71C1117.29 297.32 1120.79 295.45 1123.26 297.11C1126.98 299.59 1121.37 311.68 1116.64 312.98C1113.48 313.86 1111.47 312.84 1110.61 309.93L1112.78 302.71Z" />
							<path id="&lt;Path&gt;" class="shp7" d="M1121.57 300.53C1121.64 300.53 1121.65 300.64 1121.58 300.66C1118.26 301.68 1116.3 304.51 1114.85 307.5C1115.91 306.39 1117.27 305.86 1118.76 307.13C1118.84 307.2 1118.75 307.32 1118.66 307.3C1117.37 306.9 1116.4 307.05 1115.42 308.02C1114.72 308.71 1114.21 309.62 1113.68 310.44C1113.51 310.72 1113 310.52 1113.14 310.2C1113.15 310.17 1113.16 310.15 1113.17 310.13C1113.45 306.02 1117.13 300.56 1121.57 300.53Z" />
						</g>
					</g>
					<g id="&lt;Group&gt;">
						<path id="&lt;Path&gt;" class="shp6" d="M1084.05 270.39C1086.66 270.28 1100.46 273.39 1106.17 277.28C1111.89 281.18 1121.22 292.3 1121.7 292.89C1122.18 293.47 1129.47 271.14 1111.74 263.36C1098.85 257.71 1089.62 260.05 1084.05 270.39Z" />
						<g id="&lt;Group&gt;">
							<path id="&lt;Path&gt;" class="shp6" d="M1120.81 291.74C1114.73 279.37 1109.66 271.51 1105.59 268.16C1099.5 263.14 1084.64 258.08 1074.4 260.4C1069.07 261.61 1071.78 266.53 1082.53 275.17C1083.2 273.49 1084.39 272.49 1086.09 272.17C1091.04 271.25 1099.49 274.35 1104.14 276.98C1108.04 279.2 1113.6 284.12 1120.81 291.74Z" />
							<path id="&lt;Path&gt;" class="shp18" d="M1120.81 291.74C1114.73 279.37 1109.66 271.51 1105.59 268.16C1099.5 263.14 1084.64 258.08 1074.4 260.4C1069.07 261.61 1071.78 266.53 1082.53 275.17C1083.2 273.49 1084.39 272.49 1086.09 272.17C1091.04 271.25 1099.49 274.35 1104.14 276.98C1108.04 279.2 1113.6 284.12 1120.81 291.74Z" />
						</g>
					</g>
				</g>
				<g id="&lt;Group&gt;">
					<path id="&lt;Path&gt;" class="shp6" d="M1085.83 412.32L1085.83 511.43L1175.34 511.43L1175.34 412.32L1085.83 412.32Z" />
					<path id="&lt;Path&gt;" class="shp12" d="M1085.83 412.32L1085.83 511.43L1175.34 511.43L1175.34 412.32L1085.83 412.32Z" />
					<path id="&lt;Path&gt;" class="shp6" d="M1039.62 511.44L1085.83 511.44L1085.83 412.32L1039.62 412.32L1039.62 511.44Z" />
					<path id="&lt;Path&gt;" class="shp15" d="M1039.62 511.44L1085.83 511.44L1085.83 412.32L1039.62 412.32L1039.62 511.44Z" />
					<path id="&lt;Path&gt;" class="shp10" d="M1122.99 433.74L1124.88 433.74L1126.31 433.74L1127.12 432.09L1128.26 433.74L1129.81 430.34L1131.27 433.74L1135.46 433.74L1137.37 433.74L1138.06 431.47L1138.71 433.74L1139.96 433.74L1139.96 412.32L1122.99 412.32L1122.99 433.74Z" />
					<g id="&lt;Group&gt;">
						<path id="&lt;Path&gt;" class="shp6" d="M1042.8 504.61C1046.22 497.56 1049.62 490.49 1052.98 483.4L1063 462.08L1072.9 440.67C1076.18 433.52 1079.43 426.34 1082.65 419.15C1079.23 426.19 1075.83 433.26 1072.47 440.36L1062.45 461.68L1052.55 483.09C1049.27 490.24 1046.02 497.41 1042.8 504.61Z" />
						<path id="&lt;Path&gt;" class="shp6" d="M1042.8 419.15C1046.02 426.34 1049.27 433.52 1052.55 440.67L1062.45 462.08L1072.47 483.4C1075.83 490.49 1079.23 497.56 1082.65 504.61C1079.43 497.41 1076.18 490.24 1072.9 483.09L1063 461.68L1052.98 440.36C1049.62 433.26 1046.22 426.19 1042.8 419.15Z" />
					</g>
				</g>
				<g id="&lt;Group&gt;">
					<g id="&lt;Group&gt;">
						<g id="&lt;Group&gt;">
							<path id="&lt;Path&gt;" class="shp16" d="M1142.34 347.09C1164.17 363.52 1206.53 400.32 1210.24 420.22C1215.1 446.34 1192.85 497.71 1183.36 507.64C1176.95 514.35 1148.75 489.72 1147.07 483.54C1145.38 477.37 1168.27 435.79 1168.46 431.01C1168.66 426.23 1139.34 382.49 1126.63 363.09C1110.6 338.62 1123.86 333.19 1142.34 347.09Z" />
							<g id="&lt;Group&gt;">
								<path id="&lt;Path&gt;" class="shp16" d="M1135.84 487.08C1137.83 484.77 1136.63 483.71 1131.31 484.74C1125.92 485.78 1105.79 494.41 1103.37 487.11C1100.94 479.79 1129.63 468.05 1138.63 467C1144.63 466.29 1152.61 466.42 1162.56 467.41C1157.43 470.82 1145.8 480.27 1135.84 487.08Z" />
								<path id="&lt;Path&gt;" class="shp16" d="M1185.99 504.31C1176.95 519.4 1150.74 528.9 1131.18 529.27C1128.63 529.31 1126.6 528.71 1125.11 527.46C1119.26 527.67 1115.42 526.43 1113.56 523.73C1108.06 522.26 1104.55 520.02 1103.03 517C1096.17 517.18 1092.34 515.2 1091.55 511.07C1090.19 504.13 1104.91 505.12 1113.34 500.71C1132.65 490.62 1157.28 470.87 1162.56 467.41L1185.99 504.31Z" />
								<g id="&lt;Group&gt;">
									<path id="&lt;Path&gt;" class="shp7" d="M1141.01 504.36C1135.27 507.22 1129.7 510.17 1123.6 512.24C1116.91 514.5 1110.09 515.56 1103.18 516.81C1102.96 516.85 1102.99 517.15 1103.21 517.15C1116.09 516.87 1130.52 511.86 1141.14 504.62C1141.4 504.44 1141.3 504.22 1141.01 504.36Z" />
									<path id="&lt;Path&gt;" class="shp7" d="M1148.8 515.13C1143.05 517.6 1132.94 521.88 1113.54 523.52C1113.48 523.53 1113.47 523.64 1113.54 523.64C1126.27 524.25 1137.76 521.35 1148.91 515.4C1149.26 515.22 1149.18 514.97 1148.8 515.13Z" />
									<path id="&lt;Path&gt;" class="shp7" d="M1152.87 521C1142.95 524.82 1136.21 525.98 1125.14 527.41C1125.08 527.41 1125.08 527.53 1125.15 527.52C1137.89 527.22 1142.48 525.67 1153.05 521.32C1153.41 521.17 1153.26 520.85 1152.87 521Z" />
								</g>
							</g>
						</g>
					</g>
					<g id="&lt;Group&gt;">
						<path id="&lt;Path&gt;" class="shp6" d="M1143.58 395.66L1185.02 376.59C1158.54 356.16 1140.55 344.05 1131.07 340.24C1115.06 333.81 1115.28 343.4 1121.58 358.53C1125.79 368.62 1133.12 381 1143.58 395.66Z" />
						<g id="&lt;Group&gt;">
							<g id="&lt;Group&gt;">
								<path id="&lt;Path&gt;" class="shp7" d="M1175.8 371.92C1174.27 372.35 1161.26 378.09 1158.46 379.4C1155.66 380.71 1144.16 385.95 1141.38 387.54C1141.26 387.61 1141.33 387.8 1141.47 387.75C1144.48 386.71 1156.09 381.46 1158.97 380.19C1161.85 378.91 1174.6 372.95 1175.91 372.1C1176.02 372.03 1175.91 371.89 1175.8 371.92Z" />
							</g>
							<path id="&lt;Path&gt;" class="shp7" d="M1146.85 394.12C1145.99 394.45 1144.9 394.88 1143.58 395.44C1140.52 389.85 1136.86 384.53 1133.56 379.08C1130.2 373.52 1126.68 368.09 1123.26 362.58C1123.21 362.49 1123.08 362.57 1123.13 362.66C1124.87 365.9 1126.62 369.13 1128.39 372.33C1128.1 371.97 1127.8 371.61 1127.51 371.25C1126.48 369.96 1125.41 368.71 1124.42 367.38C1124.34 367.27 1124.16 367.38 1124.23 367.5C1125.12 368.91 1126.03 370.31 1127.09 371.6C1127.84 372.51 1128.64 373.35 1129.45 374.19C1130.48 376.03 1131.5 377.87 1132.58 379.68C1135.88 385.24 1139.13 391.66 1142.86 396.94C1144.74 395.88 1146.12 395.03 1147.01 394.39C1147.17 394.27 1147.04 394.05 1146.85 394.12Z" />
						</g>
					</g>
				</g>
				<g id="&lt;Group&gt;">
					<path id="&lt;Path&gt;" class="shp9" d="M1031.34 456.12L963.18 461.74L940.3 368.51L1008.46 362.89L1031.34 456.12Z" />
					<g id="&lt;Group&gt;">
						<path id="&lt;Path&gt;" class="shp5" d="M992.17 369.87L959.85 372.49L957.34 362.21L989.66 359.58L992.17 369.87Z" />
						<path id="&lt;Path&gt;" class="shp5" d="M982.32 360.18L978.34 360.5L977.18 355.76L967.51 356.55L968.67 361.29L964.69 361.61L962.58 352.97L980.26 351.54L982.32 360.18Z" />
					</g>
				</g>
				<g id="&lt;Group&gt;">
					<g id="&lt;Group&gt;">
						<path id="&lt;Path&gt;" class="shp16" d="M930.32 410.9C930.72 414.79 932.64 417.04 936.08 417.66C932.37 420.69 931.04 424.12 932.09 427.96C932.63 429.93 934.71 431.36 938.34 432.23C935.48 434.79 934.62 437.75 935.76 441.1C936.67 443.77 938.87 445.35 942.37 445.82C940.77 449.56 940.87 452.64 942.67 455.06C948.14 462.44 983.61 454.42 986.13 440.11C986.91 435.67 984.45 434.26 978.75 435.88C986.39 431.57 989.72 426.96 988.74 422.06C987.76 417.16 983.63 415.98 976.35 418.53C983.71 414.29 986.63 409.68 985.1 404.7C983.51 399.52 979.29 398.82 972.45 402.63C976.9 397.87 978.1 393.72 976.06 390.18C971 381.4 955.79 397.28 947.58 397.19L944.36 385.05C934.55 397.98 929.87 406.6 930.32 410.9Z" />
						<g id="&lt;Group&gt;">
							<path id="&lt;Path&gt;" class="shp7" d="M943.19 446.06C943.07 446.07 943.07 446.25 943.19 446.25C955.5 446.45 969.08 442.9 979.23 435.8C979.56 435.57 979.33 434.93 978.91 435.11C967.06 440.43 956.11 444.2 943.19 446.06Z" />
							<path id="&lt;Path&gt;" class="shp7" d="M938.19 432.35C938.05 432.36 938.08 432.6 938.23 432.6C950.91 432.74 966.1 428.32 976.84 418.76C977.2 418.43 977.21 417.77 976.75 418.11C969.13 423.93 949.83 430.74 938.19 432.35Z" />
							<path id="&lt;Path&gt;" class="shp7" d="M973.01 401.68C962.37 410.45 949.98 414.92 936.6 417.69C936.43 417.73 936.49 417.97 936.65 417.98C943.56 418.41 951.91 415.76 958.23 413.14C964.28 410.64 969.24 407.17 973.32 402.05C973.48 401.86 973.24 401.5 973.01 401.68Z" />
						</g>
					</g>
				</g>
				<path id="&lt;Path&gt;" class="shp7" d="M1091.12 341.8C1091.5 343.82 1092.05 345.78 1092.79 347.67C1093.49 349.57 1094.31 351.43 1095.33 353.16C1096.36 354.86 1097.52 356.52 1099 357.69C1099.74 358.26 1100.55 358.7 1101.39 358.83C1102.06 358.94 1103.07 358.64 1103.93 358.29C1107.51 356.81 1110.46 353.89 1113.1 350.89C1113.76 350.13 1114.38 349.32 1115.01 348.53C1115.59 347.7 1116.21 346.89 1116.77 346.04C1117.34 345.2 1117.93 344.36 1118.48 343.5C1119 342.62 1119.55 341.75 1120.11 340.89C1118.57 344.7 1116.6 348.36 1114.1 351.69C1111.59 354.97 1108.58 358.11 1104.53 359.8C1103.5 360.17 1102.48 360.58 1101.11 360.4C1099.92 360.19 1098.89 359.59 1098.04 358.88C1096.35 357.43 1095.18 355.62 1094.25 353.74C1092.42 349.99 1091.25 345.92 1091.12 341.8Z" />
			</g>
		</g>
	</g>
</svg>