<svg version="1.2" baseProfile="tiny-ps" xmlns="http://www.w3.org/2000/svg" viewBox="0 0 1509 1375" width="1509" height="1375">
	<title>delivery3-ai</title>
	<defs>
		<linearGradient id="grd1" gradientUnits="userSpaceOnUse"  x1="287.915" y1="1375.699" x2="287.915" y2="1203.177">
			<stop offset="0" stop-color="#ffffff" stop-opacity="0" />
			<stop offset="1" stop-color="#000000"  />
		</linearGradient>
		<linearGradient id="grd2" gradientUnits="userSpaceOnUse"  x1="1174.574" y1="1358.609" x2="1174.574" y2="1266.261">
			<stop offset="0" stop-color="#ffffff" stop-opacity="0" />
			<stop offset="1" stop-color="#000000"  />
		</linearGradient>
		<linearGradient id="grd3" gradientUnits="userSpaceOnUse"  x1="760.278" y1="920.895" x2="760.278" y2="920.895">
			<stop offset="0" stop-color="#a3835b"  />
			<stop offset="1" stop-color="#a3835b"  />
		</linearGradient>
		<linearGradient id="grd4" gradientUnits="userSpaceOnUse"  x1="618.171" y1="922.631" x2="618.171" y2="922.631">
			<stop offset="0" stop-color="#a3835b"  />
			<stop offset="1" stop-color="#a3835b"  />
		</linearGradient>
		<linearGradient id="grd5" gradientUnits="userSpaceOnUse"  x1="483.633" y1="920.895" x2="483.633" y2="920.895">
			<stop offset="0" stop-color="#a3835b"  />
			<stop offset="1" stop-color="#a3835b"  />
		</linearGradient>
		<linearGradient id="grd6" gradientUnits="userSpaceOnUse"  x1="889.465" y1="1354.696" x2="889.465" y2="1262.348">
			<stop offset="0" stop-color="#ffffff" stop-opacity="0" />
			<stop offset="1" stop-color="#000000"  />
		</linearGradient>
		<linearGradient id="grd7" gradientUnits="userSpaceOnUse"  x1="996.005" y1="1143.732" x2="996.005" y2="1143.732">
			<stop offset="0" stop-color="#a3835b"  />
			<stop offset="1" stop-color="#a3835b"  />
		</linearGradient>
	</defs>
	<style>
		tspan { white-space:pre }
		.shp0 { mix-blend-mode: multiply;fill: url(#grd1) } 
		.shp1 { mix-blend-mode: multiply;fill: url(#grd2) } 
		.shp2 { fill: #2c61bf } 
		.shp3 { fill: #fe7b21 } 
		.shp4 { fill: #f8c295 } 
		.shp5 { fill: #f2b27b } 
		.shp6 { fill: #f8bb88 } 
		.shp7 { fill: #222021 } 
		.shp8 { fill: #e66f2d } 
		.shp9 { fill: #fbab1e } 
		.shp10 { fill: #ffbb71 } 
		.shp11 { fill: #fefced } 
		.shp12 { fill: #ffffff } 
		.shp13 { fill: #ffbf53 } 
		.shp14 { fill: #aa7005 } 
		.shp15 { fill: #293042 } 
		.shp16 { fill: #121212 } 
		.shp17 { fill: #5082cb } 
		.shp18 { fill: #ed454a } 
		.shp19 { fill: #2c4772 } 
		.shp20 { fill: #f7941d } 
		.shp21 { fill: #ed1c24 } 
		.shp22 { fill: #2657a6 } 
		.shp23 { fill: #ffbe56 } 
		.shp24 { fill: #fead1d } 
		.shp25 { fill: #e69c1a } 
		.shp26 { fill: #d49018 } 
		.shp27 { fill: none;stroke: #947652;stroke-width: 1.246 } 
		.shp28 { fill: #5080c8 } 
		.shp29 { fill: #043175 } 
		.shp30 { fill: #2a62b9 } 
		.shp31 { fill: #b89366 } 
		.shp32 { fill: #bf7709 } 
		.shp33 { fill: #e58e0b } 
		.shp34 { opacity: 0.231;mix-blend-mode: multiply;fill: url(#grd3) } 
		.shp35 { opacity: 0.231;mix-blend-mode: multiply;fill: url(#grd4) } 
		.shp36 { opacity: 0.231;mix-blend-mode: multiply;fill: url(#grd5) } 
		.shp37 { fill: #b74916 } 
		.shp38 { fill: #fe792c } 
		.shp39 { fill: #c6abad } 
		.shp40 { fill: #383838 } 
		.shp41 { fill: none;stroke: #231f20;stroke-width: 0.745 } 
		.shp42 { fill: #fffafb } 
		.shp43 { mix-blend-mode: multiply;fill: url(#grd6) } 
		.shp44 { opacity: 0.231;mix-blend-mode: multiply;fill: url(#grd7) } 
		.shp45 { fill: #1f60b0 } 
		.shp46 { fill: #eff3ff } 
	</style>
	<g id="Layer 1">
		<path id="&lt;Path&gt;" class="shp0" d="M483.35 1203.18L750.36 1203.18L769.09 1274.62L812.68 1243.52L866.58 1264.89L896.37 1373.37L289.92 1375.7L364.86 1243.52L394.07 1260.3L424.94 1243.52L455.49 1249.54L483.35 1203.18Z" />
		<path id="&lt;Path&gt;" class="shp1" d="M1319.18 1266.26L1193.29 1266.26L1176.09 1358.61L1336.38 1358.61L1319.18 1266.26Z" />
		<g id="&lt;Group&gt;">
			<g id="&lt;Group&gt;">
				<g id="&lt;Group&gt;">
					<path id="&lt;Path&gt;" class="shp2" d="M1282.33 1243.3L1275.92 1269.02L1324.84 1269.02L1312.54 1243.3L1282.33 1243.3Z" />
				</g>
				<g id="&lt;Group&gt;">
					<path id="&lt;Path&gt;" class="shp2" d="M1324.84 1269.02C1324.83 1273.5 1306.37 1234.7 1275.92 1269.02L1275.92 1280.5C1291.29 1287.61 1307.69 1286.87 1324.84 1280.5L1324.84 1269.02Z" />
				</g>
				<g id="&lt;Group&gt;">
					<path id="&lt;Path&gt;" class="shp2" d="M1324.84 1285.02C1306.64 1287.18 1290.33 1287.18 1275.92 1285.02L1275.92 1273.54C1290.65 1281.96 1306.96 1281.96 1324.84 1273.54L1324.84 1285.02Z" />
				</g>
			</g>
			<g id="&lt;Group&gt;">
				<g id="&lt;Group&gt;">
					<g id="&lt;Group&gt;">
						<path id="&lt;Path&gt;" class="shp2" d="M1232.51 1243.3L1238.93 1269.02L1190 1269.02L1202.3 1243.3L1232.51 1243.3Z" />
					</g>
				</g>
				<g id="&lt;Group&gt;">
					<g id="&lt;Group&gt;">
						<path id="&lt;Path&gt;" class="shp2" d="M1190 1269.02C1190.01 1273.5 1208.48 1234.7 1238.93 1269.02L1238.93 1280.5C1223.56 1287.61 1207.15 1286.87 1190 1280.5L1190 1269.02Z" />
					</g>
				</g>
				<g id="&lt;Group&gt;">
					<g id="&lt;Group&gt;">
						<path id="&lt;Path&gt;" class="shp2" d="M1190 1285.02C1208.2 1287.18 1224.51 1287.18 1238.93 1285.02L1238.93 1273.54C1224.19 1281.96 1207.88 1281.96 1190 1273.54L1190 1285.02Z" />
					</g>
				</g>
			</g>
			<g id="&lt;Group&gt;">
				<g id="&lt;Group&gt;">
					<path id="&lt;Path&gt;" class="shp3" d="M1258.16 812.77L1258.15 812.55L1338.85 809.41C1328.39 961.72 1323.93 1105.67 1316.55 1248.3L1278.74 1248.27C1278.17 1127.53 1259.11 893.93 1261.78 862.42C1250.09 1000.35 1239.08 1130.71 1234.42 1248.53L1199.07 1247.85C1192.73 1059.37 1189.5 915.67 1184.43 809.85L1258.16 812.77Z" />
				</g>
				<g id="&lt;Group&gt;">
					<path id="&lt;Path&gt;" class="shp4" d="M1366.12 665.59C1365.95 665.88 1367.34 668.64 1367.47 668.98C1368.85 672.76 1370.17 676.56 1371.21 680.45C1374.4 692.47 1378.78 706.08 1375.59 718.56C1372.86 729.24 1366.88 736.3 1358.45 742.63C1355.77 744.64 1350.83 745.73 1347.57 746.27C1347.33 746.31 1344.04 746.16 1344.02 746.1C1343.4 744.24 1343.75 742 1343.52 740.06C1342.87 734.67 1340.33 726.63 1342.44 721.44C1343.93 717.76 1350.87 708.41 1350.52 704.86C1350.27 702.42 1348.35 699.63 1347.59 697.3C1345.88 692.04 1344.58 686.68 1342.58 681.51C1341.86 679.63 1338.65 674.88 1338.91 673.04C1339.04 672.15 1344.55 670.72 1345.22 670.47C1350.6 668.49 1359.89 664 1365.91 666.01L1366.12 665.59Z" />
				</g>
				<g id="&lt;Group&gt;">
					<path id="&lt;Path&gt;" class="shp4" d="M1162.28 665.59C1162.45 665.88 1161.06 668.64 1160.93 668.98C1159.55 672.76 1158.23 676.56 1157.19 680.45C1154 692.47 1149.62 706.08 1152.81 718.56C1155.54 729.24 1161.52 736.3 1169.95 742.63C1172.63 744.64 1177.57 745.73 1180.83 746.27C1181.07 746.31 1184.36 746.16 1184.38 746.1C1185 744.24 1184.65 742 1184.88 740.06C1185.53 734.67 1188.07 726.63 1185.96 721.44C1184.47 717.76 1177.53 708.41 1177.88 704.86C1178.13 702.42 1180.05 699.63 1180.81 697.3C1182.52 692.04 1183.82 686.68 1185.82 681.51C1186.54 679.63 1189.75 674.88 1189.49 673.04C1189.36 672.15 1183.85 670.72 1183.18 670.47C1177.8 668.49 1168.51 664 1162.49 666.01L1162.28 665.59Z" />
				</g>
				<g id="&lt;Group&gt;">
					<path id="&lt;Path&gt;" class="shp2" d="M1340.99 582.72C1342.79 581.11 1379.49 629.79 1387.38 653.81C1388.17 658.09 1344.04 679.96 1337.52 675.13L1340.99 582.72Z" />
				</g>
				<g id="&lt;Group&gt;">
					<path id="&lt;Path&gt;" class="shp2" d="M1188.67 584.01C1186.88 582.39 1150.2 629.65 1142.31 653.67C1140.33 659 1179.43 677.51 1187.03 672.66L1188.67 584.01Z" />
				</g>
				<g id="&lt;Group&gt;">
					<path id="&lt;Path&gt;" class="shp2" d="M1342.17 583.15C1317.25 571.39 1285.75 563.72 1260.93 564.03C1236.28 564.34 1213.27 572.53 1188.88 583.5C1187.63 584.07 1186.83 585.3 1186.81 586.67C1186.58 602.97 1185.47 683.38 1183.47 827.87C1227.01 843.22 1314.2 835.59 1338.9 832.34C1342.16 831.91 1340.48 666.18 1342.17 583.15Z" />
				</g>
				<g id="&lt;Group&gt;">
					<path id="&lt;Path&gt;" class="shp5" d="M1279.63 550.39C1279.65 546.4 1277.41 548.76 1274.57 545.96C1271.73 543.16 1267.89 541.62 1263.9 541.7C1263.9 541.67 1263.9 541.67 1263.9 541.67C1257.35 541.8 1247.46 540.51 1248.44 547C1250.05 557.7 1248.61 564.66 1246.65 565.02C1243.42 565.61 1251.33 608.63 1269.5 598.96C1282.64 591.97 1287.48 567.82 1284.35 564.75C1283.33 563.75 1279 563.32 1278.97 556.58L1279.63 550.39Z" />
				</g>
				<g id="&lt;Group&gt;">
					<path id="&lt;Path&gt;" class="shp3" d="M1215.66 482.17C1215.46 482.79 1215.51 480.87 1215.43 480.22C1215.29 479.08 1215.15 477.94 1215.02 476.8C1214.54 472.62 1214.26 468.43 1214.77 464.24C1216.19 452.56 1222.94 442.41 1233.09 436.63C1257.13 422.93 1300.4 426.92 1308.63 457.93C1310.94 466.6 1311 478.49 1308.11 487.17C1307.84 487.98 1305.07 488.13 1304.51 488.18C1300.52 488.54 1296.56 488.78 1292.56 488.73C1285.48 488.64 1278.45 490.07 1271.41 490.68C1262.24 491.48 1252.98 491.36 1243.78 491.65C1241.85 491.71 1239.93 491.76 1238 491.69C1236.36 491.64 1234.72 491.51 1233.09 491.3C1229.99 490.9 1216.37 488.22 1216.37 482.6L1215.66 482.17Z" />
				</g>
				<g id="&lt;Group&gt;">
					<path id="&lt;Path&gt;" class="shp6" d="M1298.45 501.46C1300 491.61 1317.2 493.89 1315.14 506.24C1314.2 511.91 1303.73 523.93 1298.57 516.06C1296.13 512.34 1298.24 505.46 1299.57 501.64L1298.45 501.46Z" />
				</g>
				<g id="&lt;Group&gt;">
					<path id="&lt;Path&gt;" class="shp6" d="M1226.57 501.03C1225.03 491.18 1207.82 493.46 1209.88 505.81C1210.82 511.48 1221.29 523.5 1226.45 515.63C1228.89 511.91 1226.79 505.03 1225.45 501.21L1226.57 501.03Z" />
				</g>
				<g id="&lt;Group&gt;">
					<path id="&lt;Path&gt;" class="shp4" d="M1219.46 478.99C1221.05 509.52 1225.41 529.43 1232.54 538.71C1243.23 552.64 1260.83 562.39 1266.92 560.96C1273.01 559.53 1292.67 544.73 1297.76 535.35C1302.22 527.14 1307.36 488.29 1306.97 479.7C1275.53 454.29 1246.36 454.05 1219.46 478.99Z" />
				</g>
				<g id="&lt;Group&gt;">
					<path id="&lt;Path&gt;" class="shp7" d="M1220.33 495.25C1220.6 495.19 1220.79 493.65 1220.85 493.46C1221.46 491.13 1222.24 488.88 1223.14 486.64C1224.01 484.46 1224.94 482.23 1226.2 480.23C1226.41 479.89 1227.68 478.58 1227.68 478.2C1227.68 477.86 1224.95 478 1224.8 478.02C1223.19 478.22 1216.77 479.03 1216.06 480.8C1215.59 481.99 1216.4 484.25 1216.71 485.38C1217.65 488.77 1218.79 492.08 1220.36 495.22L1220.33 495.25Z" />
				</g>
				<g id="&lt;Group&gt;">
					<path id="&lt;Path&gt;" class="shp7" d="M1305.71 496.48C1305.43 496.4 1305.24 494.61 1305.18 494.39C1304.56 491.68 1303.77 489.05 1302.86 486.45C1301.97 483.91 1301.03 481.32 1299.75 478.99C1299.54 478.6 1298.25 477.07 1298.25 476.63C1298.25 476.23 1301.02 476.4 1301.17 476.42C1302.81 476.65 1309.32 477.59 1310.04 479.65C1310.52 481.04 1309.7 483.67 1309.38 484.99C1308.43 488.93 1307.27 492.79 1305.68 496.44L1305.71 496.48Z" />
				</g>
			</g>
			<g id="&lt;Group&gt;">
				<path id="&lt;Path&gt;" class="shp8" d="M1216.06 480.8C1219.4 484.19 1223.24 486.06 1227.57 486.42C1229.49 486.58 1231.61 485.6 1233.37 484.97C1236.69 483.8 1239.98 482.54 1243.34 481.51C1252.98 478.53 1263.08 477.14 1273.14 478.4C1278.04 479.01 1282.88 480.19 1287.5 481.92C1291.38 483.38 1295.22 486.76 1299.57 486.52C1303.74 486.29 1307.43 481.73 1309.93 478.67C1278.25 452.51 1246.96 453.22 1216.06 480.8Z" />
			</g>
			<g id="&lt;Group&gt;">
				<path id="&lt;Path&gt;" class="shp8" d="M1268.76 599.99C1275.41 599.63 1279.87 602.36 1282.12 608.19C1282.45 609.02 1297.45 566.45 1279.96 561.1C1281.6 573.31 1278.83 586.45 1268.76 599.99Z" />
			</g>
			<g id="&lt;Group&gt;">
				<path id="&lt;Path&gt;" class="shp8" d="M1259.88 599.99C1253.23 599.63 1248.77 602.36 1246.51 608.19C1246.19 609.02 1231.19 566.45 1248.68 561.1C1247.04 573.31 1249.81 586.45 1259.88 599.99Z" />
			</g>
			<g id="&lt;Group&gt;">
				<path id="&lt;Path&gt;" class="shp9" d="M1345.88 650.26L1179.61 650.26L1179.61 771.95L1345.88 771.95L1345.88 650.26Z" />
			</g>
			<g id="&lt;Group&gt;">
				<path id="&lt;Path&gt;" class="shp4" d="M1354.27 730.87C1354.35 730.73 1354.47 732.8 1354.49 733.07C1354.67 735.16 1354.85 737.26 1355.05 739.35C1355.54 744.71 1355.92 750.1 1355.92 755.5C1355.92 770.98 1342.37 784.57 1329.06 775.74C1325.07 773.1 1340.19 763.53 1342.17 762.52C1342.34 762.44 1342.84 762.31 1342.96 762.17C1343.71 761.34 1343.01 755.55 1343.12 754.14C1343.22 752.91 1344.08 747 1343.28 746.11C1341.7 744.37 1338.52 744.91 1337.87 741.62C1336.82 736.3 1349.89 729.36 1353.39 729.36L1354.27 730.87Z" />
			</g>
			<g id="&lt;Group&gt;">
				<path id="&lt;Path&gt;" class="shp4" d="M1172.28 730.87C1172.2 730.73 1172.08 732.8 1172.05 733.07C1171.87 735.16 1171.69 737.26 1171.5 739.35C1171.01 744.71 1170.63 750.1 1170.63 755.5C1170.63 770.98 1184.18 784.57 1197.49 775.74C1201.48 773.1 1186.36 763.53 1184.38 762.52C1184.21 762.44 1183.71 762.31 1183.59 762.17C1182.84 761.34 1183.54 755.55 1183.43 754.14C1183.33 752.91 1182.47 747 1183.27 746.11C1184.85 744.37 1188.03 744.91 1188.68 741.62C1189.73 736.3 1176.66 729.36 1173.16 729.36L1172.28 730.87Z" />
			</g>
			<g id="&lt;Group&gt;">
				<path id="&lt;Path&gt;" class="shp10" d="M1345.88 650.26L1328.39 638.5L1194.34 638.5L1179.61 650.26L1345.88 650.26Z" />
			</g>
			<g id="&lt;Group&gt;">
				<path id="&lt;Path&gt;" class="shp11" d="M1272.58 699.03L1253.87 699.03L1253.87 650.95L1272.58 650.95L1272.58 699.03Z" />
			</g>
		</g>
		<g id="&lt;Group&gt;">
			<g id="&lt;Group&gt;">
				<g id="&lt;Group&gt;">
					<path id="&lt;Path&gt;" class="shp2" d="M313.04 1140.82L313.04 221C313.04 190.87 337.44 166.45 367.54 166.45L857.78 166.45C887.88 166.45 912.28 190.87 912.28 221L912.28 1140.82C912.28 1170.94 887.88 1195.36 857.78 1195.36L367.54 1195.36C337.44 1195.36 313.04 1170.94 313.04 1140.82Z" />
				</g>
				<g id="&lt;Group&gt;">
					<path id="&lt;Path&gt;" class="shp12" d="M856.95 1172.95L368.37 1172.95C351.08 1172.95 337.06 1158.92 337.06 1141.61L337.06 220.2C337.06 202.89 351.08 188.86 368.37 188.86L856.95 188.86C874.24 188.86 888.26 202.89 888.26 220.2L888.26 1141.61C888.26 1158.92 874.24 1172.95 856.95 1172.95Z" />
				</g>
			</g>
			<g id="&lt;Group&gt;">
				<path id="&lt;Path&gt;" class="shp13" d="M715 218.58L510.32 218.58C494.2 218.58 481.14 205.51 481.14 189.37L481.14 188.03L744.18 188.03L744.18 189.37C744.18 205.51 731.12 218.58 715 218.58Z" />
			</g>
			<g id="&lt;Group&gt;">
				<path id="&lt;Path&gt;" class="shp14" d="M665.11 203.68L560.21 203.68C559.23 203.68 558.44 202.89 558.44 201.91C558.44 200.93 559.23 200.14 560.21 200.14L665.11 200.14C666.09 200.14 666.88 200.93 666.88 201.91C666.88 202.89 666.09 203.68 665.11 203.68Z" />
			</g>
			<g id="&lt;Group&gt;">
				<path id="&lt;Path&gt;" class="shp14" d="M707.57 203.68C707.57 206.5 705.29 208.78 702.47 208.78C699.66 208.78 697.38 206.5 697.38 203.68C697.38 200.87 699.66 198.58 702.47 198.58C705.29 198.58 707.57 200.87 707.57 203.68Z" />
			</g>
			<g id="&lt;Group&gt;">
				<path id="&lt;Path&gt;" class="shp15" d="M794.54 1294.06L769.09 1294.06C759.99 1294.06 752.61 1286.67 752.61 1277.56L752.61 1203.18L811.02 1203.18L811.02 1277.56C811.02 1286.67 803.64 1294.06 794.54 1294.06Z" />
			</g>
			<g id="&lt;Group&gt;">
				<g id="&lt;Group&gt;">
					<path id="&lt;Path&gt;" class="shp16" d="M771.78 1231.27C772.7 1232.89 773.43 1234.74 772.95 1236.62C772.38 1238.84 770.42 1240.31 768.97 1241.95C765.91 1245.42 764.59 1250.02 765.25 1254.6C765.92 1259.27 768.9 1262.39 771.75 1265.9C772.95 1267.38 774.23 1269.13 774.3 1271.11C774.38 1273.17 773.05 1274.79 771.7 1276.19C770.21 1277.72 768.62 1279.12 767.39 1280.87C766.07 1282.74 765.38 1284.96 765.15 1287.22C764.93 1289.4 765.19 1291.58 765.82 1293.65L769.34 1293.65C768.81 1292.18 768.48 1290.61 768.46 1288.89C768.42 1286.76 768.92 1284.68 770.09 1282.89C771.16 1281.25 772.73 1279.97 774.08 1278.58C776.99 1275.58 778.66 1271.88 776.92 1267.79C775.29 1263.97 771.73 1261.47 769.78 1257.85C767.78 1254.12 768.04 1249.34 770.28 1245.77C771.4 1243.98 773.11 1242.65 774.4 1240.99C775.7 1239.32 776.54 1237.32 776.47 1235.16C776.35 1231.03 773.49 1227.64 771.17 1224.45C769.86 1222.64 768.46 1220.75 767.8 1218.58C767.22 1216.67 767.15 1214.62 767.56 1212.66C768.39 1208.75 770.94 1205.03 774.72 1203.5C775.57 1203.15 776.15 1202.38 775.9 1201.42C775.69 1200.62 774.67 1199.9 773.83 1200.24C766.32 1203.29 761.87 1212.49 764.8 1220.24C766.37 1224.37 769.63 1227.48 771.78 1231.27Z" />
				</g>
			</g>
			<g id="&lt;Group&gt;">
				<g id="&lt;Group&gt;">
					<path id="&lt;Path&gt;" class="shp16" d="M793.69 1231.27C794.62 1232.89 795.34 1234.74 794.86 1236.62C794.29 1238.84 792.34 1240.31 790.89 1241.95C787.82 1245.42 786.5 1250.02 787.16 1254.6C787.83 1259.27 790.81 1262.39 793.67 1265.9C794.87 1267.38 796.14 1269.13 796.22 1271.11C796.29 1273.17 794.96 1274.79 793.61 1276.19C792.13 1277.72 790.53 1279.12 789.3 1280.87C787.98 1282.74 787.29 1284.96 787.06 1287.22C786.84 1289.4 787.11 1291.58 787.73 1293.65L791.25 1293.65C790.72 1292.18 790.4 1290.61 790.37 1288.89C790.33 1286.76 790.83 1284.68 792 1282.89C793.07 1281.25 794.64 1279.97 795.99 1278.58C798.9 1275.58 800.57 1271.88 798.83 1267.79C797.2 1263.97 793.64 1261.47 791.7 1257.85C789.69 1254.12 789.96 1249.34 792.19 1245.77C793.31 1243.98 795.02 1242.65 796.31 1240.99C797.62 1239.32 798.45 1237.32 798.39 1235.16C798.26 1231.03 795.4 1227.64 793.09 1224.45C791.77 1222.64 790.37 1220.75 789.71 1218.58C789.13 1216.67 789.06 1214.62 789.48 1212.66C790.3 1208.75 792.85 1205.03 796.64 1203.5C797.49 1203.15 798.07 1202.38 797.81 1201.42C797.6 1200.62 796.58 1199.9 795.74 1200.24C788.23 1203.29 783.78 1212.49 786.72 1220.24C788.28 1224.37 791.54 1227.48 793.69 1231.27Z" />
				</g>
			</g>
			<g id="&lt;Group&gt;">
				<path id="&lt;Path&gt;" class="shp15" d="M854.61 1294.06L829.17 1294.06C820.06 1294.06 812.68 1286.67 812.68 1277.56L812.68 1203.18L871.1 1203.18L871.1 1277.56C871.1 1286.67 863.72 1294.06 854.61 1294.06Z" />
			</g>
			<g id="&lt;Group&gt;">
				<g id="&lt;Group&gt;">
					<path id="&lt;Path&gt;" class="shp16" d="M831.86 1231.27C832.78 1232.89 833.5 1234.74 833.02 1236.62C832.46 1238.84 830.5 1240.31 829.05 1241.95C825.99 1245.42 824.67 1250.02 825.32 1254.6C825.99 1259.27 828.98 1262.39 831.83 1265.9C833.03 1267.38 834.3 1269.13 834.38 1271.11C834.46 1273.17 833.13 1274.79 831.77 1276.19C830.29 1277.72 828.7 1279.12 827.46 1280.87C826.15 1282.74 825.46 1284.96 825.23 1287.22C825.01 1289.4 825.27 1291.58 825.89 1293.65L829.41 1293.65C828.88 1292.18 828.56 1290.61 828.53 1288.89C828.5 1286.76 828.99 1284.68 830.16 1282.89C831.24 1281.25 832.8 1279.97 834.16 1278.58C837.06 1275.58 838.73 1271.88 836.99 1267.79C835.36 1263.97 831.8 1261.47 829.86 1257.85C827.86 1254.12 828.12 1249.34 830.35 1245.77C831.48 1243.98 833.18 1242.65 834.48 1240.99C835.78 1239.32 836.62 1237.32 836.55 1235.16C836.42 1231.03 833.56 1227.64 831.25 1224.45C829.94 1222.64 828.53 1220.75 827.88 1218.58C827.3 1216.67 827.23 1214.62 827.64 1212.66C828.47 1208.75 831.01 1205.03 834.8 1203.5C835.65 1203.15 836.23 1202.38 835.98 1201.42C835.77 1200.62 834.75 1199.9 833.9 1200.24C826.4 1203.29 821.95 1212.49 824.88 1220.24C826.45 1224.37 829.7 1227.48 831.86 1231.27Z" />
				</g>
			</g>
			<g id="&lt;Group&gt;">
				<g id="&lt;Group&gt;">
					<path id="&lt;Path&gt;" class="shp16" d="M853.77 1231.27C854.69 1232.89 855.42 1234.74 854.94 1236.62C854.37 1238.84 852.41 1240.31 850.96 1241.95C847.9 1245.42 846.58 1250.02 847.24 1254.6C847.91 1259.27 850.89 1262.39 853.74 1265.9C854.94 1267.38 856.22 1269.13 856.29 1271.11C856.37 1273.17 855.04 1274.79 853.69 1276.19C852.2 1277.72 850.61 1279.12 849.38 1280.87C848.06 1282.74 847.37 1284.96 847.14 1287.22C846.92 1289.4 847.18 1291.58 847.81 1293.65L851.33 1293.65C850.8 1292.18 850.47 1290.61 850.45 1288.89C850.41 1286.76 850.91 1284.68 852.08 1282.89C853.15 1281.25 854.72 1279.97 856.07 1278.58C858.98 1275.58 860.65 1271.88 858.91 1267.79C857.28 1263.97 853.72 1261.47 851.77 1257.85C849.77 1254.12 850.03 1249.34 852.27 1245.77C853.39 1243.98 855.1 1242.65 856.39 1240.99C857.69 1239.32 858.53 1237.32 858.46 1235.16C858.34 1231.03 855.48 1227.64 853.16 1224.45C851.85 1222.64 850.45 1220.75 849.79 1218.58C849.21 1216.67 849.14 1214.62 849.55 1212.66C850.38 1208.75 852.93 1205.03 856.71 1203.5C857.56 1203.15 858.14 1202.38 857.89 1201.42C857.68 1200.62 856.66 1199.9 855.82 1200.24C848.31 1203.29 843.86 1212.49 846.8 1220.24C848.36 1224.37 851.62 1227.48 853.77 1231.27Z" />
				</g>
			</g>
			<g id="&lt;Group&gt;">
				<path id="&lt;Path&gt;" class="shp15" d="M406.79 1294.06L381.35 1294.06C372.24 1294.06 364.86 1286.67 364.86 1277.56L364.86 1203.18L423.28 1203.18L423.28 1277.56C423.28 1286.67 415.9 1294.06 406.79 1294.06Z" />
			</g>
			<g id="&lt;Group&gt;">
				<g id="&lt;Group&gt;">
					<path id="&lt;Path&gt;" class="shp16" d="M384.04 1231.27C384.96 1232.89 385.68 1234.74 385.2 1236.62C384.64 1238.84 382.68 1240.31 381.23 1241.95C378.17 1245.42 376.85 1250.02 377.5 1254.6C378.17 1259.27 381.16 1262.39 384.01 1265.9C385.21 1267.38 386.48 1269.13 386.56 1271.11C386.64 1273.17 385.31 1274.79 383.95 1276.19C382.47 1277.72 380.88 1279.12 379.64 1280.87C378.33 1282.74 377.64 1284.96 377.41 1287.22C377.19 1289.4 377.45 1291.58 378.07 1293.65L381.59 1293.65C381.06 1292.18 380.74 1290.61 380.71 1288.89C380.68 1286.76 381.17 1284.68 382.34 1282.89C383.42 1281.25 384.98 1279.97 386.34 1278.58C389.24 1275.58 390.91 1271.88 389.17 1267.79C387.54 1263.97 383.98 1261.47 382.04 1257.85C380.04 1254.12 380.3 1249.34 382.53 1245.77C383.66 1243.98 385.36 1242.65 386.66 1240.99C387.96 1239.32 388.8 1237.32 388.73 1235.16C388.6 1231.03 385.74 1227.64 383.43 1224.45C382.11 1222.64 380.71 1220.75 380.06 1218.58C379.47 1216.67 379.4 1214.62 379.82 1212.66C380.65 1208.75 383.19 1205.03 386.98 1203.5C387.83 1203.15 388.41 1202.38 388.16 1201.42C387.95 1200.62 386.93 1199.9 386.08 1200.24C378.58 1203.29 374.13 1212.49 377.06 1220.24C378.63 1224.37 381.88 1227.48 384.04 1231.27Z" />
				</g>
			</g>
			<g id="&lt;Group&gt;">
				<g id="&lt;Group&gt;">
					<path id="&lt;Path&gt;" class="shp16" d="M405.95 1231.27C406.87 1232.89 407.6 1234.74 407.12 1236.62C406.55 1238.84 404.59 1240.31 403.14 1241.95C400.08 1245.42 398.76 1250.02 399.42 1254.6C400.09 1259.27 403.07 1262.39 405.92 1265.9C407.12 1267.38 408.4 1269.13 408.47 1271.11C408.55 1273.17 407.22 1274.79 405.86 1276.19C404.38 1277.72 402.79 1279.12 401.56 1280.87C400.24 1282.74 399.55 1284.96 399.32 1287.22C399.1 1289.4 399.36 1291.58 399.99 1293.65L403.51 1293.65C402.98 1292.18 402.65 1290.61 402.62 1288.89C402.59 1286.76 403.09 1284.68 404.26 1282.89C405.33 1281.25 406.9 1279.97 408.25 1278.58C411.16 1275.58 412.83 1271.88 411.09 1267.79C409.45 1263.97 405.9 1261.47 403.95 1257.85C401.95 1254.12 402.21 1249.34 404.45 1245.77C405.57 1243.98 407.28 1242.65 408.57 1240.99C409.87 1239.32 410.71 1237.32 410.64 1235.16C410.51 1231.03 407.66 1227.64 405.34 1224.45C404.03 1222.64 402.63 1220.75 401.97 1218.58C401.39 1216.67 401.32 1214.62 401.73 1212.66C402.56 1208.75 405.11 1205.03 408.89 1203.5C409.74 1203.15 410.32 1202.38 410.07 1201.42C409.86 1200.62 408.84 1199.9 408 1200.24C400.49 1203.29 396.04 1212.49 398.97 1220.24C400.54 1224.37 403.8 1227.48 405.95 1231.27Z" />
				</g>
			</g>
			<g id="&lt;Group&gt;">
				<path id="&lt;Path&gt;" class="shp15" d="M466.87 1294.06L441.42 1294.06C432.32 1294.06 424.94 1286.67 424.94 1277.56L424.94 1203.18L483.35 1203.18L483.35 1277.56C483.35 1286.67 475.97 1294.06 466.87 1294.06Z" />
			</g>
			<g id="&lt;Group&gt;">
				<g id="&lt;Group&gt;">
					<path id="&lt;Path&gt;" class="shp16" d="M444.11 1231.27C445.04 1232.89 445.76 1234.74 445.28 1236.62C444.71 1238.84 442.76 1240.31 441.31 1241.95C438.24 1245.42 436.92 1250.02 437.58 1254.6C438.25 1259.27 441.23 1262.39 444.09 1265.9C445.29 1267.38 446.56 1269.13 446.64 1271.11C446.71 1273.17 445.38 1274.79 444.03 1276.19C442.55 1277.72 440.95 1279.12 439.72 1280.87C438.4 1282.74 437.71 1284.96 437.48 1287.22C437.26 1289.4 437.53 1291.58 438.15 1293.65L441.67 1293.65C441.14 1292.18 440.82 1290.61 440.79 1288.89C440.75 1286.76 441.25 1284.68 442.42 1282.89C443.49 1281.25 445.06 1279.97 446.41 1278.58C449.32 1275.58 450.99 1271.88 449.25 1267.79C447.62 1263.97 444.06 1261.47 442.12 1257.85C440.11 1254.12 440.38 1249.34 442.61 1245.77C443.73 1243.98 445.44 1242.65 446.73 1240.99C448.04 1239.32 448.87 1237.32 448.81 1235.16C448.68 1231.03 445.82 1227.64 443.51 1224.45C442.19 1222.64 440.79 1220.75 440.13 1218.58C439.55 1216.67 439.48 1214.62 439.9 1212.66C440.72 1208.75 443.27 1205.03 447.06 1203.5C447.91 1203.15 448.49 1202.38 448.24 1201.42C448.02 1200.62 447 1199.9 446.16 1200.24C438.65 1203.29 434.2 1212.49 437.14 1220.24C438.7 1224.37 441.96 1227.48 444.11 1231.27Z" />
				</g>
			</g>
			<g id="&lt;Group&gt;">
				<g id="&lt;Group&gt;">
					<path id="&lt;Path&gt;" class="shp16" d="M466.03 1231.27C466.95 1232.89 467.67 1234.74 467.19 1236.62C466.63 1238.84 464.67 1240.31 463.22 1241.95C460.16 1245.42 458.84 1250.02 459.49 1254.6C460.16 1259.27 463.15 1262.39 466 1265.9C467.2 1267.38 468.47 1269.13 468.55 1271.11C468.63 1273.17 467.3 1274.79 465.94 1276.19C464.46 1277.72 462.87 1279.12 461.63 1280.87C460.32 1282.74 459.63 1284.96 459.4 1287.22C459.18 1289.4 459.44 1291.58 460.06 1293.65L463.58 1293.65C463.05 1292.18 462.73 1290.61 462.7 1288.89C462.67 1286.76 463.16 1284.68 464.33 1282.89C465.41 1281.25 466.97 1279.97 468.33 1278.58C471.23 1275.58 472.9 1271.88 471.16 1267.79C469.53 1263.97 465.97 1261.47 464.03 1257.85C462.03 1254.12 462.29 1249.34 464.52 1245.77C465.65 1243.98 467.35 1242.65 468.65 1240.99C469.95 1239.32 470.79 1237.32 470.72 1235.16C470.59 1231.03 467.73 1227.64 465.42 1224.45C464.1 1222.64 462.7 1220.75 462.05 1218.58C461.46 1216.67 461.4 1214.62 461.81 1212.66C462.64 1208.75 465.18 1205.03 468.97 1203.5C469.82 1203.15 470.4 1202.38 470.15 1201.42C469.94 1200.62 468.92 1199.9 468.07 1200.24C460.57 1203.29 456.12 1212.49 459.05 1220.24C460.62 1224.37 463.87 1227.48 466.03 1231.27Z" />
				</g>
			</g>
			<g id="&lt;Group&gt;">
				<g id="&lt;Group&gt;">
					<path id="&lt;Compound Path&gt;" fill-rule="evenodd" class="shp17" d="M912.91 422.65L912.91 1076.41L313.04 1076.41L313.04 422.65L912.91 422.65ZM888.9 1044.14L888.9 454.91L337.06 454.91L337.06 1044.14L888.9 1044.14Z" />
				</g>
			</g>
			<g id="&lt;Group&gt;">
				<path id="&lt;Path&gt;" class="shp18" d="M872.94 445.73L846.05 445.73C842.22 445.73 839.11 442.62 839.11 438.78L839.11 438.78C839.11 434.94 842.22 431.83 846.05 431.83L872.94 431.83C876.78 431.83 879.88 434.94 879.88 438.78L879.88 438.78C879.88 442.62 876.78 445.73 872.94 445.73Z" />
			</g>
			<g id="&lt;Group&gt;">
				<path id="&lt;Path&gt;" class="shp18" d="M377.87 445.73L350.99 445.73C347.15 445.73 344.04 442.62 344.04 438.78L344.04 438.78C344.04 434.94 347.15 431.83 350.99 431.83L377.87 431.83C381.71 431.83 384.82 434.94 384.82 438.78L384.82 438.78C384.82 442.62 381.71 445.73 377.87 445.73Z" />
			</g>
			<g id="&lt;Group&gt;">
				<path id="&lt;Path&gt;" class="shp12" d="M856.23 1172.95L369.09 1172.95C351.4 1172.95 337.06 1158.6 337.06 1140.89L337.06 1076.41L888.26 1076.41L888.26 1140.89C888.26 1158.6 873.92 1172.95 856.23 1172.95Z" />
			</g>
			<g id="&lt;Group&gt;">
				<path id="&lt;Path&gt;" class="shp12" d="M888.26 1141.53L337.06 1141.53L337.06 1076.41L888.26 1076.41L888.26 1141.53Z" />
			</g>
			<g id="&lt;Group&gt;">
				<path id="&lt;Path&gt;" class="shp19" d="M888.26 1089.43L337.06 1089.43L337.06 1076.41L888.26 1076.41L888.26 1089.43Z" />
			</g>
			<g id="&lt;Group&gt;">
				<path id="&lt;Path&gt;" class="shp19" d="M870.39 1208.39L355.57 1208.39C345.35 1208.39 337.06 1200.09 337.06 1189.86C337.06 1179.63 345.35 1171.34 355.57 1171.34L870.39 1171.34C880.61 1171.34 888.9 1179.63 888.9 1189.86C888.9 1200.09 880.61 1208.39 870.39 1208.39Z" />
			</g>
			<g id="&lt;Group&gt;">
				<g id="&lt;Group&gt;">
					<g id="&lt;Group&gt;">
						<path id="&lt;Path&gt;" class="shp20" d="M462.89 1178.57L462.89 1203.18L439.83 1203.18L439.83 1178.57L462.89 1178.57Z" />
						<path id="&lt;Path&gt;" class="shp21" d="M439.83 1178.57L439.83 1203.18L392.12 1203.18L392.12 1178.57L439.83 1178.57Z" />
						<path id="&lt;Path&gt;" class="shp20" d="M392.12 1178.57L392.12 1203.18L367.47 1203.18L367.47 1178.57L392.12 1178.57Z" />
					</g>
				</g>
			</g>
			<g id="&lt;Group&gt;">
				<g id="&lt;Group&gt;">
					<g id="&lt;Group&gt;">
						<path id="&lt;Path&gt;" class="shp20" d="M866.59 1178.57L866.59 1203.18L843.52 1203.18L843.52 1178.57L866.59 1178.57Z" />
						<path id="&lt;Path&gt;" class="shp21" d="M843.52 1178.57L843.52 1203.18L795.81 1203.18L795.81 1178.57L843.52 1178.57Z" />
						<path id="&lt;Path&gt;" class="shp20" d="M795.81 1178.57L795.81 1203.18L771.15 1203.18L771.15 1178.57L795.81 1178.57Z" />
					</g>
				</g>
			</g>
			<g id="&lt;Group&gt;">
				<path id="&lt;Path&gt;" class="shp22" d="M336.57 454.91C336.57 492.1 336.57 529.45 336.57 566.63L886.64 566.63C886.64 529.45 886.64 492.1 886.64 454.91L336.57 454.91Z" />
				<path id="&lt;Path&gt;" class="shp22" d="M336.57 566.63L886.64 566.63L886.64 1040.37L336.57 1040.37L336.57 566.63Z" />
			</g>
			<g id="&lt;Group&gt;">
				<g id="&lt;Group&gt;">
					<g id="&lt;Group&gt;">
						<g id="&lt;Group&gt;">
							<path id="&lt;Path&gt;" class="shp23" d="M887.99 894.01L887.99 1040.37L811.02 929.24L811.02 929.22L811.02 828.14L887.99 894.01Z" />
							<path id="&lt;Path&gt;" class="shp23" d="M887.99 747.64L887.99 894.01L811.02 828.14L811.02 727.03L887.99 747.64Z" />
							<path id="&lt;Path&gt;" class="shp23" d="M887.99 601.27L887.99 747.64L811.02 727.03L811.02 625.95L887.99 601.27Z" />
							<path id="&lt;Path&gt;" class="shp23" d="M887.99 454.91L887.99 601.27L811.02 625.95L811.02 524.85L887.99 454.91Z" />
							<path id="&lt;Path&gt;" class="shp24" d="M811.02 828.14L811.02 929.22L770.41 870.61L770.41 870.59L770.41 793.39L811.02 828.14Z" />
							<path id="&lt;Path&gt;" class="shp24" d="M811.02 727.03L811.02 828.14L770.41 793.39L770.41 716.17L811.02 727.03Z" />
							<path id="&lt;Path&gt;" class="shp24" d="M811.02 625.95L811.02 727.03L770.41 716.17L770.41 638.95L811.02 625.95Z" />
							<path id="&lt;Path&gt;" class="shp24" d="M811.02 524.85L811.02 625.95L770.41 638.95L770.41 561.75L770.41 561.74L811.02 524.85Z" />
							<path id="&lt;Path&gt;" class="shp25" d="M770.41 793.39L770.41 870.59L745.32 834.38L745.32 771.91L770.41 793.39Z" />
							<path id="&lt;Path&gt;" class="shp25" d="M770.41 716.17L770.41 793.39L745.32 771.91L745.32 709.46L770.41 716.17Z" />
							<path id="&lt;Path&gt;" class="shp25" d="M770.41 638.95L770.41 716.17L745.32 709.46L745.32 647L770.41 638.95Z" />
							<path id="&lt;Path&gt;" class="shp25" d="M770.41 561.75L770.41 638.95L745.32 647L745.32 584.54L770.41 561.75Z" />
							<path id="&lt;Path&gt;" class="shp26" d="M745.32 771.91L745.32 834.38L728.29 809.79L728.29 757.34L745.32 771.91Z" />
							<path id="&lt;Path&gt;" class="shp26" d="M745.32 709.46L745.32 771.91L728.29 757.34L728.29 704.89L745.32 709.46Z" />
							<path id="&lt;Path&gt;" class="shp26" d="M745.32 647L745.32 709.46L728.29 704.89L728.29 652.46L745.32 647Z" />
							<path id="&lt;Path&gt;" class="shp26" d="M745.32 584.54L745.32 647L728.29 652.46L728.29 600.02L745.32 584.54Z" />
							<path id="&lt;Path&gt;" class="shp26" d="M497.61 757.34L497.61 809.79L480.58 834.38L480.58 771.91L497.61 757.34Z" />
							<path id="&lt;Path&gt;" class="shp26" d="M497.61 704.89L497.61 757.34L480.58 771.91L480.58 709.46L497.61 704.89Z" />
							<path id="&lt;Path&gt;" class="shp26" d="M497.61 652.46L497.61 704.89L480.58 709.46L480.58 647L497.61 652.46Z" />
							<path id="&lt;Path&gt;" class="shp26" d="M497.61 600.02L497.61 652.46L480.58 647L480.58 584.54L497.61 600.02Z" />
							<path id="&lt;Path&gt;" class="shp25" d="M480.58 771.91L480.58 834.38L455.49 870.59L455.49 793.39L480.58 771.91Z" />
							<path id="&lt;Path&gt;" class="shp25" d="M480.58 709.46L480.58 771.91L455.49 793.39L455.49 716.17L480.58 709.46Z" />
							<path id="&lt;Path&gt;" class="shp25" d="M480.58 647L480.58 709.46L455.49 716.17L455.49 638.95L480.58 647Z" />
							<path id="&lt;Path&gt;" class="shp25" d="M480.58 584.54L480.58 647L455.49 638.95L455.49 561.75L480.58 584.54Z" />
							<path id="&lt;Path&gt;" class="shp24" d="M455.49 793.39L455.49 870.59L455.49 870.61L414.89 929.22L414.89 828.14L455.49 793.39Z" />
							<path id="&lt;Path&gt;" class="shp24" d="M455.49 716.17L455.49 793.39L414.89 828.14L414.89 727.03L455.49 716.17Z" />
							<path id="&lt;Path&gt;" class="shp24" d="M455.49 638.95L455.49 716.17L414.89 727.03L414.89 625.95L455.49 638.95Z" />
							<path id="&lt;Path&gt;" class="shp24" d="M455.49 561.75L455.49 638.95L414.89 625.95L414.89 524.85L455.49 561.74L455.49 561.75Z" />
							<path id="&lt;Path&gt;" class="shp23" d="M414.89 828.14L414.89 929.22L414.89 929.24L337.91 1040.37L337.91 894.01L414.89 828.14Z" />
							<path id="&lt;Path&gt;" class="shp23" d="M414.89 727.03L414.89 828.14L337.91 894.01L337.91 747.64L414.89 727.03Z" />
							<path id="&lt;Path&gt;" class="shp23" d="M414.89 625.95L414.89 727.03L337.91 747.64L337.91 601.27L414.89 625.95Z" />
							<path id="&lt;Path&gt;" class="shp23" d="M414.89 524.85L414.89 625.95L337.91 601.27L337.91 454.91L414.89 524.85Z" />
						</g>
						<g id="&lt;Group&gt;">
							<path id="&lt;Path&gt;" class="shp27" d="M414.89 929.24L337.91 1040.37L337.91 894.01L337.91 747.64L337.91 601.27L337.91 454.91L414.89 524.85L455.49 561.74" />
							<path id="&lt;Path&gt;" class="shp27" d="M455.49 870.61L414.89 929.22" />
							<path id="&lt;Path&gt;" class="shp27" d="M455.49 561.75L480.58 584.54L497.61 600.02L497.61 652.46L497.61 704.89L497.61 757.34L497.61 809.79L480.58 834.38L455.49 870.59" />
							<path id="&lt;Path&gt;" class="shp27" d="M337.91 894.01L414.89 828.14L455.49 793.39L480.58 771.91L497.61 757.34" />
							<path id="&lt;Path&gt;" class="shp27" d="M337.91 747.64L414.89 727.03L455.49 716.17L480.58 709.46L497.61 704.89" />
							<path id="&lt;Path&gt;" class="shp27" d="M337.91 601.27L414.89 625.95L455.49 638.95L480.58 647L497.61 652.46" />
							<path id="&lt;Path&gt;" class="shp27" d="M480.58 584.54L480.58 647L480.58 709.46L480.58 771.91L480.58 834.38" />
							<path id="&lt;Path&gt;" class="shp27" d="M455.49 561.74L455.49 561.75L455.49 638.95L455.49 716.17L455.49 793.39L455.49 870.59L455.49 870.61" />
							<path id="&lt;Path&gt;" class="shp27" d="M414.89 524.85L414.89 625.95L414.89 727.03L414.89 828.14L414.89 929.22L414.89 929.24" />
							<path id="&lt;Path&gt;" class="shp27" d="M811.02 929.24L887.99 1040.37L887.99 894.01L887.99 747.64L887.99 601.27L887.99 454.91L811.02 524.85L770.41 561.74" />
							<path id="&lt;Path&gt;" class="shp27" d="M770.41 870.61L811.02 929.22" />
							<path id="&lt;Path&gt;" class="shp27" d="M770.41 561.75L745.32 584.54L728.29 600.02L728.29 652.46L728.29 704.89L728.29 757.34L728.29 809.79L745.32 834.38L770.41 870.59" />
							<path id="&lt;Path&gt;" class="shp27" d="M887.99 894.01L811.02 828.14L770.41 793.39L745.32 771.91L728.29 757.34" />
							<path id="&lt;Path&gt;" class="shp27" d="M887.99 747.64L811.02 727.03L770.41 716.17L745.32 709.46L728.29 704.89" />
							<path id="&lt;Path&gt;" class="shp27" d="M887.99 601.27L811.02 625.95L770.41 638.95L745.32 647L728.29 652.46" />
							<path id="&lt;Path&gt;" class="shp27" d="M745.32 584.54L745.32 647L745.32 709.46L745.32 771.91L745.32 834.38" />
							<path id="&lt;Path&gt;" class="shp27" d="M770.41 561.74L770.41 561.75L770.41 638.95L770.41 716.17L770.41 793.39L770.41 870.59L770.41 870.61" />
							<path id="&lt;Path&gt;" class="shp27" d="M811.02 524.85L811.02 625.95L811.02 727.03L811.02 828.14L811.02 929.22L811.02 929.24" />
						</g>
					</g>
				</g>
			</g>
			<g id="&lt;Group&gt;">
				<path id="&lt;Path&gt;" class="shp19" d="M726.94 809.78L496.26 809.78L496.26 600.01L726.94 600.01L726.94 809.78Z" />
			</g>
			<g id="&lt;Group&gt;">
				<g id="&lt;Group&gt;">
					<path id="&lt;Path&gt;" class="shp22" d="M312.2 1059.84L125.27 1099.78L125.27 418.04L312.2 446.52L312.2 1059.84Z" />
				</g>
				<g id="&lt;Group&gt;">
					<path id="&lt;Path&gt;" class="shp28" d="M125.27 1098.98L114.86 1098.98L114.86 417.24L125.27 417.24L125.27 1098.98Z" />
				</g>
			</g>
			<g id="&lt;Group&gt;">
				<g id="&lt;Group&gt;">
					<path id="&lt;Path&gt;" class="shp22" d="M913.14 1058.75L1100.07 1098.69L1100.07 416.95L913.14 445.44L913.14 1058.75Z" />
				</g>
				<g id="&lt;Group&gt;">
					<path id="&lt;Path&gt;" class="shp28" d="M1100.07 1098.69L1110.48 1098.69L1110.48 416.95L1100.07 416.95L1100.07 1098.69Z" />
				</g>
			</g>
			<g id="&lt;Group&gt;">
				<path id="&lt;Path&gt;" class="shp29" d="M903.31 508.84L896.37 508.84L896.37 461.09L903.31 461.09L903.31 508.84Z" />
			</g>
			<g id="&lt;Group&gt;">
				<path id="&lt;Path&gt;" class="shp29" d="M903.31 771.52L896.37 771.52L896.37 723.76L903.31 723.76L903.31 771.52Z" />
			</g>
			<g id="&lt;Group&gt;">
				<path id="&lt;Path&gt;" class="shp29" d="M903.31 1044.14L896.37 1044.14L896.37 996.39L903.31 996.39L903.31 1044.14Z" />
			</g>
			<g id="&lt;Group&gt;">
				<path id="&lt;Path&gt;" class="shp29" d="M327.35 508.84L320.41 508.84L320.41 461.09L327.35 461.09L327.35 508.84Z" />
			</g>
			<g id="&lt;Group&gt;">
				<path id="&lt;Path&gt;" class="shp30" d="M327.35 771.52L320.41 771.52L320.41 723.76L327.35 723.76L327.35 771.52Z" />
			</g>
			<g id="&lt;Group&gt;">
				<path id="&lt;Path&gt;" class="shp29" d="M327.35 1044.14L320.41 1044.14L320.41 996.39L327.35 996.39L327.35 1044.14Z" />
			</g>
			<g id="&lt;Group&gt;">
				<g id="&lt;Group&gt;">
					<path id="&lt;Path&gt;" class="shp9" d="M373.03 862.8L373.61 913L378.68 908.68L378.87 857.8L373.03 862.8Z" />
				</g>
				<g id="&lt;Group&gt;">
					<path id="&lt;Path&gt;" class="shp31" d="M433.97 810.92L434.45 852.39L438.64 848.83L438.8 806.79L433.97 810.92Z" />
				</g>
				<g id="&lt;Group&gt;">
					<path id="&lt;Path&gt;" class="shp32" d="M468.33 780.77L468.7 813.03L471.96 810.26L472.08 777.56L468.33 780.77Z" />
				</g>
			</g>
			<g id="&lt;Group&gt;">
				<g id="&lt;Group&gt;">
					<path id="&lt;Path&gt;" class="shp9" d="M849.41 862.8L848.84 913L843.76 908.68L843.57 857.8L849.41 862.8Z" />
				</g>
				<g id="&lt;Group&gt;">
					<path id="&lt;Path&gt;" class="shp31" d="M788.47 810.92L787.99 852.39L783.8 848.83L783.64 806.79L788.47 810.92Z" />
				</g>
				<g id="&lt;Group&gt;">
					<path id="&lt;Path&gt;" class="shp32" d="M754.11 780.77L753.74 813.03L750.48 810.26L750.36 777.56L754.11 780.77Z" />
				</g>
			</g>
			<g id="&lt;Group&gt;">
				<g id="&lt;Group&gt;">
					<path id="&lt;Path&gt;" class="shp9" d="M373.61 737.45L373.61 786.66L378.68 782.35L379.56 736.14L373.61 737.45Z" />
				</g>
				<g id="&lt;Group&gt;">
					<path id="&lt;Path&gt;" class="shp33" d="M432.02 722.07L432.02 762.39L436.18 758.86L436.89 720.99L432.02 722.07Z" />
				</g>
				<g id="&lt;Group&gt;">
					<path id="&lt;Path&gt;" class="shp32" d="M467 712.85L467 743.86L470.19 741.14L470.74 712.02L467 712.85Z" />
				</g>
			</g>
			<g id="&lt;Group&gt;">
				<g id="&lt;Group&gt;">
					<path id="&lt;Path&gt;" class="shp9" d="M851.83 737.45L851.83 786.66L846.76 782.35L845.88 736.14L851.83 737.45Z" />
				</g>
				<g id="&lt;Group&gt;">
					<path id="&lt;Path&gt;" class="shp33" d="M793.42 722.07L793.42 762.39L789.26 758.86L788.54 720.99L793.42 722.07Z" />
				</g>
				<g id="&lt;Group&gt;">
					<path id="&lt;Path&gt;" class="shp32" d="M758.44 712.85L758.44 743.86L755.25 741.14L754.7 712.02L758.44 712.85Z" />
				</g>
			</g>
			<g id="&lt;Group&gt;">
				<g id="&lt;Group&gt;">
					<path id="&lt;Path&gt;" class="shp9" d="M373.61 613.03L373.61 662.24L378.68 661.06L379.5 615.04L373.61 613.03Z" />
				</g>
				<g id="&lt;Group&gt;">
					<path id="&lt;Path&gt;" class="shp33" d="M431.95 631.69L431.95 668.96L435.79 668.07L436.41 633.21L431.95 631.69Z" />
				</g>
				<g id="&lt;Group&gt;">
					<path id="&lt;Path&gt;" class="shp32" d="M467.41 643.61L467.41 666.36L469.76 665.81L470.13 644.54L467.41 643.61Z" />
				</g>
			</g>
			<g id="&lt;Group&gt;">
				<g id="&lt;Group&gt;">
					<path id="&lt;Path&gt;" class="shp9" d="M846.88 613.03L846.88 662.24L841.81 661.06L840.99 615.04L846.88 613.03Z" />
				</g>
				<g id="&lt;Group&gt;">
					<path id="&lt;Path&gt;" class="shp33" d="M788.54 631.69L788.54 668.96L784.7 668.07L784.08 633.21L788.54 631.69Z" />
				</g>
				<g id="&lt;Group&gt;">
					<path id="&lt;Path&gt;" class="shp32" d="M753.08 643.61L753.08 666.36L750.74 665.81L750.36 644.54L753.08 643.61Z" />
				</g>
			</g>
			<g id="&lt;Group&gt;">
				<g id="&lt;Group&gt;">
					<path id="&lt;Path&gt;" class="shp9" d="M373.61 487.93L373.61 537.14L378.63 538.75L378.63 493.31L373.61 487.93Z" />
				</g>
				<g id="&lt;Group&gt;">
					<path id="&lt;Path&gt;" class="shp33" d="M433.47 543.21L433.47 586.44L437.88 587.86L437.88 547.93L433.47 543.21Z" />
				</g>
				<g id="&lt;Group&gt;">
					<path id="&lt;Path&gt;" class="shp32" d="M466.14 572.44L466.14 606.7L469.64 607.83L469.64 576.18L466.14 572.44Z" />
				</g>
			</g>
			<g id="&lt;Group&gt;">
				<g id="&lt;Group&gt;">
					<path id="&lt;Path&gt;" class="shp9" d="M850.21 487.93L850.21 537.14L845.18 538.75L845.18 493.31L850.21 487.93Z" />
				</g>
				<g id="&lt;Group&gt;">
					<path id="&lt;Path&gt;" class="shp33" d="M790.35 543.21L790.35 586.44L785.93 587.86L785.93 547.93L790.35 543.21Z" />
				</g>
				<g id="&lt;Group&gt;">
					<path id="&lt;Path&gt;" class="shp32" d="M757.67 572.44L757.67 606.7L754.17 607.83L754.17 576.18L757.67 572.44Z" />
				</g>
			</g>
			<g id="&lt;Group&gt;">
				<path id="&lt;Path&gt;" class="shp19" d="M336.57 1040.37L409.47 1029.99L669.44 996.39L755.92 996.39L888.9 1044.14L337.06 1044.14L336.57 1040.37Z" />
			</g>
			<g id="&lt;Group&gt;">
				<g id="&lt;Group&gt;">
					<g id="&lt;Group&gt;">
						<g id="&lt;Group&gt;">
							<path id="&lt;Path&gt;" class="shp33" d="M802.29 919.57L811.54 916.68L811.54 809.01L802.29 798.59L802.29 919.57Z" />
						</g>
						<g id="&lt;Group&gt;">
							<path id="&lt;Path&gt;" class="shp9" d="M802.29 919.57L690.67 919.57L690.67 798.59L802.29 798.59L802.29 919.57Z" />
						</g>
					</g>
					<g id="&lt;Group&gt;">
						<g id="&lt;Group&gt;">
							<path id="&lt;Path&gt;" class="shp33" d="M756.6 1037.08L687.78 1027.67L687.78 917.83L756.6 917.83L756.6 1037.08Z" />
						</g>
						<g id="&lt;Group&gt;">
							<path id="&lt;Path&gt;" class="shp9" d="M832.22 1024.2L756.6 1037.08L756.6 917.83L832.22 915.52L832.22 1024.2Z" />
						</g>
					</g>
				</g>
				<path id="&lt;Mesh&gt;" class="shp34" d="M760.28 920.89C762.24 921.69 764.78 922.1 766.74 922.9C766.54 922.48 766.42 921.71 766.6 921.14C763.85 920.66 760.69 920.48 757.94 920C758.56 920.25 759.65 920.64 760.28 920.89ZM757.94 920C760.69 920.48 763.85 920.66 766.6 921.14C766.75 920.63 767 920.09 767.2 919.57C763.78 919.35 759.73 919.43 756.32 919.21C756.87 919.44 757.39 919.77 757.94 920ZM756.32 919.21C759.73 919.43 763.78 919.35 767.2 919.57C767.32 919.24 767.43 918.91 767.5 918.6C763.75 918.51 759.09 918.73 755.35 918.64C755.7 918.79 755.97 919.07 756.32 919.21ZM755.35 918.64C759.09 918.73 763.75 918.51 767.5 918.6C767.54 918.4 767.56 918.21 767.56 918.03C763.57 918.04 758.88 918.26 754.89 918.26C755.12 918.36 755.12 918.55 755.35 918.64ZM754.89 918.26C758.88 918.26 763.57 918.04 767.56 918.03C767.55 917.85 767.51 917.67 767.44 917.51C763.19 917.62 758.68 917.73 754.43 917.83C754.67 917.93 754.65 918.17 754.89 918.26ZM766.74 922.9C769.01 923.83 771.09 924.52 773.36 925.44C773.92 924.72 774.94 923.82 776.02 922.89C772.93 922.29 769.79 921.7 766.6 921.14C766.42 921.71 766.54 922.48 766.74 922.9ZM766.6 921.14C769.79 921.7 772.93 922.29 776.02 922.89C776.99 922.06 778 921.22 778.76 920.47C774.98 920.14 771.16 919.83 767.2 919.57C767 920.09 766.75 920.63 766.6 921.14ZM767.2 919.57C771.16 919.83 774.98 920.14 778.76 920.47C779.25 919.99 779.82 919.48 780.38 918.98C776.14 918.83 771.84 918.71 767.5 918.6C767.43 918.91 767.32 919.24 767.2 919.57ZM767.5 918.6C771.84 918.71 776.14 918.83 780.38 918.98C780.74 918.66 781.09 918.34 781.4 918.03C776.83 918.02 772.18 918.03 767.56 918.03C767.56 918.21 767.54 918.4 767.5 918.6ZM767.56 918.03C772.18 918.03 776.83 918.02 781.4 918.03C781.73 917.71 782.02 917.41 782.23 917.13C777.3 917.26 772.37 917.38 767.44 917.51C767.51 917.67 767.55 917.85 767.56 918.03ZM773.36 925.44C775.09 926.15 776.83 926.85 778.56 927.56C779.82 926.56 781.45 925.41 783.1 924.26C780.75 923.8 778.38 923.35 776.02 922.89C774.94 923.82 773.92 924.72 773.36 925.44ZM776.02 922.89C778.38 923.35 780.75 923.8 783.1 924.26C784.58 923.23 786.08 922.19 787.37 921.23C784.5 920.98 781.64 920.72 778.76 920.47C778 921.22 776.99 922.06 776.02 922.89ZM778.76 920.47C781.64 920.72 784.5 920.98 787.37 921.23C788.19 920.62 789.21 919.94 790.08 919.32C786.83 919.21 783.61 919.1 780.38 918.98C779.82 919.48 779.25 919.99 778.76 920.47ZM780.38 918.98C783.61 919.1 786.83 919.21 790.08 919.32C790.63 918.91 791.24 918.49 791.82 918.08C788.33 918.07 784.88 918.04 781.4 918.03C781.09 918.34 780.74 918.66 780.38 918.98ZM781.4 918.03C784.88 918.04 788.33 918.07 791.82 918.08C792.43 917.65 793.02 917.22 793.5 916.84C789.75 916.94 785.99 917.03 782.23 917.13C782.02 917.41 781.73 917.71 781.4 918.03ZM778.56 927.56C779.97 928.13 781.37 928.7 782.78 929.28C784.78 927.99 786.83 926.67 788.91 925.35C786.97 924.99 785.02 924.63 783.1 924.26C781.45 925.41 779.82 926.56 778.56 927.56ZM783.1 924.26C785.02 924.63 786.97 924.99 788.91 925.35C790.75 924.18 792.61 922.99 794.45 921.82C792.07 921.63 789.71 921.43 787.37 921.23C786.08 922.19 784.58 923.23 783.1 924.26ZM787.37 921.23C789.71 921.43 792.07 921.63 794.45 921.82C795.62 921.08 796.84 920.31 798.02 919.56C795.36 919.49 792.71 919.4 790.08 919.32C789.21 919.94 788.19 920.62 787.37 921.23ZM790.08 919.32C792.71 919.4 795.36 919.49 798.02 919.56C798.78 919.08 799.54 918.6 800.32 918.11C797.48 918.1 794.66 918.09 791.82 918.08C791.24 918.49 790.63 918.91 790.08 919.32ZM791.82 918.08C794.66 918.09 797.48 918.1 800.32 918.11C801.13 917.6 801.91 917.1 802.67 916.61C799.61 916.69 796.56 916.76 793.5 916.84C793.02 917.22 792.43 917.65 791.82 918.08ZM782.78 929.28C783.81 929.7 784.84 930.12 785.87 930.54C788.32 929.07 790.77 927.6 793.22 926.13C791.78 925.87 790.33 925.62 788.91 925.35C786.83 926.67 784.78 927.99 782.78 929.28ZM788.91 925.35C790.33 925.62 791.78 925.87 793.22 926.13C795.4 924.82 797.58 923.51 799.77 922.2C797.97 922.08 796.2 921.96 794.45 921.82C792.61 922.99 790.75 924.18 788.91 925.35ZM794.45 921.82C796.2 921.96 797.97 922.08 799.77 922.2C801.14 921.37 802.52 920.55 803.9 919.72C801.93 919.67 799.97 919.62 798.02 919.56C796.84 920.31 795.62 921.08 794.45 921.82ZM798.02 919.56C799.97 919.62 801.93 919.67 803.9 919.72C804.79 919.19 805.68 918.65 806.57 918.12C804.47 918.12 802.39 918.12 800.32 918.11C799.54 918.6 798.78 919.08 798.02 919.56ZM800.32 918.11C802.39 918.12 804.47 918.12 806.57 918.12C807.51 917.56 808.44 917 809.37 916.44C807.14 916.49 804.9 916.55 802.67 916.61C801.91 917.1 801.13 917.6 800.32 918.11Z" />
			</g>
			<g id="&lt;Group&gt;">
				<g id="&lt;Group&gt;">
					<g id="&lt;Group&gt;">
						<g id="&lt;Group&gt;">
							<path id="&lt;Path&gt;" class="shp33" d="M660.18 921.31L669.44 918.41L669.44 810.75L660.18 800.33L660.18 921.31Z" />
						</g>
						<g id="&lt;Group&gt;">
							<path id="&lt;Path&gt;" class="shp9" d="M660.18 921.31L548.56 921.31L548.56 800.33L660.18 800.33L660.18 921.31Z" />
						</g>
					</g>
					<g id="&lt;Group&gt;">
						<g id="&lt;Group&gt;">
							<path id="&lt;Path&gt;" class="shp33" d="M614.49 1038.82L545.67 1029.41L545.67 919.57L614.49 919.57L614.49 1038.82Z" />
						</g>
						<g id="&lt;Group&gt;">
							<path id="&lt;Path&gt;" class="shp9" d="M690.11 1025.94L614.49 1038.82L614.49 919.57L690.11 917.26L690.11 1025.94Z" />
						</g>
					</g>
				</g>
				<path id="&lt;Mesh&gt;" class="shp35" d="M618.17 922.63C620.13 923.43 622.67 923.84 624.63 924.64C624.43 924.22 624.31 923.45 624.49 922.88C621.74 922.39 618.59 922.22 615.83 921.74C616.46 921.99 617.55 922.38 618.17 922.63ZM615.83 921.74C618.59 922.22 621.74 922.39 624.49 922.88C624.65 922.37 624.89 921.83 625.09 921.3C621.67 921.08 617.63 921.17 614.21 920.95C614.77 921.18 615.28 921.51 615.83 921.74ZM614.21 920.95C617.63 921.17 621.67 921.08 625.09 921.3C625.22 920.97 625.33 920.65 625.39 920.34C621.64 920.25 616.98 920.47 613.24 920.38C613.59 920.52 613.86 920.81 614.21 920.95ZM613.24 920.38C616.98 920.47 621.64 920.25 625.39 920.34C625.43 920.14 625.45 919.95 625.45 919.77C621.46 919.78 616.77 919.99 612.78 920C613.01 920.09 613.01 920.29 613.24 920.38ZM612.78 920C616.77 919.99 621.46 919.78 625.45 919.77C625.44 919.58 625.41 919.41 625.33 919.25C621.08 919.35 616.58 919.46 612.32 919.57C612.56 919.67 612.55 919.9 612.78 920ZM624.63 924.64C626.9 925.57 628.98 926.25 631.26 927.18C631.81 926.46 632.84 925.55 633.92 924.62C630.82 924.02 627.68 923.44 624.49 922.88C624.31 923.45 624.43 924.22 624.63 924.64ZM624.49 922.88C627.68 923.44 630.82 924.02 633.92 924.62C634.88 923.8 635.89 922.95 636.65 922.2C632.87 921.87 629.05 921.56 625.09 921.3C624.89 921.83 624.65 922.37 624.49 922.88ZM625.09 921.3C629.05 921.56 632.87 921.87 636.65 922.2C637.14 921.73 637.71 921.22 638.27 920.72C634.03 920.57 629.74 920.45 625.39 920.34C625.33 920.65 625.22 920.97 625.09 921.3ZM625.39 920.34C629.74 920.45 634.03 920.57 638.27 920.72C638.63 920.4 638.98 920.07 639.3 919.77C634.72 919.75 630.08 919.77 625.45 919.77C625.45 919.95 625.43 920.14 625.39 920.34ZM625.45 919.77C630.08 919.77 634.72 919.75 639.3 919.77C639.63 919.45 639.91 919.14 640.13 918.87C635.19 918.99 630.26 919.12 625.33 919.25C625.41 919.41 625.44 919.58 625.45 919.77ZM631.26 927.18C632.99 927.88 634.72 928.59 636.45 929.29C637.72 928.29 639.34 927.15 641 925.99C638.64 925.53 636.27 925.08 633.92 924.62C632.84 925.55 631.81 926.46 631.26 927.18ZM633.92 924.62C636.27 925.08 638.64 925.53 641 925.99C642.47 924.96 643.97 923.92 645.27 922.97C642.39 922.71 639.54 922.45 636.65 922.2C635.89 922.95 634.88 923.8 633.92 924.62ZM636.65 922.2C639.54 922.45 642.39 922.71 645.27 922.97C646.09 922.36 647.11 921.68 647.97 921.05C644.73 920.95 641.5 920.83 638.27 920.72C637.71 921.22 637.14 921.73 636.65 922.2ZM638.27 920.72C641.5 920.83 644.73 920.95 647.97 921.05C648.53 920.65 649.13 920.23 649.71 919.82C646.22 919.81 642.78 919.78 639.3 919.77C638.98 920.07 638.63 920.4 638.27 920.72ZM639.3 919.77C642.78 919.78 646.22 919.81 649.71 919.82C650.33 919.38 650.91 918.96 651.4 918.58C647.64 918.67 643.88 918.77 640.13 918.87C639.91 919.14 639.63 919.45 639.3 919.77ZM636.45 929.29C637.86 929.87 639.27 930.44 640.67 931.01C642.67 929.72 644.73 928.41 646.8 927.09C644.86 926.73 642.91 926.37 641 925.99C639.34 927.15 637.72 928.29 636.45 929.29ZM641 925.99C642.91 926.37 644.86 926.73 646.8 927.09C648.65 925.91 650.51 924.73 652.35 923.56C649.96 923.37 647.61 923.17 645.27 922.97C643.97 923.92 642.47 924.96 641 925.99ZM645.27 922.97C647.61 923.17 649.96 923.37 652.35 923.56C653.51 922.82 654.73 922.05 655.92 921.3C653.25 921.22 650.61 921.14 647.97 921.05C647.11 921.68 646.09 922.36 645.27 922.97ZM647.97 921.05C650.61 921.14 653.25 921.22 655.92 921.3C656.68 920.82 657.44 920.33 658.21 919.85C655.37 919.84 652.55 919.82 649.71 919.82C649.13 920.23 648.53 920.65 647.97 921.05ZM649.71 919.82C652.55 919.82 655.37 919.84 658.21 919.85C659.02 919.34 659.8 918.84 660.56 918.34C657.5 918.42 654.45 918.5 651.4 918.58C650.91 918.96 650.33 919.38 649.71 919.82ZM640.67 931.01C641.71 931.43 642.74 931.85 643.77 932.27C646.22 930.8 648.67 929.33 651.12 927.86C649.67 927.61 648.22 927.35 646.8 927.09C644.73 928.41 642.67 929.72 640.67 931.01ZM646.8 927.09C648.22 927.35 649.67 927.61 651.12 927.86C653.3 926.56 655.48 925.25 657.66 923.94C655.86 923.82 654.09 923.69 652.35 923.56C650.51 924.73 648.65 925.91 646.8 927.09ZM652.35 923.56C654.09 923.69 655.86 923.82 657.66 923.94C659.04 923.11 660.42 922.28 661.79 921.46C659.82 921.41 657.86 921.36 655.92 921.3C654.73 922.05 653.51 922.82 652.35 923.56ZM655.92 921.3C657.86 921.36 659.82 921.41 661.79 921.46C662.68 920.92 663.57 920.39 664.46 919.86C662.36 919.86 660.28 919.85 658.21 919.85C657.44 920.33 656.68 920.82 655.92 921.3ZM658.21 919.85C660.28 919.85 662.36 919.86 664.46 919.86C665.4 919.29 666.33 918.73 667.27 918.17C665.03 918.23 662.8 918.29 660.56 918.34C659.8 918.84 659.02 919.34 658.21 919.85Z" />
			</g>
			<g id="&lt;Group&gt;">
				<g id="&lt;Group&gt;">
					<g id="&lt;Group&gt;">
						<g id="&lt;Group&gt;">
							<path id="&lt;Path&gt;" class="shp33" d="M525.64 919.57L534.9 916.68L534.9 809.01L525.64 798.59L525.64 919.57Z" />
						</g>
						<g id="&lt;Group&gt;">
							<path id="&lt;Path&gt;" class="shp9" d="M525.64 919.57L414.02 919.57L414.02 798.59L525.64 798.59L525.64 919.57Z" />
						</g>
					</g>
					<g id="&lt;Group&gt;">
						<g id="&lt;Group&gt;">
							<path id="&lt;Path&gt;" class="shp33" d="M479.96 1037.08L411.13 1027.67L411.13 917.83L479.96 917.83L479.96 1037.08Z" />
						</g>
						<g id="&lt;Group&gt;">
							<path id="&lt;Path&gt;" class="shp9" d="M555.57 1024.2L479.96 1037.08L479.96 917.83L555.57 915.52L555.57 1024.2Z" />
						</g>
					</g>
				</g>
				<path id="&lt;Mesh&gt;" class="shp36" d="M483.63 920.89C485.59 921.69 488.13 922.1 490.09 922.9C489.89 922.48 489.77 921.71 489.95 921.14C487.2 920.66 484.05 920.48 481.3 920C481.92 920.25 483.01 920.64 483.63 920.89ZM481.3 920C484.05 920.48 487.2 920.66 489.95 921.14C490.11 920.63 490.35 920.09 490.55 919.57C487.14 919.35 483.09 919.43 479.67 919.21C480.23 919.44 480.74 919.77 481.3 920ZM479.67 919.21C483.09 919.43 487.14 919.35 490.55 919.57C490.68 919.24 490.79 918.91 490.85 918.6C487.11 918.51 482.45 918.73 478.7 918.64C479.05 918.79 479.32 919.07 479.67 919.21ZM478.7 918.64C482.45 918.73 487.11 918.51 490.85 918.6C490.89 918.4 490.92 918.21 490.91 918.03C486.92 918.04 482.24 918.26 478.25 918.26C478.47 918.36 478.47 918.55 478.7 918.64ZM478.25 918.26C482.24 918.26 486.92 918.04 490.91 918.03C490.91 917.85 490.87 917.67 490.79 917.51C486.54 917.62 482.04 917.73 477.79 917.83C478.02 917.93 478.01 918.17 478.25 918.26ZM490.09 922.9C492.36 923.83 494.44 924.52 496.72 925.44C497.27 924.72 498.3 923.82 499.38 922.89C496.29 922.29 493.14 921.7 489.95 921.14C489.77 921.71 489.89 922.48 490.09 922.9ZM489.95 921.14C493.14 921.7 496.29 922.29 499.38 922.89C500.34 922.06 501.35 921.22 502.12 920.47C498.34 920.14 494.51 919.83 490.55 919.57C490.35 920.09 490.11 920.63 489.95 921.14ZM490.55 919.57C494.51 919.83 498.34 920.14 502.12 920.47C502.6 919.99 503.18 919.48 503.73 918.98C499.5 918.83 495.2 918.71 490.85 918.6C490.79 918.91 490.68 919.24 490.55 919.57ZM490.85 918.6C495.2 918.71 499.5 918.83 503.73 918.98C504.09 918.66 504.44 918.34 504.76 918.03C500.19 918.02 495.54 918.03 490.91 918.03C490.92 918.21 490.89 918.4 490.85 918.6ZM490.91 918.03C495.54 918.03 500.19 918.02 504.76 918.03C505.09 917.71 505.38 917.41 505.59 917.13C500.66 917.26 495.72 917.38 490.79 917.51C490.87 917.67 490.91 917.85 490.91 918.03ZM496.72 925.44C498.45 926.15 500.18 926.85 501.91 927.56C503.18 926.56 504.8 925.41 506.46 924.26C504.1 923.8 501.73 923.35 499.38 922.89C498.3 923.82 497.27 924.72 496.72 925.44ZM499.38 922.89C501.73 923.35 504.1 923.8 506.46 924.26C507.93 923.23 509.43 922.19 510.73 921.23C507.85 920.98 505 920.72 502.12 920.47C501.35 921.22 500.34 922.06 499.38 922.89ZM502.12 920.47C505 920.72 507.85 920.98 510.73 921.23C511.55 920.62 512.57 919.94 513.43 919.32C510.19 919.21 506.96 919.1 503.73 918.98C503.18 919.48 502.6 919.99 502.12 920.47ZM503.73 918.98C506.96 919.1 510.19 919.21 513.43 919.32C513.99 918.91 514.59 918.49 515.18 918.08C511.69 918.07 508.24 918.04 504.76 918.03C504.44 918.34 504.09 918.66 503.73 918.98ZM504.76 918.03C508.24 918.04 511.69 918.07 515.18 918.08C515.79 917.65 516.37 917.22 516.86 916.84C513.1 916.94 509.34 917.03 505.59 917.13C505.38 917.41 505.09 917.71 504.76 918.03ZM501.91 927.56C503.32 928.13 504.73 928.7 506.14 929.28C508.13 927.99 510.19 926.67 512.26 925.35C510.32 924.99 508.37 924.63 506.46 924.26C504.8 925.41 503.18 926.56 501.91 927.56ZM506.46 924.26C508.37 924.63 510.32 924.99 512.26 925.35C514.11 924.18 515.97 922.99 517.81 921.82C515.42 921.63 513.07 921.43 510.73 921.23C509.43 922.19 507.93 923.23 506.46 924.26ZM510.73 921.23C513.07 921.43 515.42 921.63 517.81 921.82C518.97 921.08 520.2 920.31 521.38 919.56C518.71 919.49 516.07 919.4 513.43 919.32C512.57 919.94 511.55 920.62 510.73 921.23ZM513.43 919.32C516.07 919.4 518.71 919.49 521.38 919.56C522.14 919.08 522.9 918.6 523.67 918.11C520.84 918.1 518.01 918.09 515.18 918.08C514.59 918.49 513.99 918.91 513.43 919.32ZM515.18 918.08C518.01 918.09 520.84 918.1 523.67 918.11C524.48 917.6 525.26 917.1 526.02 916.61C522.97 916.69 519.91 916.76 516.86 916.84C516.37 917.22 515.79 917.65 515.18 918.08ZM506.14 929.28C507.17 929.7 508.2 930.12 509.23 930.54C511.68 929.07 514.13 927.6 516.58 926.13C515.13 925.87 513.68 925.62 512.26 925.35C510.19 926.67 508.13 927.99 506.14 929.28ZM512.26 925.35C513.68 925.62 515.13 925.87 516.58 926.13C518.76 924.82 520.94 923.51 523.12 922.2C521.32 922.08 519.56 921.96 517.81 921.82C515.97 922.99 514.11 924.18 512.26 925.35ZM517.81 921.82C519.56 921.96 521.32 922.08 523.12 922.2C524.5 921.37 525.88 920.55 527.26 919.72C525.29 919.67 523.33 919.62 521.38 919.56C520.2 920.31 518.97 921.08 517.81 921.82ZM521.38 919.56C523.33 919.62 525.29 919.67 527.26 919.72C528.15 919.19 529.04 918.65 529.93 918.12C527.83 918.12 525.75 918.12 523.67 918.11C522.9 918.6 522.14 919.08 521.38 919.56ZM523.67 918.11C525.75 918.12 527.83 918.12 529.93 918.12C530.86 917.56 531.79 917 532.73 916.44C530.49 916.49 528.26 916.55 526.02 916.61C525.26 917.1 524.48 917.6 523.67 918.11Z" />
			</g>
			<g id="&lt;Group&gt;">
				<path id="&lt;Path&gt;" class="shp29" d="M329.16 771.52L322.22 771.52L322.22 723.76L329.16 723.76L329.16 771.52Z" />
			</g>
			<g id="&lt;Group&gt;" style="opacity: 0.239;mix-blend-mode: multiply">
				<path id="&lt;Path&gt;" class="shp37" d="M877.33 382.57C876.99 373.48 878.88 365 883.02 357.13C884.27 353.26 885.97 349.64 888.08 346.26C884.89 340.51 881.78 334.72 878.75 328.88C868.46 309.03 859.34 288.48 851.46 267.56C848.08 258.6 845.14 249.49 842.69 240.24L324.18 240.24L324.18 266.29L325.53 266.29L289.74 337.83L289.72 337.84L275.6 366.07L275.6 366.08L272.09 373.09L272.09 373.24C272.09 400.89 294.6 423.31 322.33 423.31C350.09 423.31 372.58 400.89 372.58 373.24C372.58 400.89 395.07 423.31 422.82 423.31C450.57 423.31 473.07 400.89 473.07 373.24C473.07 400.89 495.56 423.31 523.32 423.31C551.05 423.31 573.55 400.89 573.55 373.24C573.55 400.89 596.04 423.31 623.79 423.31C651.55 423.31 674.04 400.89 674.04 373.24C674.04 400.89 696.54 423.31 724.29 423.31C752.04 423.31 774.54 400.89 774.54 373.24C774.54 400.89 797.02 423.31 824.78 423.31C852.51 423.31 875.01 400.89 875.01 373.24C875.01 379.27 876.08 385.06 878.05 390.42C877.69 387.8 877.45 385.18 877.33 382.57Z" />
			</g>
			<g id="&lt;Group&gt;">
				<g id="&lt;Group&gt;">
					<g id="&lt;Group&gt;">
						<path id="&lt;Path&gt;" class="shp37" d="M964.37 367.03C964.37 367.08 964.37 367.12 964.37 367.17C964.37 394.82 941.87 417.24 914.13 417.24C886.37 417.24 863.87 394.82 863.87 367.17C863.87 367.12 863.87 367.08 863.87 367.03L964.37 367.03Z" />
						<path id="&lt;Path&gt;" class="shp38" d="M910.93 260.23L964.37 367.03L863.87 367.03L824.64 260.23L910.93 260.23Z" />
						<path id="&lt;Path&gt;" class="shp8" d="M912.28 234.18L912.28 260.23L910.93 260.23L824.64 260.23L737.32 260.23L655.19 260.23L614 260.23L611.3 260.23L567.28 260.23L485.74 260.23L399.56 260.23L314.39 260.23L313.04 260.23L313.04 234.18L912.28 234.18Z" />
						<path id="&lt;Path&gt;" class="shp39" d="M863.87 367.03C863.87 367.08 863.87 367.12 863.87 367.17C863.87 394.82 841.38 417.24 813.63 417.24C785.87 417.24 763.39 394.82 763.39 367.17C763.39 367.12 763.39 367.08 763.39 367.03L863.87 367.03Z" />
						<path id="&lt;Path&gt;" class="shp11" d="M824.64 260.23L863.87 367.03L763.39 367.03L763.35 367.03L737.32 260.23L824.64 260.23Z" />
						<path id="&lt;Path&gt;" class="shp37" d="M763.35 367.03L763.39 367.17C763.39 394.82 740.9 417.24 713.14 417.24C685.41 417.24 662.91 394.82 662.91 367.17C662.91 367.12 662.91 367.08 662.91 367.03L763.35 367.03Z" />
						<path id="&lt;Path&gt;" class="shp38" d="M737.32 260.23L763.35 367.03L662.91 367.03L662.9 367.03L655.19 260.23L737.32 260.23Z" />
						<path id="&lt;Path&gt;" class="shp39" d="M662.9 367.03L662.91 367.17C662.91 394.82 640.41 417.24 612.65 417.24C584.91 417.24 562.41 394.82 562.41 367.17C562.41 367.12 562.41 367.08 562.41 367.03L611.3 367.03L614 367.03L662.9 367.03Z" />
						<path id="&lt;Path&gt;" class="shp11" d="M655.19 260.23L662.9 367.03L614 367.03L611.3 367.03L562.41 367.03L567.28 260.23L611.3 260.23L614 260.23L655.19 260.23Z" />
						<path id="&lt;Path&gt;" class="shp38" d="M567.28 260.23L562.41 367.03L461.92 367.03L485.74 260.23L567.28 260.23Z" />
						<path id="&lt;Path&gt;" class="shp37" d="M562.41 367.03C562.41 367.08 562.41 367.12 562.41 367.17C562.41 394.82 539.92 417.24 512.17 417.24C484.41 417.24 461.92 394.82 461.92 367.17C461.92 367.12 461.92 367.08 461.92 367.03L562.41 367.03Z" />
						<path id="&lt;Path&gt;" class="shp11" d="M485.74 260.23L461.92 367.03L361.5 367.03L399.56 260.23L485.74 260.23Z" />
						<path id="&lt;Path&gt;" class="shp39" d="M461.92 367.03C461.92 367.08 461.92 367.12 461.92 367.17C461.92 394.82 439.42 417.24 411.69 417.24C383.93 417.24 361.45 394.82 361.45 367.17L361.5 367.03L461.92 367.03Z" />
						<path id="&lt;Path&gt;" class="shp38" d="M399.56 260.23L361.5 367.03L361.45 367.03L260.95 367.03L264.46 360.02L264.46 360L278.59 331.77L278.6 331.76L314.39 260.23L399.56 260.23Z" />
						<path id="&lt;Path&gt;" class="shp37" d="M361.45 367.03C361.45 367.08 361.45 367.12 361.45 367.17C361.45 394.82 338.95 417.24 311.19 417.24C283.45 417.24 260.95 394.82 260.95 367.17C260.95 367.12 260.95 367.08 260.95 367.03L361.45 367.03Z" />
					</g>
				</g>
			</g>
		</g>
		<g id="&lt;Group&gt;">
			<g id="&lt;Group&gt;">
				<g id="&lt;Group&gt;">
					<g id="&lt;Group&gt;">
						<path id="&lt;Path&gt;" class="shp40" d="M694.38 707.04C694.38 709.04 694.31 711.02 694.16 712.98L680.66 712.98C680.83 711.02 680.92 709.04 680.92 707.04C680.92 669.28 650.34 638.67 612.61 638.67C574.88 638.67 544.29 669.28 544.29 707.04C544.29 744.8 574.88 775.42 612.61 775.42C626.67 775.42 639.74 771.15 650.6 763.86L671.4 763.86C656.52 779.28 635.67 788.89 612.61 788.89C567.51 788.89 530.83 752.17 530.83 707.04C530.83 661.91 567.51 625.2 612.61 625.2C657.7 625.2 694.38 661.91 694.38 707.04Z" />
					</g>
				</g>
				<g id="&lt;Group&gt;">
					<path id="&lt;Path&gt;" class="shp40" d="M612.61 700.89L612.61 713.2L567.75 707.04L612.61 700.89Z" />
				</g>
				<g id="&lt;Group&gt;">
					<path id="&lt;Path&gt;" class="shp40" d="M651.62 664.22L619.77 711.94L610.24 704.17L651.62 664.22Z" />
				</g>
				<g id="&lt;Group&gt;">
					<path id="&lt;Path&gt;" class="shp40" d="M624.83 707.04C624.83 713.8 619.36 719.27 612.61 719.27C605.86 719.27 600.39 713.8 600.39 707.04C600.39 700.29 605.86 694.81 612.61 694.81C619.36 694.81 624.83 700.29 624.83 707.04Z" />
				</g>
			</g>
			<g id="&lt;Group&gt;">
				<g id="&lt;Group&gt;">
					<path id="&lt;Compound Path&gt;" class="shp40" d="M632.85 755.38L632.85 752.03L636.29 748.85C643.13 742.5 646.35 739.01 646.39 735.16C646.39 732.57 645.01 730.28 641.21 730.28C638.66 730.28 636.47 731.58 634.99 732.7L633.38 728.81C635.49 727.11 638.66 725.81 642.32 725.81C648.76 725.81 651.89 729.88 651.89 734.62C651.89 739.72 648.23 743.84 643.17 748.54L640.63 750.73L640.63 750.82L652.56 750.82L652.56 755.38L632.85 755.38Z" />
				</g>
				<g id="&lt;Group&gt;">
					<path id="&lt;Compound Path&gt;" fill-rule="evenodd" class="shp40" d="M668.92 755.38L668.92 748L655.78 748L655.78 744.42L667.62 726.3L674.1 726.3L674.1 743.84L677.86 743.84L677.86 748L674.1 748L674.1 755.38L668.92 755.38ZM668.92 743.84L668.92 735.92C668.92 734.27 668.96 732.57 669.1 730.87L668.92 730.87C668.03 732.7 667.27 734.18 666.37 735.79L661.05 743.75L661.01 743.84L668.92 743.84Z" />
				</g>
				<g id="&lt;Group&gt;">
					<path id="&lt;Compound Path&gt;" class="shp40" d="M687.51 725.23L687.51 737.31L700.25 737.31L700.25 725.23L705.75 725.23L705.75 755.38L700.25 755.38L700.25 742.1L687.51 742.1L687.51 755.38L682.01 755.38L682.01 725.23L687.51 725.23Z" />
				</g>
			</g>
		</g>
		<g id="&lt;Group&gt;">
			<g id="&lt;Group&gt;">
				<g id="&lt;Group&gt;">
					<g id="&lt;Group&gt;">
						<path id="&lt;Path&gt;" class="shp12" d="M691.06 701.22C691.06 703.21 690.98 705.19 690.84 707.15L677.33 707.15C677.5 705.19 677.6 703.21 677.6 701.22C677.6 663.45 647.01 632.84 609.28 632.84C571.56 632.84 540.96 663.45 540.96 701.22C540.96 738.97 571.56 769.59 609.28 769.59C623.34 769.59 636.41 765.32 647.27 758.03L668.07 758.03C653.2 773.45 632.34 783.06 609.28 783.06C564.19 783.06 527.5 746.35 527.5 701.22C527.5 656.08 564.19 619.37 609.28 619.37C654.37 619.37 691.06 656.08 691.06 701.22Z" />
					</g>
					<g id="&lt;Group&gt;">
						<path id="&lt;Path&gt;" class="shp41" d="M668.07 758.03C653.2 773.45 632.34 783.06 609.28 783.06C564.19 783.06 527.5 746.35 527.5 701.22C527.5 656.08 564.19 619.37 609.28 619.37C654.37 619.37 691.06 656.08 691.06 701.22C691.06 703.21 690.98 705.19 690.84 707.15" />
						<path id="&lt;Path&gt;" class="shp41" d="M647.27 758.03C636.41 765.32 623.34 769.59 609.28 769.59C571.56 769.59 540.96 738.97 540.96 701.22C540.96 663.45 571.56 632.84 609.28 632.84C647.01 632.84 677.6 663.45 677.6 701.22C677.6 703.21 677.5 705.19 677.33 707.15" />
					</g>
				</g>
				<g id="&lt;Group&gt;">
					<path id="&lt;Path&gt;" class="shp42" d="M609.28 695.06L609.28 707.37L564.42 701.21L609.28 695.06Z" />
				</g>
				<g id="&lt;Group&gt;">
					<path id="&lt;Path&gt;" class="shp42" d="M648.29 658.39L616.44 706.11L606.91 698.34L648.29 658.39Z" />
				</g>
				<g id="&lt;Group&gt;">
					<path id="&lt;Path&gt;" class="shp42" d="M621.5 701.21C621.5 707.97 616.03 713.45 609.28 713.45C602.53 713.45 597.06 707.97 597.06 701.21C597.06 694.46 602.53 688.98 609.28 688.98C616.03 688.98 621.5 694.46 621.5 701.21Z" />
				</g>
			</g>
			<g id="&lt;Group&gt;">
				<g id="&lt;Group&gt;">
					<path id="&lt;Compound Path&gt;" class="shp12" d="M629.52 749.55L629.52 746.2L632.96 743.02C639.8 736.67 643.02 733.18 643.07 729.33C643.07 726.74 641.68 724.46 637.88 724.46C635.33 724.46 633.14 725.75 631.67 726.87L630.06 722.98C632.16 721.28 635.33 719.98 639 719.98C645.43 719.98 648.56 724.05 648.56 728.8C648.56 733.9 644.9 738.01 639.85 742.71L637.3 744.9L637.3 744.99L649.23 744.99L649.23 749.55L629.52 749.55Z" />
				</g>
				<g id="&lt;Group&gt;">
					<path id="&lt;Compound Path&gt;" fill-rule="evenodd" class="shp12" d="M665.59 749.55L665.59 742.17L652.45 742.17L652.45 738.59L664.3 720.47L670.78 720.47L670.78 738.01L674.53 738.01L674.53 742.17L670.78 742.17L670.78 749.55L665.59 749.55ZM665.59 738.01L665.59 730.09C665.59 728.44 665.64 726.74 665.77 725.04L665.59 725.04C664.7 726.87 663.94 728.35 663.04 729.96L657.72 737.92L657.68 738.01L665.59 738.01Z" />
				</g>
				<g id="&lt;Group&gt;">
					<path id="&lt;Compound Path&gt;" class="shp12" d="M684.19 719.4L684.19 731.48L696.92 731.48L696.92 719.4L702.42 719.4L702.42 749.55L696.92 749.55L696.92 736.27L684.19 736.27L684.19 749.55L678.69 749.55L678.69 719.4L684.19 719.4Z" />
				</g>
			</g>
		</g>
		<path id="&lt;Path&gt;" class="shp43" d="M1088.51 1262.35L903.98 1262.35L891.46 1354.7L1103.37 1354.7L1088.51 1262.35Z" />
		<g id="&lt;Group&gt;">
			<g id="&lt;Group&gt;">
				<g id="&lt;Group&gt;">
					<g id="&lt;Group&gt;">
						<path id="&lt;Path&gt;" class="shp33" d="M1051.73 1141.98L1064 1138.14L1064 995.33L1051.73 981.51L1051.73 1141.98Z" />
					</g>
					<g id="&lt;Group&gt;">
						<path id="&lt;Path&gt;" class="shp9" d="M1051.73 1141.98L903.67 1141.98L903.67 981.51L1051.73 981.51L1051.73 1141.98Z" />
					</g>
				</g>
				<g id="&lt;Group&gt;">
					<g id="&lt;Group&gt;">
						<path id="&lt;Path&gt;" class="shp33" d="M991.13 1297.84L899.84 1285.36L899.84 1139.67L991.13 1139.67L991.13 1297.84Z" />
					</g>
					<g id="&lt;Group&gt;">
						<path id="&lt;Path&gt;" class="shp9" d="M1091.43 1280.76L991.13 1297.84L991.13 1139.67L1091.43 1136.6L1091.43 1280.76Z" />
					</g>
				</g>
			</g>
			<path id="&lt;Mesh&gt;" class="shp44" d="M996 1143.73C998.6 1144.79 1001.97 1145.34 1004.57 1146.4C1004.31 1145.84 1004.15 1144.82 1004.38 1144.06C1000.74 1143.42 996.55 1143.19 992.91 1142.54C993.73 1142.88 995.18 1143.4 996 1143.73ZM992.91 1142.54C996.55 1143.19 1000.74 1143.42 1004.38 1144.06C1004.6 1143.38 1004.91 1142.67 1005.18 1141.97C1000.65 1141.68 995.28 1141.8 990.75 1141.5C991.49 1141.8 992.17 1142.24 992.91 1142.54ZM990.75 1141.5C995.28 1141.8 1000.65 1141.68 1005.18 1141.97C1005.35 1141.53 1005.5 1141.1 1005.58 1140.69C1000.61 1140.57 994.43 1140.87 989.46 1140.74C989.93 1140.93 990.29 1141.31 990.75 1141.5ZM989.46 1140.74C994.43 1140.87 1000.61 1140.57 1005.58 1140.69C1005.64 1140.43 1005.67 1140.18 1005.66 1139.94C1000.37 1139.95 994.15 1140.23 988.86 1140.24C989.16 1140.36 989.16 1140.62 989.46 1140.74ZM988.86 1140.24C994.15 1140.23 1000.37 1139.95 1005.66 1139.94C1005.65 1139.69 1005.6 1139.45 1005.5 1139.24C999.86 1139.38 993.89 1139.53 988.25 1139.67C988.57 1139.8 988.54 1140.11 988.86 1140.24ZM1004.57 1146.4C1007.59 1147.62 1010.35 1148.53 1013.36 1149.76C1014.1 1148.81 1015.46 1147.61 1016.89 1146.37C1012.79 1145.58 1008.62 1144.81 1004.38 1144.06C1004.15 1144.82 1004.31 1145.84 1004.57 1146.4ZM1004.38 1144.06C1008.62 1144.81 1012.79 1145.58 1016.89 1146.37C1018.17 1145.28 1019.51 1144.16 1020.52 1143.16C1015.51 1142.73 1010.44 1142.31 1005.18 1141.97C1004.91 1142.67 1004.6 1143.38 1004.38 1144.06ZM1005.18 1141.97C1010.44 1142.31 1015.51 1142.73 1020.52 1143.16C1021.16 1142.54 1021.93 1141.86 1022.67 1141.2C1017.05 1141 1011.35 1140.83 1005.58 1140.69C1005.5 1141.1 1005.35 1141.53 1005.18 1141.97ZM1005.58 1140.69C1011.35 1140.83 1017.05 1141 1022.67 1141.2C1023.14 1140.77 1023.61 1140.34 1024.03 1139.93C1017.96 1139.91 1011.8 1139.93 1005.66 1139.94C1005.67 1140.18 1005.64 1140.43 1005.58 1140.69ZM1005.66 1139.94C1011.8 1139.93 1017.96 1139.91 1024.03 1139.93C1024.46 1139.51 1024.85 1139.1 1025.13 1138.74C1018.59 1138.91 1012.04 1139.07 1005.5 1139.24C1005.6 1139.45 1005.65 1139.69 1005.66 1139.94ZM1013.36 1149.76C1015.66 1150.7 1017.95 1151.63 1020.25 1152.57C1021.93 1151.24 1024.08 1149.72 1026.28 1148.19C1023.16 1147.58 1020.02 1146.98 1016.89 1146.37C1015.46 1147.61 1014.1 1148.81 1013.36 1149.76ZM1016.89 1146.37C1020.02 1146.98 1023.16 1147.58 1026.28 1148.19C1028.24 1146.83 1030.23 1145.45 1031.95 1144.18C1028.13 1143.84 1024.34 1143.5 1020.52 1143.16C1019.51 1144.16 1018.17 1145.28 1016.89 1146.37ZM1020.52 1143.16C1024.34 1143.5 1028.13 1143.84 1031.95 1144.18C1033.03 1143.37 1034.38 1142.46 1035.53 1141.64C1031.23 1141.5 1026.95 1141.35 1022.67 1141.2C1021.93 1141.86 1021.16 1142.54 1020.52 1143.16ZM1022.67 1141.2C1026.95 1141.35 1031.23 1141.5 1035.53 1141.64C1036.27 1141.1 1037.07 1140.55 1037.84 1140C1033.21 1139.99 1028.64 1139.95 1024.03 1139.93C1023.61 1140.34 1023.14 1140.77 1022.67 1141.2ZM1024.03 1139.93C1028.64 1139.95 1033.21 1139.99 1037.84 1140C1038.66 1139.42 1039.43 1138.86 1040.07 1138.36C1035.09 1138.48 1030.11 1138.61 1025.13 1138.74C1024.85 1139.1 1024.46 1139.51 1024.03 1139.93ZM1020.25 1152.57C1022.12 1153.33 1023.99 1154.09 1025.85 1154.85C1028.5 1153.14 1031.23 1151.4 1033.98 1149.64C1031.4 1149.16 1028.82 1148.69 1026.28 1148.19C1024.08 1149.72 1021.93 1151.24 1020.25 1152.57ZM1026.28 1148.19C1028.82 1148.69 1031.4 1149.16 1033.98 1149.64C1036.43 1148.08 1038.89 1146.52 1041.34 1144.96C1038.17 1144.71 1035.05 1144.45 1031.95 1144.18C1030.23 1145.45 1028.24 1146.83 1026.28 1148.19ZM1031.95 1144.18C1035.05 1144.45 1038.17 1144.71 1041.34 1144.96C1042.88 1143.98 1044.5 1142.96 1046.07 1141.97C1042.54 1141.86 1039.03 1141.75 1035.53 1141.64C1034.38 1142.46 1033.03 1143.37 1031.95 1144.18ZM1035.53 1141.64C1039.03 1141.75 1042.54 1141.86 1046.07 1141.97C1047.08 1141.32 1048.09 1140.68 1049.11 1140.04C1045.35 1140.03 1041.61 1140.01 1037.84 1140C1037.07 1140.55 1036.27 1141.1 1035.53 1141.64ZM1037.84 1140C1041.61 1140.01 1045.35 1140.03 1049.11 1140.04C1050.19 1139.36 1051.22 1138.7 1052.23 1138.04C1048.18 1138.15 1044.13 1138.25 1040.07 1138.36C1039.43 1138.86 1038.66 1139.42 1037.84 1140ZM1025.85 1154.85C1027.22 1155.41 1028.59 1155.96 1029.96 1156.52C1033.21 1154.57 1036.45 1152.62 1039.7 1150.67C1037.78 1150.33 1035.86 1150 1033.98 1149.64C1031.23 1151.4 1028.5 1153.14 1025.85 1154.85ZM1033.98 1149.64C1035.86 1150 1037.78 1150.33 1039.7 1150.67C1042.6 1148.94 1045.49 1147.2 1048.38 1145.46C1046 1145.31 1043.65 1145.14 1041.34 1144.96C1038.89 1146.52 1036.43 1148.08 1033.98 1149.64ZM1041.34 1144.96C1043.65 1145.14 1046 1145.31 1048.38 1145.46C1050.21 1144.37 1052.04 1143.27 1053.87 1142.17C1051.25 1142.11 1048.66 1142.04 1046.07 1141.97C1044.5 1142.96 1042.88 1143.98 1041.34 1144.96ZM1046.07 1141.97C1048.66 1142.04 1051.25 1142.11 1053.87 1142.17C1055.05 1141.47 1056.23 1140.76 1057.41 1140.05C1054.62 1140.05 1051.86 1140.05 1049.11 1140.04C1048.09 1140.68 1047.08 1141.32 1046.07 1141.97ZM1049.11 1140.04C1051.86 1140.05 1054.62 1140.05 1057.41 1140.05C1058.65 1139.31 1059.89 1138.56 1061.13 1137.82C1058.16 1137.89 1055.2 1137.97 1052.23 1138.04C1051.22 1138.7 1050.19 1139.36 1049.11 1140.04Z" />
		</g>
		<g id="&lt;Group&gt;" style="opacity: 0.161">
			<g id="&lt;Group&gt;" style="mix-blend-mode: soft-light">
				<path id="&lt;Path&gt;" class="shp12" d="M1100.07 416.95L913.72 445.35L1100.07 1079.62L1100.07 416.95Z" />
			</g>
		</g>
		<g id="&lt;Group&gt;" style="opacity: 0.161">
			<g id="&lt;Group&gt;" style="mix-blend-mode: soft-light">
				<path id="&lt;Path&gt;" class="shp12" d="M125.56 419.8L311.91 448.2L125.56 1082.47L125.56 419.8Z" />
			</g>
		</g>
		<g id="&lt;Group&gt;">
			<path id="&lt;Path&gt;" class="shp22" d="M636.9 1132.34C636.9 1150.32 622.34 1164.9 604.37 1164.9C586.41 1164.9 571.84 1150.32 571.84 1132.34C571.84 1114.35 586.41 1099.78 604.37 1099.78C622.34 1099.78 636.9 1114.35 636.9 1132.34Z" />
		</g>
		<g id="&lt;Group&gt;">
			<g id="&lt;Group&gt;">
				<path id="&lt;Path&gt;" class="shp3" d="M614.49 0.25C645.28 0.25 670.28 25.26 670.28 56.08C670.28 86.9 645.28 111.92 614.49 111.92C583.7 111.92 558.71 86.9 558.71 56.08C558.71 25.26 583.7 0.25 614.49 0.25Z" />
			</g>
			<g id="&lt;Group&gt;">
				<path id="&lt;Path&gt;" class="shp12" d="M600.77 84.47C600.4 84.47 600.03 84.44 599.67 84.39C597.22 84.04 595.08 82.54 593.91 80.36L579.18 52.92C577.14 49.13 578.56 44.41 582.35 42.37C586.14 40.33 590.86 41.75 592.89 45.54L602.62 63.67L637.2 28.48C640.21 25.42 645.14 25.37 648.2 28.39C651.27 31.41 651.31 36.34 648.3 39.41L606.32 82.14C604.85 83.64 602.84 84.47 600.77 84.47Z" />
			</g>
		</g>
		<g id="&lt;Group&gt;">
			<g id="&lt;Group&gt;">
				<path id="&lt;Path&gt;" class="shp45" d="M1163.14 277.04C1163.14 309.09 1129.76 335.07 1088.59 335.07C1047.41 335.07 1014.03 309.09 1014.03 277.04C1014.03 244.98 1047.41 219 1088.59 219C1129.76 219 1163.14 244.98 1163.14 277.04Z" />
			</g>
			<g id="&lt;Group&gt;">
				<path id="&lt;Path&gt;" class="shp46" d="M1057.84 275.8C1057.84 280.7 1053.87 284.67 1048.97 284.67C1044.08 284.67 1040.11 280.7 1040.11 275.8C1040.11 270.9 1044.08 266.93 1048.97 266.93C1053.87 266.93 1057.84 270.9 1057.84 275.8Z" />
			</g>
			<g id="&lt;Group&gt;">
				<path id="&lt;Path&gt;" class="shp46" d="M1097.45 275.8C1097.45 280.7 1093.48 284.67 1088.59 284.67C1083.69 284.67 1079.72 280.7 1079.72 275.8C1079.72 270.9 1083.69 266.93 1088.59 266.93C1093.48 266.93 1097.45 270.9 1097.45 275.8Z" />
			</g>
			<g id="&lt;Group&gt;">
				<path id="&lt;Path&gt;" class="shp46" d="M1137.07 275.8C1137.07 280.7 1133.1 284.67 1128.21 284.67C1123.31 284.67 1119.34 280.7 1119.34 275.8C1119.34 270.9 1123.31 266.93 1128.21 266.93C1133.1 266.93 1137.07 270.9 1137.07 275.8Z" />
			</g>
			<g id="&lt;Group&gt;">
				<path id="&lt;Path&gt;" class="shp45" d="M1040.11 302.61L1003.52 335.07L1048.97 318.84L1040.11 302.61Z" />
			</g>
		</g>
		<g id="&lt;Group&gt;">
			<g id="&lt;Group&gt;">
				<path id="&lt;Path&gt;" class="shp45" d="M71.04 326.2C71.04 358.25 104.42 384.24 145.59 384.24C186.77 384.24 220.15 358.25 220.15 326.2C220.15 294.15 186.77 268.16 145.59 268.16C104.42 268.16 71.04 294.15 71.04 326.2Z" />
			</g>
			<g id="&lt;Group&gt;">
				<path id="&lt;Path&gt;" class="shp45" d="M194.08 351.77L230.67 384.24L185.21 368.01L194.08 351.77Z" />
			</g>
			<g id="&lt;Group&gt;">
				<g id="&lt;Group&gt;">
					<path id="&lt;Path&gt;" class="shp12" d="M166.38 319.41L166.38 319.41C166.89 317.46 167.16 315.41 167.16 313.3C167.16 300.03 156.41 289.27 143.15 289.27C129.89 289.27 119.13 300.03 119.13 313.3C119.13 315.41 119.41 317.46 119.92 319.41L119.92 319.41C119.92 319.42 119.92 319.42 119.92 319.43C120.54 321.79 121.51 324 122.77 326.02C127.09 335.54 132.9 346.44 143.15 363.14C152.45 347.21 159.88 333.91 163.83 325.51C164.94 323.64 165.8 321.6 166.37 319.44C166.37 319.43 166.38 319.42 166.38 319.41Z" />
				</g>
				<g id="&lt;Group&gt;">
					<path id="&lt;Path&gt;" class="shp45" d="M154.55 313.3C154.55 319.6 149.44 324.71 143.15 324.71C136.85 324.71 131.75 319.6 131.75 313.3C131.75 307 136.85 301.89 143.15 301.89C149.44 301.89 154.55 307 154.55 313.3Z" />
				</g>
			</g>
		</g>
		<g id="&lt;Group&gt;">
			<path id="&lt;Path&gt;" class="shp12" d="M36.4 183.78C31.8 162.73 60.31 152.31 76.03 155.2C87.8 157.35 96.1 166.47 99.96 177.43C101.61 182.11 102.3 187 102.3 191.94C102.3 192.63 102.3 193.67 102.3 195.06C102.82 193.01 103.29 191.5 103.7 190.54C107.21 182.34 117.51 177.23 125.92 181.25C137.9 186.99 137.76 206.24 134.18 216.98C132.45 222.19 107.71 221.27 103.24 221.27C77.84 221.27 53.78 218.66 28.64 215.74C21.97 214.96 7.16 216.25 3.15 209.57C-10.42 186.93 25.64 166.49 40.41 188.66L36.4 183.78Z" />
		</g>
		<g id="&lt;Group&gt;">
			<path id="&lt;Path&gt;" class="shp12" d="M905.41 59.17C901.85 42.84 923.95 34.76 936.15 37C945.27 38.67 951.7 45.74 954.7 54.24C955.98 57.87 956.52 61.66 956.52 65.49C956.52 66.03 956.52 66.84 956.52 67.91C956.92 66.32 957.28 65.15 957.6 64.4C960.32 58.05 968.31 54.08 974.83 57.2C984.12 61.65 984.01 76.58 981.24 84.91C979.89 88.94 960.71 88.24 957.24 88.24C937.54 88.24 918.89 86.21 899.4 83.94C894.23 83.34 882.74 84.34 879.63 79.16C869.11 61.61 897.07 45.76 908.53 62.95L905.41 59.17Z" />
		</g>
		<g id="&lt;Group&gt;">
			<path id="&lt;Path&gt;" class="shp12" d="M1399.96 223.63C1399.6 223.86 1400.15 221.24 1400.19 221.11C1401.37 216.6 1404.47 212.22 1407.68 208.91C1415.48 200.85 1428.72 198.68 1439.42 200.92C1451.38 203.43 1463.88 210.72 1467.78 222.7C1470.01 229.57 1469.97 236.67 1469.97 243.79C1469.97 244.05 1469.97 244.85 1469.97 244.59C1469.97 226.33 1516.93 232.5 1506.91 262.57C1504.56 269.65 1462.67 267.31 1455.5 267.07C1442.68 266.65 1359.55 271.51 1353.26 264.17C1327.4 233.98 1375.85 199.5 1399.96 223.63Z" />
		</g>
		<g id="&lt;Group&gt;">
			<g id="&lt;Group&gt;">
				<path id="&lt;Path&gt;" class="shp8" d="M1187.24 339.48L1197.28 364.43L1255.19 317.02L1187.24 339.48Z" />
			</g>
			<g id="&lt;Group&gt;">
				<path id="&lt;Path&gt;" class="shp37" d="M1197.28 364.43L1215.88 349.91L1200.97 342.26L1196.42 344.38L1197.28 364.43Z" />
			</g>
			<g id="&lt;Group&gt;">
				<path id="&lt;Path&gt;" class="shp9" d="M1171.37 329.41L1255.19 317.02L1187.24 339.48L1171.37 329.41Z" />
			</g>
			<g id="&lt;Group&gt;">
				<path id="&lt;Path&gt;" class="shp9" d="M1196.42 344.38L1221.46 360.7L1255.19 317.02L1196.42 344.38Z" />
			</g>
		</g>
	</g>
</svg>