<svg version="1.2" baseProfile="tiny-ps" xmlns="http://www.w3.org/2000/svg" viewBox="0 0 2137 1528" width="2137" height="1528">
	<title>Online_Shoping_29-ai</title>
	<defs>
		<clipPath clipPathUnits="userSpaceOnUse" id="cp1">
			<path d="M269.35 71.06L266.97 1267.92L688.35 1267.89L692.38 74.54L269.35 71.06Z" />
		</clipPath>
		<linearGradient id="grd1" gradientUnits="userSpaceOnUse"  x1="1363.644" y1="655.566" x2="536.657" y2="499.417">
			<stop offset="0" stop-color="#ffffff"  />
			<stop offset="1" stop-color="#000000"  />
		</linearGradient>
		<linearGradient id="grd2" gradientUnits="userSpaceOnUse"  x1="1481.164" y1="486.642" x2="792.123" y2="356.54">
			<stop offset="0" stop-color="#ffffff"  />
			<stop offset="1" stop-color="#000000"  />
		</linearGradient>
		<linearGradient id="grd3" gradientUnits="userSpaceOnUse"  x1="926.827" y1="1099.305" x2="267.328" y2="974.781">
			<stop offset="0" stop-color="#ffffff"  />
			<stop offset="1" stop-color="#000000"  />
		</linearGradient>
		<clipPath clipPathUnits="userSpaceOnUse" id="cp2">
			<path d="M1568.68 529.91C1576.65 516.42 1580.76 498.3 1585.4 479.31C1609.2 482.47 1640.66 485.83 1674.48 485.44C1684.09 485.49 1689.15 416.16 1611.67 405.42C1580.4 401.09 1541.42 411.67 1524.9 442.38C1507.11 475.47 1511.58 512.92 1527.4 529.65C1537.49 540.33 1557.85 542.61 1568.68 529.91Z" />
		</clipPath>
		<linearGradient id="grd4" gradientUnits="userSpaceOnUse"  x1="1717.151" y1="732.466" x2="2044.859" y2="722.295">
			<stop offset="0" stop-color="#ffffff"  />
			<stop offset="1" stop-color="#000000"  />
		</linearGradient>
	</defs>
	<style>
		tspan { white-space:pre }
		.shp0 { opacity: 0.302;fill: #000000 } 
		.shp1 { fill: #027273 } 
		.shp2 { fill: #013f40 } 
		.shp3 { fill: #03c0c2 } 
		.shp4 { fill: #0d0d0d } 
		.shp5 { fill: #ffffff } 
		.shp6 { fill: #e6e6e6 } 
		.shp7 { fill: #04f2f5 } 
		.shp8 { fill: #ffd84f } 
		.shp9 { fill: #03e484 } 
		.shp10 { fill: #94f3f7 } 
		.shp11 { fill: #f13005 } 
		.shp12 { fill: #f1e3e0 } 
		.shp13 { fill: #d62b04 } 
		.shp14 { fill: #f1c5bc } 
		.shp15 { fill: #808080 } 
		.shp16 { fill: #636363 } 
		.shp17 { fill: none;stroke: #808080;stroke-width: 10 } 
		.shp18 { fill: #222222 } 
		.shp19 { fill: #ff3305 } 
		.shp20 { opacity: 0.502;mix-blend-mode: screen;fill: url(#grd1) } 
		.shp21 { opacity: 0.502;mix-blend-mode: screen;fill: url(#grd2) } 
		.shp22 { opacity: 0.502;mix-blend-mode: screen;fill: url(#grd3) } 
		.shp23 { opacity: 0.6;mix-blend-mode: soft-light;fill: #222222 } 
		.shp24 { fill: #de7f04 } 
		.shp25 { fill: #ffa305 } 
		.shp26 { fill: #cccccc } 
		.shp27 { fill: #737373 } 
		.shp28 { fill: #e82728 } 
		.shp29 { fill: #b81f20 } 
		.shp30 { fill: #32613f } 
		.shp31 { fill: #024545 } 
		.shp32 { fill: #56a66b } 
		.shp33 { fill: #386b45 } 
		.shp34 { fill: #417d51 } 
		.shp35 { fill: #ffa794 } 
		.shp36 { fill: #b3523d } 
		.shp37 { fill: #b33a20 } 
		.shp38 { fill: #ff6162 } 
		.shp39 { opacity: 0.8;mix-blend-mode: soft-light;fill: #222222 } 
		.shp40 { opacity: 0.502;mix-blend-mode: screen;fill: url(#grd4) } 
		.shp41 { fill: #fdf280 } 
	</style>
	<g id="Layer 3">
		<g id="Layer 3">
			<path id="&lt;Path&gt;" class="shp0" d="M710.19 1296.53L266.97 1296.53C179.21 1291.64 136.31 1302.48 138.28 1329.05C141.75 1375.93 651.75 1345.02 689.03 1374.51C726.32 1403.99 745.83 1438.66 812.32 1455.51C878.81 1472.36 1004.82 1429.47 1358.01 1476.41C1571.74 1432.53 879.22 1296.53 710.19 1296.53Z" />
		</g>
		<g id="&lt;Group&gt;">
			<path id="&lt;Path&gt;" class="shp1" d="M181.94 74.29C181.35 -5.78 333.26 -17.53 331.47 24.59L604.19 25.54C635.74 25.99 661.22 54.55 661.11 89.32L657.52 1250.69C657.41 1284.72 632.06 1312.3 600.87 1312.31L311.99 1313.76C309.21 1319.43 304 1324.57 295.76 1328.83C214.93 1328.19 178.19 1296.35 177.87 1255.36C174.86 1247.8 178.68 89.35 181.94 74.29Z" />
			<path id="&lt;Path&gt;" class="shp2" d="M213.1 550.85L213.1 550.85C219.8 551.01 225.32 545.71 225.38 539.09L227.97 235.87C228.03 229.15 222.55 223.52 215.8 223.37L215.8 223.37C209.05 223.21 203.49 228.58 203.44 235.3L201.02 538.54C200.97 545.16 206.4 550.7 213.1 550.85Z" />
			<g id="&lt;Group&gt;">
				<path id="&lt;Path&gt;" class="shp3" d="M300.59 1329.05L656.02 1328.65C688.32 1328.7 714.6 1300.4 714.72 1265.42L719.04 70.95C719.17 35.18 692.79 5.86 660.1 5.48L303.63 0.85C270.68 0.48 243.9 29.32 243.84 65.26L241.73 1265.32C241.67 1300.47 268.03 1328.99 300.59 1329.05Z" />
				<path id="&lt;Path&gt;" class="shp4" d="M293.4 1320.57C295.55 1320.87 297.75 1321.02 299.94 1321.02L655.29 1320.06C683.05 1320.07 705.87 1295.25 705.97 1264.71L710.19 71.56C710.3 40.33 687.4 14.62 659.31 14.27L302.94 9.07C302.13 9.06 301.3 9.07 300.48 9.1C287.31 9.6 275.02 15.5 265.87 25.69C256.53 36.1 251.38 49.95 251.35 64.7L249.16 1265.97C249.11 1293.62 268.06 1317.08 293.4 1320.57Z" />
				<path id="&lt;Path&gt;" class="shp5" d="M269.72 71.06L267.34 1267.92L688.72 1267.89L692.75 74.54L269.72 71.06Z" />
				<g id="&lt;Clip Group&gt;" clip-path="url(#cp1)">
					<g id="&lt;Group&gt;">
						<g id="&lt;Group&gt;">
							<path id="&lt;Path&gt;" class="shp6" d="M707.78 185.07L193.78 185.07L193.78 1308.35L707.78 1308.35L707.78 185.07Z" />
							<path id="&lt;Path&gt;" class="shp7" d="M770.44 1167.58L-63.24 914.69L-30.21 887.23L753.09 1090.92L770.44 1167.58Z" />
							<path id="&lt;Path&gt;" class="shp5" d="M872.6 1208.09L-76.01 933.28L-71.03 916.11L877.58 1190.92L872.6 1208.09Z" />
							<g id="&lt;Group&gt;">
								<path id="&lt;Compound Path&gt;" fill-rule="evenodd" class="shp8" d="M514.09 729.22C519.96 786.68 462.62 838.81 380.56 848.78C371.68 849.86 362.6 850.44 353.38 850.44C344.16 850.44 335.11 849.86 326.36 848.78C244.98 838.81 191.19 786.68 200.98 729.22C209.88 676.97 269.29 637.18 338.47 630.25C345.8 629.51 353.31 629.12 360.93 629.12C368.54 629.12 376.02 629.51 383.34 630.25C452.06 637.18 508.75 676.97 514.09 729.22ZM468.24 729.22C466.01 693.45 429.47 665.22 382.99 658.28C375.6 657.17 367.89 656.58 359.99 656.58C352.09 656.58 344.38 657.17 336.92 658.28C289.96 665.19 251.5 693.45 246.83 729.22C241.85 767.36 276.58 801.27 328.5 810.15C336.87 811.6 345.64 812.36 354.68 812.36C363.72 812.36 372.58 811.6 381.05 810.15C433.58 801.24 470.62 767.36 468.24 729.22Z" />
								<path id="&lt;Path&gt;" class="shp8" d="M385.11 491.35L382.99 658.28C375.6 657.17 367.89 656.58 359.99 656.58C352.09 656.58 344.38 657.17 336.92 658.28L346.17 491.35L385.11 491.35Z" />
								<path id="&lt;Path&gt;" class="shp8" d="M804.65 746.67L479.5 746.67C480.92 741 481.45 735.14 481.01 729.2C480.58 723.32 479.23 717.66 477.06 712.27L792.62 712.27L804.65 746.67Z" />
								<path id="&lt;Path&gt;" class="shp8" d="M353.73 840.1C362.98 840.1 372.04 839.22 380.71 837.54L375.84 1268.23L305.75 1268.23L326.98 837.54C335.53 839.22 344.49 840.1 353.73 840.1Z" />
							</g>
							<g id="&lt;Group&gt;">
								<path id="&lt;Path&gt;" class="shp5" d="M170.48 601.43L89.74 601.43L101.69 561.68L186.25 561.68L170.48 601.43Z" />
								<path id="&lt;Path&gt;" class="shp5" d="M269.49 601.43L188.75 601.43L205.37 561.68L289.93 561.68L269.49 601.43Z" />
								<path id="&lt;Path&gt;" class="shp5" d="M326.86 561.68L305.72 561.68L284.56 601.43L324.03 601.43L326.86 561.68Z" />
								<path id="&lt;Path&gt;" class="shp5" d="M153.85 646.75L77.46 646.75L88.19 611.26L167.98 611.26L153.85 646.75Z" />
								<path id="&lt;Path&gt;" class="shp5" d="M247.87 645.43C248.01 645.36 248.16 645.3 248.3 645.24L265.83 611.26L186.03 611.26L171.13 646.75L245.19 646.75C246.08 646.31 246.96 645.86 247.87 645.43Z" />
								<path id="&lt;Path&gt;" class="shp5" d="M297.44 629.64C305.61 628.25 313.89 628.05 322.14 627.98L323.27 612.05L278.91 612.05L264.91 638.35C275.28 634.58 286.18 631.57 297.44 629.64Z" />
								<path id="&lt;Path&gt;" class="shp5" d="M138.44 685.45L65.76 685.45L75.45 653.4L151.2 653.4L138.44 685.45Z" />
								<path id="&lt;Path&gt;" class="shp5" d="M233 653.4L168.34 653.4L154.87 685.45L198.32 685.45C206.12 673.2 218.25 662.33 233 653.4Z" />
							</g>
							<path id="&lt;Path&gt;" class="shp9" d="M448.08 729.22C449.7 765.35 408.18 796.35 355.25 796.35C302.32 796.35 262.91 765.35 266.99 729.22C270.83 695.22 312.19 669.11 359.58 669.11C406.97 669.11 446.56 695.22 448.08 729.22Z" />
							<path id="&lt;Path&gt;" class="shp7" d="M360.87 674.02C413.22 680.17 436.1 696.7 429.5 723.61C418.86 767.06 375.26 767.06 381.96 739.05C388.35 712.34 365.07 706.53 352.76 694.32C340.72 682.37 340.39 674.51 360.87 674.02Z" />
							<path id="&lt;Path&gt;" class="shp9" d="M398.61 550.06L398.75 618.97C470.25 632.86 511.58 661.14 522.74 703.8C585.77 703.8 661.94 703.8 751.24 703.8L692.75 551.29L398.61 550.06Z" />
							<g id="&lt;Group&gt;">
								<path id="&lt;Path&gt;" class="shp5" d="M646.82 825.33L546.4 825.33L533.49 764.78L624.47 764.78L646.82 825.33Z" />
								<path id="&lt;Path&gt;" class="shp5" d="M771.57 825.33L671.16 825.33L646.52 764.78L737.5 764.78L771.57 825.33Z" />
								<path id="&lt;Path&gt;" class="shp5" d="M681.35 918.91L566.36 918.91L549.65 840.56L652.44 840.56L681.35 918.91Z" />
								<path id="&lt;Path&gt;" class="shp5" d="M824.22 918.91L709.23 918.91L677.35 840.56L780.14 840.56L824.22 918.91Z" />
								<path id="&lt;Path&gt;" class="shp5" d="M723.25 1048.56L689.3 940.43L570.95 940.43L581.77 1013.88L723.25 1048.56Z" />
								<path id="&lt;Path&gt;" class="shp5" d="M477.6 840.56C462.73 855.01 444.6 868.29 423.24 876.04L424.77 918.91L539.12 918.91L525.3 840.56L477.6 840.56Z" />
								<path id="&lt;Path&gt;" class="shp5" d="M789.07 1004.09C820.76 1011.71 852.81 1019.43 885.22 1027.31L836.33 940.43L717.98 940.43L738.99 992.06C755.59 996.05 772.29 1000.05 789.07 1004.09Z" />
							</g>
							<path id="&lt;Path&gt;" class="shp5" d="M60.45 762.38C74.41 763.6 88.54 764.54 102.75 765.34C103.31 760.83 103.89 756.35 104.3 751.92C105.35 740.49 105.94 729.25 105.6 718.4C105.56 717.12 105.47 715.85 105.41 714.57L57.16 714.57L42.67 760.66C48.58 761.26 54.5 761.85 60.45 762.38Z" />
							<path id="&lt;Path&gt;" class="shp5" d="M48.1 777.6C44.62 777.26 41.15 776.9 37.68 776.54L24.91 817.14L91.55 832.82C94.82 815.13 98 797.92 100.55 781.21C82.93 780.27 65.34 779.29 48.1 777.6Z" />
							<path id="&lt;Path&gt;" class="shp5" d="M124.5 766.47C144.43 767.42 164.44 768.2 184.38 769.14C179.1 748.46 179.67 730.27 186.09 714.57L126.82 714.57C126.85 715.46 126.89 716.34 126.92 717.22C127.46 733.09 126.39 749.52 124.5 766.47Z" />
							<path id="&lt;Path&gt;" class="shp5" d="M190.17 785.72C167.57 784.63 145.02 783.51 122.52 782.34C120.05 800.33 116.91 818.91 113.78 838.05L233.47 866.22C236.14 861.19 237.22 852.63 236.72 840.56C212.15 822.55 198.02 803.4 190.17 785.72Z" />
							<path id="&lt;Path&gt;" class="shp9" d="M-45.91 958.7C-41.81 958.78 70.02 991.77 289.59 1057.67L280.27 1186.2L-118.96 1186.2L-45.91 958.7Z" />
							<path id="&lt;Path&gt;" class="shp10" d="M706.82 554.91L196.97 554.91L196.97 187.12L706.82 187.12L706.82 554.91Z" />
						</g>
						<path id="&lt;Path&gt;" class="shp5" d="M429.33 939.03L540.3 942.68L546.17 1012.05L428.63 978.43L429.33 939.03Z" />
						<path id="&lt;Path&gt;" class="shp5" d="M108.02 852.78L228.51 881.52L213.91 936.29L93.42 899.78L108.02 852.78Z" />
						<path id="&lt;Path&gt;" class="shp5" d="M87.03 845.92L68.77 895.21L29.52 881.52L45.95 835.05L87.03 845.92Z" />
						<path id="&lt;Path&gt;" class="shp5" d="M254.07 852.78L236.73 940.85L304.28 957.28L313.4 869.65L254.07 852.78Z" />
					</g>
				</g>
			</g>
			<g id="&lt;Group&gt;">
				<g id="&lt;Group&gt;">
					<path id="&lt;Path&gt;" class="shp11" d="M565.56 260.5L517.99 260.11L365.1 71.85L412.88 72.24L565.56 260.5Z" />
					<path id="&lt;Path&gt;" class="shp12" d="M517.99 260.11L470.45 259.72L317.31 71.45L365.1 71.85L517.99 260.11Z" />
					<path id="&lt;Path&gt;" class="shp11" d="M470.45 259.72L422.88 259.34L269.56 71.06L317.31 71.45L470.45 259.72Z" />
					<path id="&lt;Path&gt;" class="shp12" d="M613.1 260.89L565.56 260.5L412.88 72.24L460.63 72.63L613.1 260.89Z" />
					<path id="&lt;Path&gt;" class="shp12" d="M708.2 261.67L660.67 261.28L508.41 73.02L556.16 73.41L708.2 261.67Z" />
					<path id="&lt;Path&gt;" class="shp11" d="M846.2 262.79L803.31 262.44L651.69 74.2L694.74 74.55L846.2 262.79Z" />
					<path id="&lt;Path&gt;" class="shp12" d="M803.31 262.44L755.77 262.06L603.94 73.81L651.69 74.2L803.31 262.44Z" />
					<path id="&lt;Path&gt;" class="shp11" d="M660.67 261.28L613.1 260.89L460.63 72.63L508.41 73.02L660.67 261.28Z" />
					<path id="&lt;Path&gt;" class="shp11" d="M755.77 262.06L708.2 261.67L556.16 73.41L603.94 73.81L755.77 262.06Z" />
				</g>
				<path id="&lt;Path&gt;" class="shp13" d="M470.45 259.72L470.47 288.38C470.48 318.75 422.98 318.36 422.92 288L422.88 259.34L470.45 259.72Z" />
				<path id="&lt;Path&gt;" class="shp14" d="M517.99 260.11L517.97 288.77C517.96 319.14 470.48 318.75 470.47 288.38L470.45 259.72L517.99 260.11Z" />
				<path id="&lt;Path&gt;" class="shp13" d="M565.56 260.5L565.51 289.16C565.46 319.53 517.96 319.14 517.97 288.77L517.99 260.11L565.56 260.5Z" />
				<path id="&lt;Path&gt;" class="shp14" d="M613.1 260.89L613.02 289.55C612.93 319.91 565.46 319.53 565.51 289.16L565.56 260.5L613.1 260.89Z" />
				<path id="&lt;Path&gt;" class="shp13" d="M660.67 261.28L660.56 289.94C660.44 320.3 612.93 319.91 613.02 289.55L613.1 260.89L660.67 261.28Z" />
				<path id="&lt;Path&gt;" class="shp14" d="M708.2 261.67L708.06 290.32C707.91 320.69 660.44 320.3 660.56 289.94L660.67 261.28L708.2 261.67Z" />
				<path id="&lt;Path&gt;" class="shp13" d="M755.77 262.06L755.6 290.71C755.41 321.08 707.91 320.69 708.06 290.32L708.2 261.67L755.77 262.06Z" />
				<path id="&lt;Path&gt;" class="shp14" d="M803.31 262.44L803.1 291.1C802.88 321.46 755.41 321.08 755.6 290.71L755.77 262.06L803.31 262.44Z" />
				<path id="&lt;Path&gt;" class="shp13" d="M846.2 262.79L845.96 291.45C845.71 321.81 802.88 321.46 803.1 291.1L803.31 262.44L846.2 262.79Z" />
				<path id="&lt;Path&gt;" class="shp11" d="M422.88 259.34L426.6 259.85L269.35 258.46L269.56 71.06L422.88 259.34Z" />
			</g>
			<path id="&lt;Path&gt;" class="shp15" d="M407.6 1020.21C385.39 998.07 420.41 944.93 472.08 894.83C492.93 874.61 516.5 854.89 540.1 837.89C540.91 837.48 541.6 836.99 542.12 836.45C542.47 836.19 542.83 835.94 543.18 835.69C543.18 835.43 543.14 835.17 543.06 834.9C543.17 834.53 543.21 834.14 543.16 833.75L529.04 759.76L638.72 758.71C640.34 758.71 641.86 757.91 642.76 756.56C643.67 755.21 643.85 753.5 643.24 752L623.39 703.24C622.64 701.41 620.86 700.21 618.88 700.21L518.9 700.21C516.49 694.37 510.43 681.77 498.4 668.19C483.58 651.46 456.44 629.99 411.36 622.68C401.34 622.28 401.8 631.31 409.8 632.31C443.53 637.77 470.77 651.9 490.78 674.3C505.74 691.05 510.83 706.42 510.88 706.57C511.53 708.59 513.41 709.96 515.53 709.96L615.59 709.96L631.47 748.96L521.88 748.96C514.9 749.15 512.84 753.88 513.01 759.92L520.59 827.68C451.07 866.55 373.14 917.8 337.55 949.26C289.41 991.82 289.95 1066.37 348.56 1121.18C482.1 1246.05 698.39 1330.06 924.66 1386.06C1378.57 1498.4 1679.92 1518.64 1710.02 1521.38C1812.66 1529.81 1945.94 1514.23 1933.68 1398.32C1921.43 1282.4 2115.56 1290.2 2136.49 1285.02C1906.16 1275.81 600.68 1212.61 407.6 1020.21Z" />
			<path id="&lt;Path&gt;" class="shp16" d="M2136.49 1285.02C2070.95 1283.43 1943.66 1288.9 1929.14 1375.98C1927.58 1386.22 1928.77 1396.54 1929.5 1406.75C1930.89 1429.82 1924.93 1453.59 1909.58 1471.18C1861.9 1520.9 1784.54 1519.87 1720.31 1517.57C1527.07 1502.67 1335.22 1471.43 1145.45 1432.47C934.31 1387.68 719.78 1340.57 526.78 1240.7C457.58 1203.8 388.95 1161.41 334.96 1103.9C296.53 1060.44 291.74 989.42 337.56 949.26C310.74 971.45 297.33 1007.68 302.66 1042.04C314.37 1119.81 404.79 1170.13 464.84 1211.12C601.88 1294.43 755.74 1345.82 910.26 1385.8C1176.2 1451.89 1446.32 1504.31 1719.71 1526.67C1793.64 1530.18 1904.41 1528.52 1934.3 1446.02C1942.71 1423.61 1936.71 1400.23 1938.69 1377.3C1950.57 1299.46 2079.27 1291.8 2136.49 1291.21L2136.49 1285.02Z" />
			<path id="&lt;Path&gt;" class="shp17" d="" />
			<g id="&lt;Group&gt;">
				<path id="&lt;Path&gt;" class="shp5" d="M534.96 1177.62C591.77 1202.85 657.92 1225.61 729.8 1246.14C733.68 1240.24 740.45 1229.07 742.47 1226.44C672.77 1209 608.55 1189.46 553.12 1167.58C547.08 1170.94 541.03 1174.29 534.96 1177.62Z" />
				<path id="&lt;Path&gt;" class="shp5" d="M359.06 1024.39C357.74 1024.58 351.94 1026.4 349.48 1027.31C352.53 1041.04 360.87 1056.47 371.14 1069C372.71 1070.85 374.33 1072.68 376 1074.51C379.48 1072.09 382.95 1069.66 386.42 1067.24C375.55 1055.37 364.79 1040.29 359.06 1024.39Z" />
				<path id="&lt;Path&gt;" class="shp5" d="M442.97 895.4C451.39 888.87 460.2 882.23 469.58 874.98C468.5 874.62 467.42 874.26 466.32 873.93C457.1 880.04 447.43 886.53 437.77 893.31C439.5 894.02 441.23 894.71 442.97 895.4Z" />
				<path id="&lt;Path&gt;" class="shp5" d="M426.35 905.97C414.52 914.42 402.84 923.28 392.14 932.37C394.48 933.85 396.95 935.18 399.42 936.43C409.87 926.14 420.54 917.18 431.88 908.24C430.03 907.49 428.18 906.74 426.35 905.97Z" />
				<path id="&lt;Path&gt;" class="shp5" d="M386.42 951.71C383.62 950.17 380.84 948.5 378.26 946.62C356.34 967.54 345.44 986.35 347.44 1009.89C350.3 1009.89 356.2 1009.56 359.12 1009.09C358.64 983.61 374.83 964.44 386.42 951.71Z" />
				<path id="&lt;Path&gt;" class="shp5" d="M405.54 1102.18C426.67 1119.4 451.97 1135.73 480.78 1151.22C485.99 1148.43 491.2 1145.63 496.4 1142.82C465.39 1127.75 438.45 1111.7 416.45 1094.6C412.81 1097.13 409.18 1099.65 405.54 1102.18Z" />
				<path id="&lt;Path&gt;" class="shp5" d="M847.19 1250.33C839.18 1257.17 831.16 1264.01 823.14 1270.85C911.8 1292.67 1006.16 1311.62 1100.52 1328.07C1109.38 1322.29 1130.64 1304.25 1137.15 1299.51C1038.8 1285.91 939.99 1269.67 847.19 1250.33Z" />
				<path id="&lt;Path&gt;" class="shp5" d="M1766.75 1362.09C1674.52 1355.68 1467.38 1337.94 1342.26 1324.53C1326.66 1336.01 1311.05 1347.48 1295.42 1358.93C1413.11 1375.88 1615.09 1397.55 1707.35 1408.03C1727 1392.53 1746.84 1377.26 1766.75 1362.09Z" />
			</g>
			<path id="&lt;Path&gt;" class="shp18" d="M447.79 624.74C447.79 631.09 431.71 636.24 411.87 636.24C392.04 636.24 375.96 631.09 375.96 624.74C375.96 618.39 392.04 613.24 411.87 613.24C431.71 613.24 447.79 618.39 447.79 624.74Z" />
			<path id="&lt;Path&gt;" class="shp5" d="M424.79 623.75C424.79 626.26 418.43 628.3 410.58 628.3C402.73 628.3 396.37 626.26 396.37 623.75C396.37 621.23 402.73 619.19 410.58 619.19C418.43 619.19 424.79 621.23 424.79 623.75Z" />
			<g id="&lt;Group&gt;">
				<path id="&lt;Compound Path&gt;" fill-rule="evenodd" class="shp19" d="M484.68 490.71C484.68 518 459.98 556.58 410.57 606.47C361.18 556.58 336.48 518 336.48 490.71C336.48 449.81 369.66 416.62 410.57 416.62C451.5 416.62 484.68 449.81 484.68 490.71ZM452.39 490.56C452.39 467.47 433.65 448.76 410.57 448.76C387.48 448.76 368.77 467.47 368.77 490.56C368.77 513.65 387.48 532.36 410.57 532.36C433.65 532.36 452.39 513.65 452.39 490.56Z" />
			</g>
			<g id="&lt;Group&gt;">
				<path id="&lt;Path&gt;" class="shp5" d="M970.75 327.1C970.8 326.44 970.84 325.78 970.84 325.11C970.84 311.08 959.46 299.71 945.44 299.71C931.41 299.71 920.04 311.08 920.04 325.11C920.04 325.78 920.07 326.44 920.12 327.1L970.75 327.1Z" />
				<path id="&lt;Path&gt;" class="shp5" d="M1054.2 327.1C1054.25 326.44 1054.28 325.78 1054.28 325.11C1054.28 311.08 1042.91 299.71 1028.88 299.71C1014.85 299.71 1003.48 311.08 1003.48 325.11C1003.48 325.78 1003.52 326.44 1003.57 327.1L1054.2 327.1Z" />
				<path id="&lt;Path&gt;" class="shp5" d="M1075.81 327.1C1075.88 326.44 1075.92 325.78 1075.92 325.11C1075.92 315.19 1067.88 307.15 1057.96 307.15C1048.04 307.15 1040 315.19 1040 325.11C1040 325.78 1040.04 326.44 1040.11 327.1L1075.81 327.1Z" />
				<path id="&lt;Path&gt;" class="shp5" d="M1024.98 327.1C1025.18 325.55 1025.28 323.97 1025.28 322.36C1025.28 301.81 1008.62 285.15 988.07 285.15C967.52 285.15 950.86 301.81 950.86 322.36C950.86 323.97 950.96 325.55 951.16 327.1L1024.98 327.1Z" />
			</g>
			<g id="&lt;Group&gt;">
				<path id="&lt;Path&gt;" class="shp5" d="M1251.01 234.18C1251.1 233.11 1251.15 232.03 1251.15 230.93C1251.15 208.05 1232.6 189.5 1209.72 189.5C1186.84 189.5 1168.29 208.05 1168.29 230.93C1168.29 232.03 1168.34 233.11 1168.43 234.18L1251.01 234.18Z" />
				<path id="&lt;Path&gt;" class="shp5" d="M1387.13 234.18C1387.21 233.11 1387.26 232.03 1387.26 230.93C1387.26 208.05 1368.71 189.5 1345.83 189.5C1322.95 189.5 1304.4 208.05 1304.4 230.93C1304.4 232.03 1304.46 233.11 1304.54 234.18L1387.13 234.18Z" />
				<path id="&lt;Path&gt;" class="shp5" d="M1422.37 234.18C1422.49 233.11 1422.56 232.03 1422.56 230.93C1422.56 214.75 1409.44 201.64 1393.26 201.64C1377.08 201.64 1363.96 214.75 1363.96 230.93C1363.96 232.03 1364.03 233.11 1364.15 234.18L1422.37 234.18Z" />
				<path id="&lt;Path&gt;" class="shp5" d="M1339.47 234.18C1339.79 231.65 1339.96 229.07 1339.96 226.46C1339.96 192.94 1312.78 165.76 1279.26 165.76C1245.74 165.76 1218.57 192.94 1218.57 226.46C1218.57 229.07 1218.73 231.65 1219.05 234.18L1339.47 234.18Z" />
			</g>
			<g id="&lt;Group&gt;">
				<path id="&lt;Path&gt;" class="shp5" d="M81.9 1070.01C81.85 1069.36 81.81 1068.71 81.81 1068.06C81.81 1054.31 92.96 1043.16 106.71 1043.16C120.46 1043.16 131.61 1054.31 131.61 1068.06C131.61 1068.71 131.57 1069.36 131.52 1070.01L81.9 1070.01Z" />
				<path id="&lt;Path&gt;" class="shp5" d="M0.11 1070.01C0.06 1069.36 0.02 1068.71 0.02 1068.06C0.02 1054.31 11.17 1043.16 24.92 1043.16C38.67 1043.16 49.82 1054.31 49.82 1068.06C49.82 1068.71 49.78 1069.36 49.73 1070.01L0.11 1070.01Z" />
				<path id="&lt;Path&gt;" class="shp5" d="M28.74 1070.01C28.55 1068.49 28.45 1066.94 28.45 1065.37C28.45 1045.22 44.78 1028.89 64.92 1028.89C85.07 1028.89 101.39 1045.22 101.39 1065.37C101.39 1066.94 101.29 1068.49 101.1 1070.01L28.74 1070.01Z" />
			</g>
			<g id="&lt;Group&gt;">
				<path id="&lt;Path&gt;" class="shp20" d="M1422.99 564.96C1223.07 557.07 1012.92 533.73 797.32 502.16L788.72 517.15C1004.82 580.71 1178.95 618.66 1341.04 633.38C1351.78 619.03 1399.54 574.62 1422.99 564.96Z" />
				<path id="&lt;Path&gt;" class="shp21" d="M1529.25 418.35C1329.33 410.45 1201.11 406.64 1003.21 384.24L997.98 393.37C1218.4 431.91 1329.69 441.09 1491.78 455.82C1494.53 444.48 1511.56 424.66 1529.25 418.35Z" />
				<path id="&lt;Path&gt;" class="shp22" d="M979.38 999.39C799.81 986.75 628.38 956.15 495.48 863.8L490.25 872.93C623.85 991.85 755.6 1064.94 935.47 1090.24C938.21 1078.9 961.34 1025.04 979.38 999.39Z" />
				<g id="&lt;Group&gt;">
					<g id="&lt;Group&gt;">
						<path id="&lt;Path&gt;" class="shp23" d="M1004.31 1217.35L1718.93 1290.29C1807.81 1306.49 1735.34 1388.37 1564.75 1376.88C1286.62 1343.17 1075.27 1315.16 930.69 1292.83C852.32 1280.72 872.46 1200.65 1004.31 1217.35Z" />
						<g id="&lt;Group&gt;">
							<g id="&lt;Group&gt;">
								<g id="&lt;Group&gt;">
									<g id="&lt;Group&gt;">
										<g id="&lt;Group&gt;">
											<g id="&lt;Group&gt;">
												<path id="&lt;Path&gt;" class="shp24" d="M1146.84 888.46L914.95 867.97L918.9 626.17L1150.8 646.66L1146.84 888.46Z" />
												<path id="&lt;Path&gt;" class="shp24" d="M910.31 617.14L909.48 667.95L1157.32 689.85L1158.19 636.56L910.31 617.14Z" />
											</g>
										</g>
										<g id="&lt;Group&gt;">
											<g id="&lt;Group&gt;">
												<path id="&lt;Path&gt;" class="shp25" d="M1029.54 880.03L837.43 863L841.4 621.19L1033.51 638.23L1029.54 880.03Z" />
												<path id="&lt;Path&gt;" class="shp25" d="M834.32 611.19L833.47 663.1L1038.79 681.31L1039.64 627.27L834.32 611.19Z" />
											</g>
										</g>
										<path id="&lt;Path&gt;" class="shp24" d="M1081.21 686.18L840.6 664.84L840.81 662.5L1081.42 683.83L1081.21 686.18Z" />
										<path id="&lt;Path&gt;" class="shp5" d="M879.02 866.68L864.63 865.41L868.78 613.81L883.16 615.09L879.02 866.68Z" />
									</g>
									<path id="&lt;Path&gt;" class="shp5" d="M999.43 877.48L985.04 876.2L989.17 623.51L1003.56 624.79L999.43 877.48Z" />
								</g>
								<g id="&lt;Group&gt;">
									<path id="&lt;Path&gt;" class="shp18" d="M1217.83 1164.95C1212.48 1222.51 1164.04 1266.41 1109.63 1263C1055.22 1259.6 1015.44 1210.18 1020.78 1152.62C1026.12 1095.06 1074.56 1051.16 1128.97 1054.57C1183.39 1057.97 1223.17 1107.39 1217.83 1164.95Z" />
									<path id="&lt;Path&gt;" class="shp18" d="M1242.81 1166.52C1237.22 1226.84 1188.81 1272.79 1125.44 1268.82C1062.07 1264.85 1015.23 1212.73 1020.83 1152.41C1026.43 1092.08 1082.34 1046.4 1145.71 1050.36C1209.09 1054.33 1248.41 1106.19 1242.81 1166.52Z" />
									<path id="&lt;Path&gt;" class="shp26" d="M1188.97 1163.15C1185.19 1203.85 1150.94 1234.89 1112.46 1232.48C1073.99 1230.07 1045.86 1195.13 1049.64 1154.43C1053.41 1113.73 1087.67 1082.68 1126.14 1085.09C1164.62 1087.5 1192.75 1122.45 1188.97 1163.15Z" />
									<path id="&lt;Path&gt;" class="shp27" d="M1149.04 1160.43C1147.28 1179.41 1131.31 1193.88 1113.37 1192.76C1095.44 1191.63 1082.32 1175.34 1084.08 1156.37C1085.85 1137.39 1101.81 1122.92 1119.75 1124.04C1137.69 1125.17 1150.8 1141.46 1149.04 1160.43Z" />
								</g>
								<path id="&lt;Path&gt;" class="shp28" d="M1400.72 1139.79C1382.9 1141.39 1187.72 1138.71 1400.89 921.36C1159.2 899.41 1042.76 853.56 944.45 1134.96L1381.36 1171.08C1402.23 1172.39 1406.51 1147.38 1400.72 1139.79Z" />
								<path id="&lt;Path&gt;" class="shp18" d="M1435.91 923.44L1197.51 903.96C1171.79 901.83 1176.43 847 1202.15 849.13L1440.56 868.61C1471.31 871.15 1466.67 925.98 1435.91 923.44Z" />
								<path id="&lt;Path&gt;" class="shp18" d="M1150.36 908.13L945.91 891.99C940.19 891.54 935.95 886.54 936.44 880.84L936.44 880.84C936.93 875.13 941.97 870.87 947.69 871.32L1152.14 887.46C1157.86 887.91 1162.1 892.9 1161.61 898.61C1161.12 904.32 1156.08 908.58 1150.36 908.13Z" />
								<path id="&lt;Path&gt;" class="shp18" d="M1036.06 983.57L961.34 886.67L970.18 879.85L1044.9 976.75L1036.06 983.57Z" />
								<path id="&lt;Path&gt;" class="shp29" d="M1357.96 919.65C1221.86 1062.06 1221.9 1136.68 1358.07 1143.48C1385.07 1144.2 1399.29 1142.97 1400.72 1139.79C1342.16 1129.75 1286.75 1107.55 1334.17 1031.8C1360.33 990.02 1395.48 953.73 1439.61 922.94L1357.96 919.65Z" />
								<g id="&lt;Group&gt;">
									<g id="&lt;Group&gt;">
										<path id="&lt;Path&gt;" class="shp29" d="M1244.19 1159.42C1247.41 1152.65 1250.24 1145.7 1252.6 1138.57C1278.68 1060.09 1238.9 1000.43 1167.28 985.5C1005.83 951.85 959.05 1128.81 957.72 1135.73L1244.19 1159.42Z" />
										<path id="&lt;Path&gt;" class="shp28" d="M1206.68 1156.31C1209.89 1149.55 1212.72 1142.59 1215.09 1135.47C1241.16 1056.98 1202.96 988.45 1129.77 982.4C1056.57 976.35 976.1 1035.07 950.03 1113.55C947.66 1120.68 945.84 1127.72 944.51 1134.64L1206.68 1156.31Z" />
									</g>
									<g id="&lt;Group&gt;">
										<path id="&lt;Path&gt;" class="shp18" d="M1148.67 1055.48L1053.84 1049.68C1051.99 1049.57 1050.61 1047.98 1050.78 1046.15L1050.81 1045.83C1050.97 1044 1052.62 1042.6 1054.48 1042.71L1149.3 1048.5C1151.16 1048.62 1152.53 1050.21 1152.37 1052.03L1152.34 1052.36C1152.17 1054.19 1150.52 1055.59 1148.67 1055.48Z" />
										<path id="&lt;Path&gt;" class="shp18" d="M1147.22 1071.32L1052.39 1065.53C1050.54 1065.42 1049.16 1063.83 1049.33 1062L1049.36 1061.67C1049.53 1059.85 1051.18 1058.44 1053.03 1058.56L1147.86 1064.35C1149.71 1064.46 1151.09 1066.05 1150.92 1067.88L1150.89 1068.2C1150.72 1070.03 1149.07 1071.43 1147.22 1071.32Z" />
										<path id="&lt;Path&gt;" class="shp18" d="M1145.78 1087.16L1050.95 1081.37C1049.1 1081.26 1047.72 1079.67 1047.88 1077.84L1047.91 1077.52C1048.08 1075.69 1049.73 1074.29 1051.59 1074.4L1146.41 1080.19C1148.26 1080.31 1149.64 1081.89 1149.48 1083.72L1149.45 1084.05C1149.28 1085.87 1147.63 1087.28 1145.78 1087.16Z" />
										<path id="&lt;Path&gt;" class="shp18" d="M1144.33 1103.01L1049.5 1097.22C1047.65 1097.1 1046.27 1095.52 1046.44 1093.69L1046.47 1093.36C1046.64 1091.54 1048.29 1090.13 1050.14 1090.25L1144.97 1096.04C1146.82 1096.15 1148.2 1097.74 1148.03 1099.57L1148 1099.89C1147.83 1101.72 1146.18 1103.12 1144.33 1103.01Z" />
									</g>
								</g>
								<g id="&lt;Group&gt;">
									<path id="&lt;Path&gt;" class="shp30" d="M1492.4 607.09C1473.35 674.55 1467.64 721.29 1475.28 747.3C1490.94 773.47 1557.96 785.3 1676.34 782.8L1689.36 754.03L1572.15 718.59L1583.98 647.55C1595.8 583.61 1523.54 561.66 1492.4 607.09Z" />
									<g id="&lt;Group&gt;">
										<path id="&lt;Path&gt;" class="shp31" d="M1374.49 1137.81L1446.83 1143.94C1465.93 1118.54 1595.59 944.25 1598.98 903.81C1601.83 869.91 1588.63 836.85 1504.02 801.29C1466.2 785.39 1425.49 781.37 1381.88 789.24C1349.99 822.78 1347.3 849.49 1373.8 869.38C1400.3 889.27 1438.72 905.08 1489.07 916.81L1374.49 1137.81Z" />
										<path id="&lt;Path&gt;" class="shp18" d="M1374.19 1138.36L1520.64 1149.72C1550.28 1137.74 1554.81 1118.92 1534.23 1093.26C1510.09 1070.64 1461.49 1082 1443.33 1106.94L1393.02 1103.78L1374.19 1138.36Z" />
									</g>
									<g id="&lt;Group&gt;">
										<path id="&lt;Path&gt;" class="shp1" d="M1293.87 1132.77L1366.22 1138.89C1385.31 1113.5 1514.98 939.21 1518.37 898.76C1521.22 864.87 1508.02 831.8 1423.41 796.24C1366.68 772.39 1326.45 778.42 1306.65 783.03C1286.84 787.64 1253.43 834.5 1293.18 864.34C1319.68 884.23 1358.11 900.04 1408.46 911.77L1293.87 1132.77Z" />
										<path id="&lt;Path&gt;" class="shp18" d="M1293.57 1133.32L1440.03 1144.68C1469.66 1132.69 1474.19 1113.87 1453.62 1088.22C1429.48 1065.59 1380.88 1076.96 1362.71 1101.9L1312.4 1098.73C1287.78 1110.7 1292.74 1121.96 1293.57 1133.32Z" />
									</g>
									<path id="&lt;Path&gt;" class="shp32" d="M1490.56 801.73C1526.53 786.87 1550.4 709.78 1573.66 662.16C1615.24 577.14 1483.75 516.42 1413.43 591.4C1348.6 656.78 1280.26 719.35 1288.77 794.71C1349.99 824.47 1463.15 815.73 1490.56 801.73Z" />
									<path id="&lt;Path&gt;" class="shp33" d="M1464.31 810.48L1463.16 808.42C1475.46 801.54 1480.13 786.59 1485.54 769.28C1490.59 753.15 1496.31 734.86 1509.66 720.49C1544.22 671.52 1554.2 636.4 1556.48 615.56C1558.95 593.04 1553.2 581.93 1553.15 581.82L1555.22 580.71C1555.47 581.17 1561.33 592.39 1558.85 615.54C1556.59 636.7 1546.54 672.34 1511.54 721.91L1511.44 722.03C1498.41 736.02 1492.77 754.07 1487.79 769.99C1482.23 787.78 1477.43 803.14 1464.31 810.48Z" />
									<path id="&lt;Path&gt;" class="shp34" d="M1414.89 599.21C1349.31 662.7 1326.62 712.09 1346.84 747.39C1371.25 789.98 1522.71 799 1532.9 787.48L1545.92 758.71C1534.92 732.68 1478.75 722.23 1434.27 712.04L1484.93 665.73C1529.04 622.93 1470.26 550.25 1414.89 599.21Z" />
									<path id="&lt;Path&gt;" class="shp34" d="M1560.14 608.63C1565.7 612 1568.1 617.82 1567.33 626.09C1584.56 612.28 1567.36 566.83 1523.55 550.94C1495.85 540.89 1508.05 560.12 1560.14 608.63Z" />
									<g id="&lt;Group&gt;">
										<path id="&lt;Path&gt;" class="shp35" d="M1511.22 559.89C1502.74 568.97 1519.04 585.22 1560.14 608.63L1603.45 550.14L1553.12 517.15L1511.22 559.89Z" />
										<path id="&lt;Path&gt;" class="shp35" d="M1536.89 499.79C1545.88 558.94 1574.71 586.01 1623.37 581C1656.04 577.64 1670.38 529.18 1670.16 500.85C1669.69 438.56 1615.64 407.87 1583 421.67C1528.88 444.56 1536.64 491.41 1536.89 499.79Z" />
										<path id="&lt;Path&gt;" class="shp18" d="M1547.36 533.5C1556.75 560.27 1573.33 576.14 1597.08 581.1C1606.66 582.44 1612.7 582.56 1615.18 581.45C1609.24 581.26 1569.79 569.18 1563.55 525.21C1561.33 516.74 1544.51 523.12 1547.36 533.5Z" />
										<path id="&lt;Path&gt;" class="shp28" d="M1568.68 529.91C1576.65 516.42 1580.76 498.3 1585.4 479.31C1609.2 482.47 1640.66 485.83 1674.48 485.44C1684.09 485.49 1689.15 416.16 1611.67 405.42C1580.4 401.09 1541.42 411.67 1524.9 442.38C1507.11 475.47 1511.58 512.92 1527.4 529.65C1537.49 540.33 1557.85 542.61 1568.68 529.91Z" />
										<g id="&lt;Clip Group&gt;" clip-path="url(#cp2)">
											<path id="&lt;Path&gt;" class="shp5" d="M1652.83 484.67L1648.49 485.55C1655.85 457.54 1638.39 435.98 1626.94 426.72C1607.3 410.83 1579.36 403.14 1565.93 409.93L1564.21 406.51C1579.08 399 1608.31 406.73 1629.35 423.75C1641.51 433.59 1660.73 454.58 1652.83 484.67Z" />
											<path id="&lt;Path&gt;" class="shp5" d="M1660.57 487.29L1656.9 486.21C1662.8 466.16 1657.81 446.3 1642.86 430.29C1625.8 412 1599.49 403 1577.43 407.87L1576.6 404.14C1599.95 398.98 1627.7 408.44 1645.66 427.68C1661.57 444.72 1666.86 465.89 1660.57 487.29Z" />
										</g>
										<path id="&lt;Path&gt;" class="shp36" d="M1634.8 527.27C1631.43 527.31 1628.74 526.79 1628.52 526.74C1627.83 526.6 1627.38 525.93 1627.52 525.24C1627.66 524.55 1628.32 524.1 1629.02 524.24C1629.12 524.26 1638.78 526.14 1643.69 522.27C1644.1 521.95 1644.3 521.52 1644.33 520.92C1644.58 516.54 1636.36 507.45 1633.17 504.32C1632.67 503.83 1632.66 503.02 1633.15 502.52C1633.65 502.02 1634.45 502.01 1634.95 502.5C1636.21 503.74 1647.22 514.75 1646.88 521.06C1646.8 522.39 1646.25 523.5 1645.26 524.28C1642.32 526.59 1638.22 527.22 1634.8 527.27Z" />
										<path id="&lt;Path&gt;" class="shp18" d="M1604.75 498.95C1604.43 502.43 1602.06 505.13 1599.47 504.97C1596.87 504.8 1595.03 501.85 1595.36 498.36C1595.68 494.87 1598.05 492.18 1600.64 492.34C1603.23 492.5 1605.07 495.46 1604.75 498.95Z" />
										<path id="&lt;Path&gt;" class="shp18" d="M1660.23 503.27C1659.95 506.25 1657.93 508.55 1655.71 508.41C1653.5 508.27 1651.92 505.75 1652.2 502.77C1652.48 499.79 1654.5 497.48 1656.72 497.62C1658.93 497.76 1660.5 500.29 1660.23 503.27Z" />
										<path id="&lt;Path&gt;" class="shp37" d="M1599.22 532.3C1608.7 543.91 1624.2 548.99 1645.71 547.54C1633.52 564.14 1620.18 569 1605.72 562.12C1591.25 555.24 1589.08 545.3 1599.22 532.3Z" />
										<path id="&lt;Path&gt;" class="shp18" d="M1585.4 479.31C1621.16 483.02 1655.61 486.29 1676.27 485C1692.08 489.85 1697.89 493.89 1693.71 497.12C1689.54 500.36 1653.43 494.42 1585.4 479.31Z" />
									</g>
									<path id="&lt;Path&gt;" class="shp34" d="M1523.55 550.94C1514.69 546.81 1508.13 549.17 1503.88 558.02C1505.6 591.29 1530.92 622.78 1543.96 625.91C1546.08 620.53 1550.61 613.9 1560.14 608.63C1535.81 588.46 1523.61 569.23 1523.55 550.94Z" />
								</g>
								<g id="&lt;Group&gt;">
									<g id="&lt;Group&gt;">
										<path id="&lt;Path&gt;" class="shp18" d="M1773.75 1219.55C1768.74 1273.59 1723.26 1314.81 1672.17 1311.61C1621.08 1308.41 1583.74 1262.01 1588.75 1207.97C1593.77 1153.93 1639.25 1112.72 1690.33 1115.91C1741.42 1119.11 1778.77 1165.51 1773.75 1219.55Z" />
										<path id="&lt;Path&gt;" class="shp18" d="M1797.21 1221.02C1791.96 1277.66 1746.51 1320.8 1687.01 1317.07C1627.51 1313.35 1583.54 1264.41 1588.8 1207.77C1594.05 1151.14 1646.55 1108.24 1706.05 1111.96C1765.55 1115.69 1802.47 1164.38 1797.21 1221.02Z" />
										<path id="&lt;Path&gt;" class="shp26" d="M1746.66 1217.86C1743.11 1256.07 1710.96 1285.21 1674.83 1282.95C1638.71 1280.69 1612.3 1247.88 1615.84 1209.67C1619.39 1171.46 1651.55 1142.31 1687.67 1144.57C1723.8 1146.83 1750.21 1179.64 1746.66 1217.86Z" />
										<path id="&lt;Path&gt;" class="shp27" d="M1709.17 1215.31C1707.52 1233.12 1692.53 1246.71 1675.69 1245.66C1658.84 1244.6 1646.53 1229.31 1648.19 1211.49C1649.84 1193.68 1664.83 1180.09 1681.67 1181.14C1698.51 1182.2 1710.83 1197.49 1709.17 1215.31Z" />
									</g>
									<path id="&lt;Path&gt;" class="shp28" d="M1728.91 1138.06C1710.22 1161.71 1684.89 1179.31 1655.6 1186.66C1653.82 1187.1 1652.03 1187.52 1650.23 1187.88C1647.34 1188.48 1644.44 1188.96 1641.51 1189.34C1634.94 1190.21 1628.29 1190.56 1621.65 1190.39C1619.13 1190.34 1616.61 1190.2 1614.1 1190L1612.2 1189.84L1496.44 1180.27C1496.44 1180.27 1496.43 1180.27 1496.43 1180.27L1386.01 1172.62C1334.08 1169.37 1340.21 1149.58 1389.84 1142.69C1544.46 1143.32 1613.66 979.02 1574.56 892.68C1561.23 861.1 1596.55 836.87 1630.5 831.71C1634.93 831.04 1639.34 830.69 1643.61 830.69C1646.55 830.68 1649.43 830.85 1652.21 831.2C1653.09 831.32 1653.94 831.43 1654.8 831.58C1659.1 832.15 1663.29 833.05 1667.33 834.34C1679.49 838.2 1690.12 845.42 1697.15 856.69L1749.49 974.97C1774.93 1032.47 1762.81 1095.19 1728.91 1138.06Z" />
									<path id="&lt;Path&gt;" class="shp5" d="M1719.05 1069.54C1718.61 1072.44 1718.09 1075.3 1717.49 1078.11L1731.85 1078.73C1732.19 1076.87 1732.51 1075.04 1732.78 1073.23C1739.2 1030.39 1727.39 995.49 1726.89 994.03L1667.33 834.34C1663.29 833.05 1653.6 831.77 1650.65 831.77L1714.05 999.93C1714.67 1001.79 1724.6 1032.53 1719.05 1069.54Z" />
									<g id="&lt;Group&gt;">
										<path id="&lt;Path&gt;" class="shp38" d="M1721.03 727.94L1721.03 727.95C1719.5 727.76 1717.93 727.71 1716.34 727.82C1713.66 728 1711.01 728.59 1708.41 729.56C1689.09 736.74 1672.94 764.66 1670.68 797.05C1669.14 819.14 1674.41 838.28 1683.79 849.7C1686.78 853.33 1690.17 856.17 1693.9 858.09L1668.74 849.33L1666.6 848.59C1649.26 841.76 1637.81 817.67 1639.72 788.28C1641.95 753.96 1661.57 724.92 1684.17 721.67C1688.26 721.8 1692.5 722.14 1696.86 722.71C1704.53 723.7 1712.58 725.4 1721.03 727.94Z" />
										<path id="&lt;Path&gt;" class="shp28" d="M1666.6 848.59L1592.54 822.81C1575.28 814.97 1571.57 799.29 1581.43 775.78C1603.66 738.22 1637.91 720.19 1684.17 721.67C1661.57 724.92 1641.95 753.96 1639.72 788.28C1637.81 817.67 1649.26 841.76 1666.6 848.59Z" />
										<path id="&lt;Path&gt;" class="shp28" d="M1721.03 727.95C1720.41 731.04 1719.4 736.2 1718.16 742.75C1713.27 768.48 1704.58 815.5 1699.86 841.15C1698.53 848.37 1697.43 854.32 1696.56 859.01L1693.9 858.09C1690.17 856.17 1686.78 853.33 1683.79 849.7C1674.41 838.28 1669.14 819.14 1670.68 797.05C1672.94 764.66 1689.09 736.74 1708.41 729.56C1711.01 728.59 1713.66 728 1716.34 727.82C1717.93 727.71 1719.5 727.76 1721.03 727.95Z" />
										<path id="&lt;Path&gt;" class="shp38" d="M1752.71 791.6C1750.14 828.33 1729.7 859.33 1707.05 860.84C1702.36 861.15 1697.93 860.16 1693.9 858.09C1690.17 856.17 1686.78 853.33 1683.79 849.7C1674.41 838.28 1669.14 819.14 1670.68 797.05C1672.94 764.66 1689.09 736.74 1708.41 729.56C1711.01 728.59 1713.66 728 1716.34 727.82C1717.93 727.71 1719.5 727.76 1721.03 727.95C1741.19 730.38 1755.09 757.45 1752.71 791.6Z" />
										<path id="&lt;Path&gt;" class="shp5" d="M1748.32 792.01C1746.2 822.48 1729.23 848.2 1710.44 849.45C1706.55 849.71 1702.88 848.89 1699.53 847.17C1696.43 845.58 1693.62 843.22 1691.14 840.21C1683.36 830.74 1678.98 814.86 1680.26 796.53C1682.14 769.65 1695.54 746.48 1711.57 740.53C1713.72 739.73 1715.92 739.23 1718.15 739.09C1719.47 739 1720.77 739.04 1722.04 739.19C1738.76 741.21 1750.3 763.67 1748.32 792.01Z" />
										<g id="&lt;Group&gt;">
											<path id="&lt;Path&gt;" class="shp18" d="M1609.49 805.6L1521.38 807.56L1521.59 769.36L1609.67 772.38C1626.77 772 1625.76 805.24 1609.49 805.6Z" />
											<path id="&lt;Path&gt;" class="shp18" d="M1533.7 788.19C1533.64 798.74 1528.13 807.41 1521.38 807.56C1514.63 807.71 1509.21 799.28 1509.26 788.73C1509.32 778.18 1514.84 769.51 1521.59 769.36C1528.34 769.21 1533.76 777.64 1533.7 788.19Z" />
										</g>
									</g>
									<path id="&lt;Path&gt;" class="shp29" d="M1744.11 1108.94C1740.65 1119 1735.31 1128.79 1728.91 1138.06C1710.21 1161.7 1684.89 1179.31 1655.6 1186.66C1650.96 1187.82 1646.25 1188.72 1641.51 1189.34C1632.44 1190.54 1623.22 1190.74 1614.1 1190L1612.2 1189.84L1496.45 1180.27C1497.59 1180.2 1569.04 1186.27 1621.77 1103.87C1667.16 1035.06 1763.03 1053.96 1744.11 1108.94Z" />
									<path id="&lt;Path&gt;" class="shp28" d="M1832.37 1204.34C1833.18 1203.63 1833.67 1202.85 1833.79 1202.02C1843.6 1133.01 1761.83 1059.27 1698.18 1066.52C1642.58 1081.17 1608.01 1130.43 1600.54 1188.88L1832.37 1204.34Z" />
									<path id="&lt;Path&gt;" class="shp35" d="M1530.56 767.39C1539.06 754.92 1553.07 752.11 1572.6 758.95C1601.89 769.22 1591.92 802.02 1584.04 806.17C1576.17 810.32 1548.91 814.11 1552.89 806.86C1556.86 799.62 1561.05 787.53 1554.36 777.55C1551.31 773 1543.31 770.37 1530.35 769.66L1530.56 767.39Z" />
								</g>
								<path id="&lt;Path&gt;" class="shp18" d="M1160.97 898.94L1149.27 897.6L1156.32 835.92L1106.88 832.83L1099.97 893.22L1088.27 891.88L1095.81 825.93C1096.16 822.82 1098.9 820.54 1102.03 820.72L1163.24 824.55C1164.86 824.65 1166.36 825.41 1167.39 826.65C1168.43 827.89 1168.91 829.5 1168.73 831.1L1160.97 898.94Z" />
								<path id="&lt;Path&gt;" class="shp39" d="M1022.45 1141.45L1244.19 1159.42L1235.43 1198.45L1020.46 1166.42L1022.45 1141.45Z" />
								<path id="&lt;Path&gt;" class="shp39" d="M1592.33 1188.2L1797.61 1202.16C1798.15 1216.6 1796.91 1229.97 1793.3 1241.94L1588.31 1213.33C1588.91 1204.23 1590.07 1195.68 1592.33 1188.2Z" />
							</g>
						</g>
					</g>
					<g id="&lt;Group&gt;">
						<path id="&lt;Path&gt;" class="shp32" d="M1067.25 504.58C1067.72 539.06 1040.15 567.39 1005.67 567.86C971.19 568.33 942.86 540.75 942.39 506.27C941.92 471.79 969.5 443.46 1003.98 442.99C1038.46 442.53 1066.79 470.1 1067.25 504.58Z" />
						<path id="&lt;Path&gt;" class="shp5" d="M1001.45 534.78L972.36 489.32L977.24 484.16L1001.35 506.97L1074.24 442.04L1078.98 448.08L1001.45 534.78Z" />
					</g>
				</g>
				<path id="&lt;Path&gt;" class="shp40" d="M1718.15 739.09L2040.7 724.42L2007.63 928.7L1706.1 849.54L1718.15 739.09Z" />
			</g>
			<g id="&lt;Group&gt;">
				<path id="&lt;Path&gt;" class="shp5" d="M761.08 528.97L544.57 528.97C535.17 528.97 527.55 521.35 527.55 511.96L527.55 385.57C527.55 376.17 535.17 368.55 544.57 368.55L761.08 368.55C770.47 368.55 778.09 376.17 778.09 385.57L778.09 511.96C778.09 521.35 770.47 528.97 761.08 528.97Z" />
				<g id="&lt;Group&gt;">
					<path id="&lt;Path&gt;" class="shp41" d="M575.34 484.95L577.75 492.36L585.54 492.36L579.24 496.94L581.65 504.35L575.34 499.77L569.04 504.35L571.45 496.94L565.14 492.36L572.94 492.36L575.34 484.95Z" />
					<path id="&lt;Path&gt;" class="shp41" d="M613.65 484.95L616.05 492.36L623.85 492.36L617.54 496.94L619.95 504.35L613.65 499.77L607.34 504.35L609.75 496.94L603.45 492.36L611.24 492.36L613.65 484.95Z" />
					<path id="&lt;Path&gt;" class="shp41" d="M651.95 484.95L654.36 492.36L662.15 492.36L655.85 496.94L658.25 504.35L651.95 499.77L645.65 504.35L648.05 496.94L641.75 492.36L649.54 492.36L651.95 484.95Z" />
					<path id="&lt;Path&gt;" class="shp41" d="M690.25 484.95L692.66 492.36L700.45 492.36L694.15 496.94L696.56 504.35L690.25 499.77L683.95 504.35L686.36 496.94L680.06 492.36L687.85 492.36L690.25 484.95Z" />
					<path id="&lt;Path&gt;" class="shp41" d="M728.56 484.95L730.97 492.36L738.76 492.36L732.45 496.94L734.86 504.35L728.56 499.77L722.25 504.35L724.66 496.94L718.36 492.36L726.15 492.36L728.56 484.95Z" />
				</g>
				<path id="&lt;Path&gt;" class="shp10" d="M734.37 408.34L680.36 408.34C677.94 408.34 675.97 406.38 675.97 403.95C675.97 401.53 677.94 399.56 680.36 399.56L734.37 399.56C736.79 399.56 738.76 401.53 738.76 403.95C738.76 406.38 736.79 408.34 734.37 408.34Z" />
				<path id="&lt;Path&gt;" class="shp10" d="M734.37 427.54L664.35 427.54C661.92 427.54 659.95 425.58 659.95 423.15C659.95 420.73 661.92 418.76 664.35 418.76L734.37 418.76C736.79 418.76 738.76 420.73 738.76 423.15C738.76 425.58 736.79 427.54 734.37 427.54Z" />
				<path id="&lt;Path&gt;" class="shp10" d="M734.37 446.74L664.35 446.74C661.92 446.74 659.95 444.78 659.95 442.35C659.95 439.92 661.92 437.96 664.35 437.96L734.37 437.96C736.79 437.96 738.76 439.92 738.76 442.35C738.76 444.78 736.79 446.74 734.37 446.74Z" />
				<path id="&lt;Path&gt;" class="shp10" d="M734.37 465.94L664.35 465.94C661.92 465.94 659.95 463.97 659.95 461.55C659.95 459.12 661.92 457.16 664.35 457.16L734.37 457.16C736.79 457.16 738.76 459.12 738.76 461.55C738.76 463.97 736.79 465.94 734.37 465.94Z" />
				<path id="&lt;Path&gt;" class="shp10" d="M638.61 467.88L559.16 467.88L559.16 396.4L638.61 396.4L638.61 467.88Z" />
			</g>
		</g>
	</g>
</svg>